 <svg version="1.0" xmlns="http://www.w3.org/2000/svg"  width="300.000000pt" height="224.000000pt" viewBox="0 0 300.000000 224.000000"  preserveAspectRatio="xMidYMid meet">  <g transform="translate(0.000000,224.000000) scale(0.100000,-0.100000)" fill="#000000" stroke="none"> <path d="M0 1120 c0 -740 3 -1120 10 -1120 7 0 10 380 10 1120 0 740 -3 1120 -10 1120 -7 0 -10 -380 -10 -1120z"/> <path d="M2995 1120 c0 -619 1 -872 2 -563 2 310 2 816 0 1125 -1 310 -2 57 -2 -562z"/> <path d="M131 2186 c-51 -28 -67 -104 -31 -149 50 -63 146 -52 176 19 19 45 12 78 -26 115 -32 32 -78 38 -119 15z m77 -28 c-3 -7 -13 -13 -23 -13 -10 0 -20 6 -22 13 -3 7 5 12 22 12 17 0 25 -5 23 -12z m-42 -29 l19 -21 17 22 c10 12 22 18 28 15 8 -5 4 -15 -9 -29 -21 -22 -21 -23 -3 -39 10 -10 23 -14 27 -10 5 5 3 0 -4 -10 -13 -17 -15 -17 -36 3 l-22 20 -18 -20 -19 -21 -18 23 c-19 25 -24 58 -8 58 6 0 10 -11 10 -25 0 -28 12 -32 29 -12 8 11 6 18 -9 32 -11 10 -20 22 -20 27 0 14 16 9 36 -13z m92 -32 c2 -10 -3 -17 -12 -17 -10 0 -16 9 -16 21 0 24 23 21 28 -4z m-53 -56 c3 -5 1 -13 -5 -16 -15 -9 -43 3 -35 15 8 13 32 13 40 1z"/> <path d="M1230 1970 c-47 -8 -60 -17 -60 -40 0 -26 -106 -80 -155 -80 -45 0 -95 -25 -95 -48 0 -11 -26 -31 -78 -57 l-77 -40 -3 -186 -2 -186 -33 -14 c-17 -8 -36 -25 -42 -37 -13 -32 -99 -74 -156 -77 -57 -3 -89 -20 -89 -45 0 -15 -21 -30 -80 -60 l-80 -40 2 -212 3 -212 195 -99 c107 -54 219 -109 247 -123 l53 -24 242 121 241 121 226 -112 c124 -63 234 -117 243 -122 13 -6 146 57 508 238 l490 246 -2 212 -3 211 -75 37 c-52 26 -77 45 -83 61 -9 29 -45 47 -94 47 -50 0 -140 45 -147 74 -13 51 -141 62 -178 16 -17 -21 -19 -21 -43 -6 -14 9 -25 23 -25 31 0 23 -42 45 -87 45 -53 0 -153 47 -153 72 0 26 -39 48 -85 48 -50 0 -155 48 -155 71 0 26 -26 41 -78 46 -60 5 -162 52 -162 74 0 35 -66 60 -130 49z m81 -30 c30 -17 23 -38 -16 -46 -46 -8 -105 3 -105 21 0 31 79 47 121 25z m-144 -102 c0 -53 20 -68 93 -68 74 0 100 18 100 71 l0 40 33 -17 c42 -22 42 -21 27 -39 -16 -20 -23 -120 -10 -145 13 -24 82 -43 123 -34 48 10 67 31 67 76 l0 38 42 -21 c29 -15 37 -23 28 -29 -17 -11 -28 -97 -18 -138 7 -25 16 -33 46 -42 49 -13 66 -13 107 4 32 14 35 19 35 55 0 45 7 48 51 25 29 -14 30 -17 15 -33 -25 -27 -22 -132 4 -156 31 -28 108 -31 149 -5 30 19 33 25 28 56 -3 19 -3 34 1 34 12 0 112 -45 112 -50 0 -3 -102 -56 -227 -119 l-227 -114 -468 234 c-257 129 -468 236 -468 239 0 3 25 17 55 32 l55 27 0 -39 c0 -44 22 -66 77 -76 40 -7 100 12 113 36 16 30 12 126 -5 140 -22 18 -19 24 18 43 44 22 44 22 44 -25z m173 10 c0 -34 -33 -58 -78 -58 -51 0 -72 16 -72 53 l0 32 75 0 c75 0 75 0 75 -27z m-269 -28 c30 -17 23 -38 -16 -46 -46 -8 -105 3 -105 21 0 31 79 47 121 25z m488 -7 c23 -15 23 -17 6 -30 -25 -18 -96 -17 -121 2 -19 15 -19 15 0 30 26 20 86 19 115 -2z m-557 -71 c15 -2 41 1 58 6 30 11 30 10 30 -23 0 -41 -20 -55 -77 -55 -51 0 -63 10 -69 55 -4 33 -2 36 13 30 10 -4 30 -10 45 -13z m503 4 c22 0 48 4 58 8 14 7 17 3 17 -22 0 -42 -23 -62 -71 -62 -59 0 -79 14 -79 56 0 31 3 35 18 28 9 -4 35 -8 57 -8z m289 -46 c29 -11 34 -35 10 -44 -30 -12 -111 -6 -123 8 -10 11 -7 17 11 30 26 18 65 21 102 6z m-59 -683 c0 -103 -1 -187 -2 -187 -2 0 -139 68 -306 152 -259 129 -305 155 -314 179 -8 20 -21 30 -51 38 -22 6 -47 9 -55 5 -20 -7 -137 52 -137 70 0 22 -29 46 -56 46 l-24 0 0 180 0 179 472 -238 472 -237 1 -187z m49 610 l36 11 0 -34 c0 -39 -21 -54 -75 -54 -54 0 -75 15 -75 54 l0 33 39 -10 c28 -8 50 -8 75 0z m265 -56 c38 -25 -29 -59 -89 -46 -34 7 -44 19 -36 40 6 17 101 21 125 6z m249 -44 c18 -14 -2 -34 -45 -42 -66 -12 -130 36 -65 51 15 3 31 7 37 8 16 4 59 -6 73 -17z m-308 -27 c17 0 40 5 51 10 17 10 19 7 19 -29 0 -44 -10 -51 -70 -51 -60 0 -70 7 -70 51 0 36 2 39 19 29 11 -5 34 -10 51 -10z m320 -55 c0 -24 -6 -37 -19 -45 -36 -19 -51 -12 -51 23 0 27 5 35 28 44 41 16 42 16 42 -22z m73 8 c18 -6 24 -33 7 -33 -17 0 -12 -146 5 -160 25 -20 97 -24 138 -7 34 15 37 19 37 56 0 23 3 41 8 41 4 -1 31 -13 60 -28 l53 -28 -216 -107 c-118 -58 -219 -107 -223 -107 -4 -1 -8 8 -10 18 -2 14 5 21 26 25 49 10 62 31 62 101 0 69 -14 91 -60 98 -36 5 -38 36 -3 44 43 10 63 33 63 72 0 29 3 33 18 27 9 -4 25 -10 35 -12z m-163 -203 l0 -190 -222 -112 c-123 -62 -226 -114 -230 -116 -5 -2 -8 81 -8 185 l0 188 228 116 c125 64 228 117 230 118 1 0 2 -84 2 -189z m321 153 c20 -23 -5 -37 -65 -37 -61 -1 -87 14 -67 38 22 26 110 26 132 -1z m9 -83 c0 -38 -18 -50 -75 -50 -57 0 -75 12 -75 50 0 25 1 25 75 25 74 0 75 0 75 -25z m-1714 -34 c30 -23 3 -41 -61 -41 -64 0 -91 18 -61 41 11 8 38 14 61 14 23 0 50 -6 61 -14z m1460 0 c23 -17 11 -34 -26 -38 -21 -3 -26 2 -28 25 -3 21 1 27 15 27 11 0 28 -6 39 -14z m406 -206 l-3 -186 -464 -232 c-256 -127 -467 -232 -470 -232 -3 0 -5 84 -4 188 l0 187 416 205 c228 113 438 219 466 236 29 17 54 29 57 25 3 -3 4 -89 2 -191z m-1852 121 c0 -44 -14 -54 -82 -54 -47 0 -68 17 -68 55 0 25 3 28 20 23 33 -10 101 -8 113 4 16 16 17 15 17 -28z m-170 -11 c0 -34 4 -42 32 -56 36 -18 117 -15 143 6 9 7 15 29 15 51 0 22 2 39 5 39 11 0 75 -34 75 -41 0 -4 -7 -9 -15 -13 -11 -4 -15 -22 -15 -74 0 -84 9 -94 88 -100 48 -3 62 0 86 19 24 19 27 27 23 56 -3 18 -4 33 -2 33 10 0 115 -55 114 -60 0 -3 -103 -55 -227 -116 l-228 -111 -89 45 c-50 25 -146 73 -215 107 -69 33 -131 64 -138 69 -10 6 3 17 44 37 31 16 59 29 61 29 2 0 3 -16 1 -36 -3 -51 27 -74 96 -74 80 0 96 16 96 99 0 50 -4 72 -16 82 -14 11 -12 15 18 30 46 25 48 24 48 -21z m1630 11 c0 -31 -14 -47 -45 -53 -16 -2 -21 3 -23 30 -3 26 1 34 20 41 39 16 48 13 48 -18z m-1714 -35 c30 -23 3 -41 -61 -41 -64 0 -91 18 -61 41 11 8 38 14 61 14 23 0 50 -6 61 -14z m480 -1 c19 -15 19 -15 0 -30 -20 -16 -64 -19 -103 -9 -25 7 -31 39 -10 47 26 11 94 6 113 -8z m-538 -68 c12 0 33 4 47 7 22 6 25 3 25 -23 0 -16 -6 -34 -14 -40 -21 -18 -77 -24 -108 -12 -23 9 -28 17 -28 46 0 34 1 35 28 28 15 -4 37 -7 50 -6z m482 -1 c8 0 29 4 46 8 30 7 30 6 26 -29 -5 -39 -28 -55 -81 -55 -38 0 -60 19 -67 59 l-7 33 34 -8 c19 -4 41 -8 49 -8z m-482 -181 l220 -110 4 -188 c2 -120 -1 -187 -7 -186 -5 0 -109 51 -230 112 l-220 112 -3 188 c-1 114 1 187 7 185 5 -1 108 -52 229 -113z m712 -73 l0 -187 -225 -113 c-124 -61 -228 -112 -233 -112 -4 0 -5 84 -4 187 l4 188 221 111 c122 62 225 112 230 113 4 0 7 -83 7 -187z m257 72 l228 -115 0 -185 c0 -116 -4 -184 -10 -183 -5 0 -109 51 -230 112 l-220 112 -3 188 c-1 103 0 187 2 187 3 0 107 -52 233 -116z"/> <path d="M1188 1710 c-22 -17 -25 -28 -26 -77 0 -31 4 -65 9 -74 13 -25 74 -42 117 -34 59 11 72 29 72 99 0 34 -4 66 -8 72 -25 38 -124 46 -164 14z m116 -10 c29 -11 34 -35 10 -44 -9 -3 -33 -6 -54 -6 -48 0 -70 8 -70 26 0 28 67 42 114 24z m-35 -78 c20 3 44 8 54 12 14 7 17 3 17 -22 0 -44 -23 -62 -79 -62 -56 0 -71 12 -71 57 0 31 2 33 21 22 12 -6 38 -9 58 -7z"/> <path d="M1444 1600 c-30 -12 -36 -25 -41 -79 -6 -68 3 -90 42 -107 44 -18 89 -18 125 1 29 15 30 18 30 90 0 72 -1 75 -30 90 -32 16 -92 19 -126 5z m127 -36 c16 -19 2 -30 -49 -40 -54 -11 -123 32 -79 49 30 13 115 7 128 -9z m-66 -64 c20 0 45 5 56 10 17 10 19 7 19 -24 0 -43 -20 -56 -82 -56 -53 0 -68 13 -68 57 0 30 2 33 19 23 11 -5 36 -10 56 -10z"/> <path d="M1690 1479 c-35 -15 -40 -26 -40 -102 l0 -68 35 -15 c44 -18 88 -18 125 1 29 15 30 18 30 89 0 54 -4 77 -15 86 -20 17 -103 23 -135 9z m115 -32 c24 -18 13 -33 -31 -41 -36 -7 -104 9 -104 24 0 29 101 41 135 17z m15 -94 c0 -28 -4 -33 -37 -42 -64 -18 -113 3 -113 48 0 26 1 26 75 26 l75 0 0 -32z"/> <path d="M737 1079 c-50 -14 -57 -26 -57 -100 0 -63 2 -70 26 -85 33 -22 105 -22 138 0 24 15 26 22 26 86 0 61 -3 71 -22 84 -31 19 -77 25 -111 15z m88 -31 c30 -13 32 -24 6 -38 -38 -20 -131 -7 -131 19 0 26 83 39 125 19z m-54 -70 c19 0 44 2 57 6 20 7 22 4 22 -29 0 -30 -5 -37 -27 -46 -34 -13 -103 -5 -114 13 -5 7 -9 26 -9 41 0 23 3 27 19 22 10 -3 34 -6 52 -7z"/> <path d="M2390 194 c0 -9 7 -14 17 -12 25 5 28 28 4 28 -12 0 -21 -6 -21 -16z"/> <path d="M2442 193 c3 -14 12 -17 43 -15 45 4 50 6 40 21 -3 6 -24 11 -46 11 -33 0 -40 -3 -37 -17z"/> <path d="M2543 197 c-9 -15 5 -19 59 -19 79 -1 88 1 88 15 0 14 -138 18 -147 4z"/> <path d="M2702 189 c2 -6 7 -10 11 -10 4 1 23 1 42 1 19 0 35 5 35 10 0 6 -21 10 -46 10 -28 0 -44 -4 -42 -11z"/> </g> </svg> 