 <svg version="1.0" xmlns="http://www.w3.org/2000/svg"  width="225.000000pt" height="225.000000pt" viewBox="0 0 225.000000 225.000000"  preserveAspectRatio="xMidYMid meet">  <g transform="translate(0.000000,225.000000) scale(0.100000,-0.100000)" fill="#000000" stroke="none"> <path d="M1395 2134 c-71 -18 -91 -40 -86 -94 2 -24 -2 -26 -106 -48 -94 -19 -108 -20 -116 -7 -32 57 -217 61 -247 5 -6 -10 -10 -32 -10 -47 0 -27 -3 -30 -62 -42 -35 -7 -84 -17 -110 -23 l-48 -10 0 -294 c0 -162 -2 -294 -4 -294 -3 0 -21 10 -41 21 -78 47 -217 17 -223 -47 -3 -29 -5 -30 -95 -48 -51 -11 -95 -24 -99 -30 -4 -6 -8 -148 -8 -316 l0 -304 62 -60 c200 -191 424 -386 438 -381 71 22 1443 345 1464 345 4 0 5 282 4 626 l-3 627 -120 72 c-66 40 -186 111 -267 159 -136 80 -147 88 -150 118 -2 23 -11 37 -34 50 -32 19 -105 30 -139 22z m125 -52 c21 -17 21 -19 4 -32 -11 -10 -41 -15 -89 -15 -48 0 -78 5 -89 15 -17 13 -17 15 4 32 16 13 40 18 85 18 45 0 69 -5 85 -18z m-85 -77 c39 0 78 4 88 9 16 8 18 5 15 -20 -6 -57 -122 -83 -187 -42 -28 17 -31 75 -3 62 9 -5 49 -9 87 -9z m-387 -29 c16 -16 16 -18 -2 -31 -46 -34 -176 -23 -184 16 -7 39 150 52 186 15z m548 4 c5 -5 34 -23 64 -39 l55 -31 -38 0 c-48 0 -102 -23 -116 -48 -6 -12 -11 -45 -11 -75 0 -78 27 -100 123 -105 63 -3 77 -1 107 20 32 22 35 28 38 81 2 31 5 57 7 57 2 0 44 -23 92 -52 48 -28 99 -57 112 -64 18 -9 21 -14 10 -17 -8 -3 -207 -44 -444 -92 -236 -47 -439 -89 -450 -91 -14 -3 -88 44 -244 156 -123 88 -229 160 -234 160 -27 0 8 13 69 26 89 18 92 18 96 -8 8 -56 154 -79 219 -35 30 20 34 29 37 70 3 39 7 48 25 52 45 10 172 35 179 35 4 0 10 -9 13 -21 4 -12 26 -30 52 -41 80 -35 180 -11 208 50 11 24 16 27 31 12z m-666 -85 c30 -4 60 -2 88 8 l42 15 0 -29 c0 -36 -40 -59 -104 -59 -60 0 -93 16 -99 49 -6 32 1 45 16 32 7 -5 32 -12 57 -16z m847 -38 c21 -21 9 -34 -39 -48 -98 -26 -196 27 -114 62 30 13 136 4 153 -14z m-876 -214 l206 -148 1 -288 c0 -158 -3 -287 -7 -285 -4 2 -109 82 -234 177 l-227 175 0 279 0 279 28 -21 c15 -11 120 -87 233 -168z m789 132 c30 0 65 4 78 8 19 7 22 5 22 -17 0 -33 -43 -56 -107 -56 -64 0 -97 18 -101 54 -3 27 -2 28 25 20 15 -5 53 -9 83 -9z m388 -376 l-3 -282 -340 -78 c-187 -43 -389 -90 -450 -104 -60 -14 -119 -27 -130 -31 -20 -5 -20 -1 -17 290 l3 295 37 9 c85 21 859 180 880 181 l22 1 -2 -281z m-1539 -122 c58 -29 20 -60 -71 -59 -87 1 -129 34 -75 60 30 15 117 14 146 -1z m187 -108 c88 -66 101 -80 73 -73 -53 13 -131 6 -159 -15 -19 -14 -26 -30 -30 -67 -8 -78 0 -104 40 -126 47 -26 147 -21 187 9 26 19 28 25 28 92 0 39 1 71 2 71 2 0 38 -29 82 -63 43 -35 92 -73 108 -85 34 -25 54 -17 -214 -77 -186 -42 -215 -46 -232 -34 -42 31 -411 353 -411 360 0 3 17 9 38 12 20 3 52 9 70 13 27 5 31 4 26 -9 -3 -8 -1 -25 6 -36 36 -68 214 -69 250 -2 5 11 10 40 10 65 0 25 4 46 9 46 5 0 58 -37 117 -81z m-260 11 c17 0 45 5 63 11 38 13 46 8 37 -24 -7 -30 -44 -47 -104 -47 -65 0 -96 18 -100 57 l-3 31 38 -14 c21 -7 52 -13 69 -14z m-271 -60 c3 -5 98 -89 210 -185 l205 -177 0 -294 c0 -277 -4 -319 -27 -281 -4 7 -99 96 -210 197 l-203 183 0 283 c0 261 4 308 25 274z m1883 -336 l-3 -297 -488 -113 c-269 -62 -590 -138 -714 -169 -124 -30 -227 -55 -229 -55 -2 0 -4 137 -4 304 l0 304 23 5 c12 3 123 28 247 56 124 28 430 97 680 155 250 57 463 105 473 105 16 1 17 -18 15 -295z m-1263 274 c31 -14 31 -22 3 -42 -25 -18 -113 -21 -152 -6 -32 12 -34 38 -3 50 32 13 122 12 152 -2z m-75 -97 c14 0 42 6 63 13 l37 14 0 -30 c0 -24 -6 -32 -37 -45 -42 -17 -123 -14 -148 7 -8 7 -15 25 -15 40 l0 28 38 -14 c20 -7 48 -13 62 -13z"/> <path d="M1160 1799 c-51 -15 -69 -41 -68 -102 0 -76 5 -87 51 -108 66 -29 156 -20 198 22 24 24 27 123 4 156 -27 38 -110 52 -185 32z m149 -45 c21 -15 22 -17 7 -32 -19 -20 -120 -28 -159 -13 -38 15 -32 42 13 58 41 15 105 8 139 -13z m-79 -79 c36 0 73 4 83 9 14 7 17 3 17 -18 0 -31 -30 -53 -86 -61 -46 -8 -114 15 -114 39 0 8 -3 22 -7 31 -5 15 -2 16 18 9 13 -5 53 -9 89 -9z"/> </g> </svg> 