 <svg version="1.0" xmlns="http://www.w3.org/2000/svg"  width="300.000000pt" height="300.000000pt" viewBox="0 0 300.000000 300.000000"  preserveAspectRatio="xMidYMid meet">  <g transform="translate(0.000000,300.000000) scale(0.100000,-0.100000)" fill="#000000" stroke="none"> <path d="M415 2960 c-148 -16 -271 -29 -272 -29 -2 -1 -3 -288 -3 -640 l0 -638 110 -77 110 -78 200 45 200 44 0 -153 0 -152 428 -293 c235 -160 434 -294 442 -296 8 -2 80 17 160 42 80 25 146 45 147 45 2 0 3 -69 3 -153 l0 -153 163 -110 162 -110 368 134 367 135 0 214 0 214 -101 49 c-56 27 -95 52 -88 54 8 2 31 10 52 16 l37 12 0 372 0 373 -92 35 c-83 31 -93 38 -96 61 -5 38 -35 51 -122 52 -99 1 -130 11 -130 40 0 27 -16 42 -50 47 l-25 3 -3 166 -2 166 -80 24 c-78 24 -80 25 -80 56 0 43 -21 53 -114 53 -61 0 -76 3 -76 15 0 21 -41 35 -105 35 -78 0 -105 -13 -105 -50 0 -20 -5 -30 -15 -30 -8 0 -15 7 -15 15 0 18 -61 35 -125 34 -82 -2 -99 -10 -105 -49 l-5 -35 -75 -12 c-41 -6 -75 -12 -75 -12 0 -1 1 -72 3 -159 l3 -158 -63 3 c-75 4 -113 -11 -113 -47 0 -20 -8 -26 -45 -35 -38 -9 -47 -8 -62 7 -13 13 -34 18 -78 18 l-60 0 0 430 c0 237 -2 430 -5 430 -2 0 -51 14 -108 30 -58 17 -124 30 -148 29 -24 -1 -165 -14 -314 -29z m445 -15 c47 -13 79 -24 71 -24 -8 -1 -139 -15 -290 -32 l-276 -30 -90 29 -90 30 80 7 c44 4 154 15 245 25 221 23 251 23 350 -5z m-592 -71 l82 -28 0 -659 c0 -539 -2 -657 -13 -650 -7 4 -50 35 -95 67 l-82 60 0 624 c0 495 3 623 13 619 6 -3 49 -18 95 -33z m708 -30 c2 -60 1 -64 -15 -50 -21 19 -95 46 -125 46 -38 0 -78 -52 -83 -107 -5 -64 12 -94 67 -115 69 -26 104 -23 133 11 l24 29 -1 -87 -1 -88 -50 24 c-59 27 -92 29 -123 7 -48 -34 -69 -126 -37 -171 16 -22 92 -53 133 -53 14 0 36 12 51 29 l26 28 0 -96 0 -96 -54 28 c-65 32 -80 33 -115 6 -58 -46 -75 -132 -33 -172 13 -12 32 -27 43 -34 17 -11 16 -12 -13 -12 -17 -1 -35 -6 -38 -11 -4 -6 -7 -89 -7 -184 l0 -174 -28 -6 c-15 -3 -41 -8 -56 -12 l-29 -7 24 26 c27 30 39 103 21 136 -6 12 -36 38 -67 58 -50 32 -60 35 -92 27 -46 -12 -81 -62 -81 -118 0 -52 17 -76 76 -111 25 -15 44 -28 42 -30 -2 -1 -38 -10 -80 -19 -42 -8 -87 -18 -100 -21 l-23 -6 3 660 2 660 33 5 c36 6 521 63 552 65 18 1 20 -6 21 -65z m-96 -33 c0 -5 -7 -12 -15 -15 -26 -10 -48 -75 -41 -124 6 -45 2 -47 -36 -14 -25 21 -23 88 2 130 16 26 26 32 55 32 19 0 35 -4 35 -9z m70 -31 c26 -26 26 -85 0 -127 -11 -18 -24 -33 -29 -33 -5 0 -16 -3 -24 -6 -9 -3 -25 4 -36 15 -31 31 -29 100 5 140 30 36 56 39 84 11z m1055 -230 c4 -6 -23 -10 -74 -10 -47 0 -81 4 -81 10 0 6 31 10 74 10 41 0 78 -4 81 -10z m-250 -29 c15 -6 9 -10 -29 -15 -58 -9 -155 2 -135 15 17 11 136 11 164 0z m255 -5 c-6 -6 -10 -20 -10 -33 0 -27 -8 -28 -46 -8 -16 8 -48 15 -71 15 -34 0 -43 4 -43 18 0 15 11 17 90 17 56 0 85 -3 80 -9z m-1151 -42 c-31 -32 -34 -41 -34 -93 0 -56 -1 -58 -22 -48 -74 33 -29 177 56 177 l35 0 -35 -36z m1335 27 c3 -5 -14 -12 -39 -15 -51 -8 -135 2 -135 15 0 12 167 12 174 0z m-424 -13 c0 -4 -6 -11 -14 -15 -8 -4 -16 -19 -18 -33 -3 -22 -8 -25 -50 -28 -25 -2 -61 1 -80 6 -28 7 -33 13 -36 43 l-3 34 101 0 c55 0 100 -3 100 -7z m-818 -15 c28 -26 24 -94 -8 -133 -21 -25 -33 -30 -58 -28 -61 6 -67 98 -11 154 28 28 51 30 77 7z m1246 -37 c-3 -34 -7 -41 -33 -48 -37 -11 -122 -3 -141 13 -8 6 -14 26 -14 43 l0 31 95 0 96 0 -3 -39z m-254 25 c4 -5 -12 -12 -35 -16 -49 -9 -152 3 -144 16 8 12 172 12 179 0z m-384 -36 c0 -20 74 -38 132 -33 45 5 48 4 48 -18 0 -34 34 -47 117 -47 97 0 128 19 119 74 -5 31 -3 39 9 39 9 0 15 -9 15 -25 0 -33 27 -45 104 -45 78 0 116 13 116 38 0 19 2 19 54 3 30 -9 52 -18 50 -21 -3 -2 -35 -10 -72 -16 -37 -7 -151 -26 -253 -44 l-186 -33 -176 64 c-173 63 -192 77 -109 78 22 1 32 -4 32 -14z m288 3 c38 0 78 3 90 6 20 7 22 4 22 -33 0 -39 -1 -41 -42 -52 -29 -7 -61 -8 -98 -3 l-55 9 -3 43 c-2 29 0 42 7 37 6 -3 42 -6 79 -7z m-83 -133 l40 -15 0 -180 c0 -99 -3 -180 -6 -180 -4 0 -41 16 -83 35 -59 27 -76 39 -76 55 0 25 -35 40 -95 40 -55 0 -95 18 -95 42 0 10 -4 18 -10 18 -6 0 -10 58 -10 154 l0 153 148 -54 c81 -29 165 -60 187 -68z m595 -69 l0 -154 -47 -7 c-55 -8 -73 -20 -73 -47 0 -26 -21 -31 -56 -13 -36 18 -149 20 -184 2 -16 -8 -26 -23 -28 -40 -3 -20 -10 -29 -30 -33 -15 -3 -43 -10 -62 -15 -63 -16 -60 -25 -60 176 l0 184 33 6 c94 17 502 93 505 94 1 0 2 -68 2 -153z m-1472 -45 c10 -6 7 -12 -12 -25 -36 -23 -59 -72 -54 -117 4 -44 -3 -48 -32 -19 -35 35 -19 132 27 159 22 13 53 14 71 2z m59 -29 c11 -7 33 -54 33 -70 0 -4 -13 -13 -30 -19 -24 -9 -30 -17 -30 -41 0 -24 -5 -31 -27 -35 -35 -7 -53 14 -53 63 0 68 64 129 107 102z m471 -51 c18 -11 -18 -21 -78 -21 -25 0 -56 3 -68 7 -40 10 -3 23 68 23 36 0 71 -4 78 -9z m3 -69 c-6 -2 -11 -12 -11 -22 0 -23 -68 -36 -120 -23 -31 8 -35 13 -38 46 l-3 36 63 -5 c35 -3 74 -1 88 4 21 8 25 7 28 -11 2 -12 -1 -23 -7 -25z m-326 19 c48 -10 13 -23 -64 -23 -76 -1 -113 11 -71 23 31 9 95 9 135 0z m1342 -15 c12 -11 -6 -19 -56 -24 -84 -8 -163 17 -98 32 28 6 146 0 154 -8z m-827 -12 c32 -11 -15 -24 -85 -24 -70 0 -116 13 -85 24 35 12 133 12 170 0z m-375 -4 c-4 -6 -2 -17 4 -23 8 -10 -2 -13 -44 -14 -47 -1 -55 1 -55 17 0 14 9 20 33 23 61 7 68 7 62 -3z m-115 -21 c0 -8 -6 -27 -12 -42 -12 -25 -18 -27 -75 -27 -84 0 -93 5 -93 49 l0 36 90 0 c75 0 90 -3 90 -16z m1230 -9 c21 0 51 4 65 10 26 10 26 9 23 -27 -3 -34 -6 -38 -42 -45 -21 -5 -59 -5 -85 0 -44 7 -46 9 -49 45 -3 36 -3 37 23 27 14 -6 44 -10 65 -10z m-175 0 c19 -7 18 -9 -8 -19 -16 -6 -50 -11 -77 -11 -27 0 -61 5 -77 11 -26 10 -27 12 -8 19 11 5 49 9 85 9 36 0 74 -4 85 -9z m-555 -41 c0 -42 -13 -49 -98 -49 -71 0 -92 12 -92 53 l0 32 95 0 95 0 0 -36z m620 6 c0 -14 7 -28 16 -32 12 -4 9 -9 -15 -19 -29 -12 -31 -16 -31 -68 0 -74 23 -90 125 -90 100 0 125 17 125 84 0 39 -4 53 -20 62 -11 7 -20 16 -20 19 0 4 9 9 20 12 12 3 20 14 20 26 0 23 1 24 22 16 9 -4 12 -23 10 -69 -3 -58 -1 -66 19 -76 35 -19 142 -17 173 3 14 10 26 24 26 33 0 8 6 14 13 12 46 -13 127 -43 127 -47 0 -3 -120 -35 -266 -69 l-266 -64 -234 103 -233 104 52 12 c68 16 65 16 69 -9 4 -32 43 -48 115 -48 99 0 134 27 121 95 -5 22 3 32 25 34 4 1 7 -10 7 -24z m-1320 -4 c0 -27 49 -43 119 -39 l61 3 0 -41 c0 -34 4 -43 25 -52 34 -16 154 -15 185 1 23 12 25 18 25 80 l0 67 37 0 c34 0 37 -2 40 -32 4 -42 35 -58 113 -58 76 0 108 16 115 56 l5 30 75 -33 c41 -18 73 -33 70 -33 -3 0 -147 -31 -320 -68 l-315 -68 -177 91 c-97 49 -174 92 -172 94 4 5 70 18 97 20 10 1 17 -6 17 -18z m390 4 c24 -15 -14 -25 -90 -25 -74 0 -123 13 -90 24 8 2 22 7 30 10 20 7 135 1 150 -9z m830 -9 l50 11 0 -33 c0 -43 -21 -54 -100 -54 -79 0 -100 11 -100 54 l0 33 50 -11 c34 -7 66 -7 100 0z m541 -2 c21 -13 -14 -24 -78 -24 -64 0 -93 6 -93 20 0 18 143 22 171 4z m-1688 -118 l147 -77 0 -169 0 -169 -177 108 -178 108 -3 157 -3 158 33 -20 c18 -10 99 -54 181 -96z m327 58 c0 -43 -19 -55 -87 -57 -91 -3 -110 6 -114 50 l-4 38 102 0 103 0 0 -31z m1370 -4 c0 -38 -2 -40 -41 -50 -43 -12 -115 -5 -136 12 -7 6 -13 23 -13 39 l0 28 68 -6 c37 -2 78 0 92 5 14 6 26 11 28 11 1 1 2 -17 2 -39z m-259 3 c20 -20 -37 -35 -113 -31 -76 4 -106 21 -67 38 32 13 165 8 180 -7z m-626 -143 l0 -150 -45 -1 c-71 0 -114 -19 -118 -50 -3 -21 -10 -28 -46 -36 -23 -5 -51 -6 -62 -2 -30 12 -171 10 -199 -3 -18 -8 -25 -19 -25 -38 0 -24 -5 -28 -52 -39 -29 -6 -63 -14 -75 -17 l-23 -6 0 174 0 174 295 63 c253 54 350 76 350 80 0 1 0 -66 0 -149z m500 -249 c0 -100 -1 -181 -3 -181 -2 0 -44 19 -92 43 -71 34 -89 47 -92 67 -4 31 -40 50 -95 50 -60 0 -131 36 -135 68 -3 24 -15 35 -50 46 -16 5 -18 21 -18 155 l0 149 243 -108 242 -108 0 -181z m23 339 c26 0 62 4 80 9 31 9 32 8 32 -18 0 -16 -6 -34 -14 -40 -22 -19 -118 -25 -160 -11 -32 10 -36 15 -36 46 0 32 1 33 26 24 14 -6 46 -10 72 -10z m-1739 -34 l24 -13 -22 -12 c-32 -18 -61 -71 -61 -113 0 -44 -5 -46 -37 -16 -35 33 -32 100 6 139 32 32 53 35 90 15z m2287 -344 c-6 -5 -532 -152 -547 -152 -5 0 -9 76 -9 184 l0 184 278 68 277 69 3 -174 c1 -96 0 -176 -2 -179z m-2214 291 c35 -31 14 -128 -33 -154 -58 -31 -104 36 -74 108 26 62 69 81 107 46z m923 -625 l45 -28 0 -186 c0 -102 -4 -184 -8 -182 -5 2 -196 131 -425 288 l-417 285 0 157 0 156 380 -231 c208 -128 400 -244 425 -259z m261 442 c44 -17 14 -33 -63 -34 -104 -1 -156 20 -88 37 37 9 124 7 151 -3z m-76 -55 c19 0 52 4 73 8 l38 8 -3 -38 c-3 -34 -7 -39 -43 -51 -45 -15 -138 -10 -161 9 -8 6 -14 26 -14 45 0 32 0 33 38 26 20 -4 53 -7 72 -7z m-247 -21 c37 -7 30 -26 -14 -37 -42 -11 -157 -3 -172 12 -32 32 77 46 186 25z m140 -59 c31 -20 116 -29 160 -17 l37 10 0 -47 c0 -73 20 -86 130 -86 99 0 130 16 130 65 l0 26 84 -40 c47 -23 85 -43 85 -46 1 -3 -145 -45 -324 -94 l-325 -89 -188 113 c-103 63 -205 125 -227 139 l-40 25 50 13 c70 18 73 17 77 -19 3 -29 9 -35 43 -46 23 -8 67 -12 103 -10 l62 4 0 -48 c0 -39 4 -50 24 -63 52 -35 192 -28 231 11 10 10 15 34 15 69 0 75 -23 90 -137 90 l-83 0 0 46 c0 43 2 47 33 56 30 8 32 7 35 -19 2 -16 13 -35 25 -43z m433 12 c25 -25 -107 -48 -175 -30 -39 10 -51 29 -24 36 27 8 190 3 199 -6z m-661 -12 c33 0 72 3 88 8 26 7 27 6 27 -26 0 -44 -38 -67 -113 -67 -85 0 -104 11 -109 60 -4 40 -3 41 22 33 14 -4 52 -8 85 -8z m1443 -162 l-3 -166 -52 -18 c-29 -10 -54 -15 -55 -11 0 4 -2 12 -3 17 -2 6 -3 16 -4 23 -2 21 -66 42 -126 42 -65 0 -125 -22 -132 -48 -5 -21 -98 -52 -153 -52 l-30 0 0 113 0 112 273 76 c149 42 275 77 280 78 4 1 6 -74 5 -166z m-888 122 c30 0 67 3 83 8 26 7 27 6 27 -31 0 -32 -5 -41 -25 -50 -33 -15 -122 -15 -164 -1 -28 10 -31 15 -31 50 0 38 1 39 28 32 15 -5 52 -8 82 -8z m-246 -28 c25 -11 27 -14 13 -26 -36 -29 -217 -21 -217 10 0 28 149 39 204 16z m-94 -62 c30 0 70 4 88 8 32 8 32 8 32 -27 0 -26 -6 -38 -21 -46 -33 -18 -120 -23 -166 -11 -41 11 -43 13 -43 52 0 38 1 39 28 32 15 -5 52 -8 82 -8z m656 -132 l-1 -108 -57 -6 c-61 -7 -85 -20 -98 -54 -6 -15 -32 -27 -109 -49 l-101 -28 0 -57 0 -57 -127 -38 c-71 -21 -136 -41 -145 -44 -17 -4 -18 9 -18 182 l0 186 43 11 c23 6 166 46 317 89 151 42 280 78 286 79 7 1 10 -36 10 -106z m430 -55 c15 -15 15 -17 -7 -29 -31 -17 -157 -17 -187 0 -49 26 6 52 105 48 51 -2 77 -7 89 -19z m-136 -62 c27 -4 66 -1 98 7 l52 14 0 -49 c0 -46 -2 -50 -35 -64 -45 -18 -128 -18 -165 1 -27 14 -30 20 -30 66 0 44 2 49 18 41 9 -5 37 -12 62 -16z m-98 -16 c-11 -77 29 -110 133 -110 99 0 146 35 131 96 -4 13 -3 24 2 24 4 0 50 -21 102 -46 l94 -46 -335 -109 c-184 -60 -341 -110 -349 -111 -14 -2 -258 140 -287 166 -10 9 8 18 72 37 l85 26 0 -43 c0 -30 6 -50 19 -63 37 -37 184 -41 235 -7 24 15 26 22 26 96 0 47 -4 80 -10 80 -25 0 -6 19 28 28 57 15 59 15 54 -18z m-109 -12 c46 -24 -7 -50 -103 -50 -89 0 -146 25 -110 47 37 23 171 25 213 3z m-115 -66 c40 -2 86 1 102 7 l30 10 0 -48 c0 -33 -5 -53 -16 -62 -25 -21 -143 -24 -187 -6 -36 16 -37 18 -37 68 0 45 2 50 18 43 9 -4 50 -10 90 -12z m700 -218 l-3 -196 -335 -123 c-184 -67 -344 -126 -354 -131 -16 -6 -18 -4 -13 10 4 10 7 106 7 214 l0 197 338 112 c185 61 343 111 350 112 10 1 12 -41 10 -195z m-855 57 l137 -84 0 -208 c0 -115 -3 -209 -7 -208 -5 0 -71 44 -148 97 l-140 97 -3 203 c-2 168 0 202 11 195 7 -4 75 -46 150 -92z"/> <path d="M502 2794 c-51 -36 -69 -130 -33 -175 10 -13 44 -33 74 -43 74 -25 111 -12 139 51 35 79 8 133 -82 166 -56 21 -70 21 -98 1z m73 -13 c3 -6 -1 -13 -8 -18 -33 -19 -50 -63 -45 -113 5 -54 -1 -61 -32 -30 -30 30 -27 100 6 139 25 30 66 41 79 22z m75 -31 c55 -55 18 -170 -57 -170 -31 0 -53 37 -53 88 0 35 6 49 29 73 35 34 54 36 81 9z"/> <path d="M508 2474 c-57 -30 -77 -127 -38 -177 26 -33 121 -64 157 -51 58 20 90 113 60 171 -12 22 -31 35 -75 51 -69 26 -69 26 -104 6z m66 -10 c13 -5 10 -11 -13 -35 -33 -33 -49 -96 -31 -128 8 -16 8 -21 -3 -21 -65 0 -80 122 -21 169 28 22 42 25 68 15z m92 -49 c22 -33 13 -99 -17 -131 -45 -48 -109 -19 -109 49 0 86 87 142 126 82z"/> <path d="M508 2144 c-54 -29 -76 -123 -42 -173 17 -23 111 -71 140 -71 26 0 66 33 80 67 34 81 9 134 -83 172 -61 25 -60 25 -95 5z m72 -14 c12 -7 10 -13 -12 -34 -32 -28 -42 -60 -36 -115 l3 -39 -26 14 c-32 16 -39 32 -39 86 0 64 65 117 110 88z m74 -41 c43 -34 33 -121 -18 -155 -85 -55 -130 92 -49 156 32 25 34 25 67 -1z"/> <path d="M580 1153 c-29 -11 -50 -36 -50 -59 0 -32 -68 -52 -114 -32 -17 7 -64 13 -103 13 -82 -1 -126 -23 -131 -67 -3 -23 -12 -28 -88 -48 l-84 -22 0 -227 0 -228 222 -234 c122 -129 226 -235 230 -237 4 -2 179 53 388 123 l380 127 0 246 -1 247 -108 78 c-60 43 -113 89 -119 102 -6 13 -26 28 -49 35 -21 7 -64 31 -95 54 -44 32 -57 47 -58 67 0 47 -32 64 -124 66 -44 1 -88 0 -96 -4z m178 -30 c30 -19 24 -35 -19 -50 -70 -24 -189 -5 -189 30 0 41 151 56 208 20z m-93 -83 c25 0 61 7 80 14 l35 15 0 -47 c0 -46 -2 -48 -44 -71 -36 -20 -52 -23 -94 -18 -78 9 -92 22 -92 84 l0 52 35 -15 c19 -7 55 -14 80 -14z m-270 6 c80 -24 33 -74 -70 -75 -53 -1 -115 17 -122 35 -7 19 -3 23 44 39 46 17 95 17 148 1z m137 -42 c4 -65 34 -87 122 -88 l65 -1 3 -74 c3 -67 6 -76 29 -94 54 -39 187 -35 234 9 25 23 27 30 23 79 -3 39 -1 52 7 47 47 -29 186 -137 179 -139 -5 -1 -169 -50 -364 -108 -313 -94 -357 -105 -376 -93 -11 7 -111 96 -221 198 l-200 185 66 17 c36 10 69 18 73 18 4 0 8 -21 10 -47 4 -64 38 -85 138 -85 l69 0 3 -75 c3 -70 5 -78 31 -97 24 -18 43 -21 117 -21 74 0 93 3 117 21 26 20 28 26 31 104 2 64 -1 86 -13 100 -23 26 -97 43 -160 38 l-56 -5 3 71 c3 72 7 77 60 85 4 1 8 -20 10 -45z m338 -20 c0 -2 -16 -4 -35 -4 -32 0 -35 2 -35 31 l0 30 35 -27 c19 -14 35 -28 35 -30z m-547 -34 c26 0 63 7 82 14 l35 15 0 -47 c-1 -39 -5 -50 -26 -66 -32 -23 -135 -26 -179 -5 -27 13 -30 20 -33 66 l-3 51 38 -14 c21 -7 60 -13 86 -14z m634 -2 c37 -18 39 -34 8 -54 -52 -34 -225 -17 -225 21 0 47 143 69 217 33z m-708 -248 l211 -195 0 -232 0 -233 -215 228 -215 227 0 187 c0 102 -3 194 -7 204 -3 10 -2 15 4 13 6 -2 106 -92 222 -199z m381 162 c43 -21 45 -42 5 -61 -64 -31 -220 -11 -220 29 0 44 148 66 215 32z m187 -5 c40 -10 109 -2 156 18 15 6 17 1 17 -44 0 -44 -4 -53 -27 -68 -34 -23 -157 -25 -196 -4 -24 13 -27 20 -27 69 0 48 2 53 18 47 9 -4 36 -12 59 -18z m-277 -91 c40 0 77 6 98 16 l32 16 0 -52 c0 -78 -18 -91 -130 -91 -112 0 -130 13 -130 91 l0 52 33 -16 c20 -10 57 -16 97 -16z m663 -486 c-5 -4 -161 -58 -348 -120 -187 -62 -348 -117 -357 -122 -17 -8 -18 6 -18 231 l0 240 68 21 c37 11 200 60 362 108 l295 88 3 -220 c1 -121 -1 -223 -5 -226z"/> <path d="M2640 50 l0 -40 180 0 180 0 0 40 0 40 -180 0 -180 0 0 -40z m90 -6 c0 -15 -62 -12 -67 3 -3 7 9 11 31 10 20 -1 36 -6 36 -13z m233 7 c9 0 17 -4 17 -8 0 -5 -30 -7 -67 -6 -38 1 -92 2 -120 2 -29 1 -53 4 -53 9 0 6 159 8 223 3z"/> </g> </svg> 