 <svg version="1.0" xmlns="http://www.w3.org/2000/svg"  width="300.000000pt" height="257.000000pt" viewBox="0 0 300.000000 257.000000"  preserveAspectRatio="xMidYMid meet">  <g transform="translate(0.000000,257.000000) scale(0.100000,-0.100000)" fill="#000000" stroke="none"> <path d="M1680 2467 c-106 -25 -177 -81 -182 -144 -3 -36 -7 -40 -93 -87 l-90 -50 -102 3 c-134 3 -197 -14 -258 -73 -43 -40 -45 -46 -45 -97 l0 -55 -89 -51 c-87 -50 -90 -50 -135 -40 -34 8 -67 7 -121 -1 -86 -13 -137 -37 -180 -82 -25 -27 -31 -41 -35 -98 l-5 -66 -120 -72 c-65 -40 -131 -85 -146 -102 -43 -48 -51 -126 -47 -469 3 -288 4 -303 24 -330 12 -15 102 -76 200 -134 642 -380 816 -480 841 -484 23 -5 67 19 263 141 318 198 884 544 1225 749 154 92 289 176 300 187 19 18 20 34 24 417 l3 398 -128 69 -129 70 -5 52 c-7 64 -33 99 -96 132 -44 22 -61 25 -169 26 l-120 1 -141 71 c-253 127 -325 146 -444 119z m230 -56 c49 -29 71 -70 54 -99 -34 -54 -125 -86 -246 -85 -70 0 -95 4 -135 24 -41 21 -48 29 -51 58 -11 112 245 182 378 102z m209 -94 l112 -59 -45 -29 c-76 -48 -86 -73 -86 -220 l0 -127 40 -35 c57 -52 130 -71 246 -64 110 6 179 33 229 88 32 36 35 44 35 104 l0 65 38 -24 c21 -13 66 -38 100 -55 34 -17 62 -33 62 -36 0 -3 -24 -17 -52 -31 -139 -70 -908 -522 -1382 -812 -216 -132 -273 -163 -285 -154 -28 19 -394 229 -440 252 -25 12 -152 87 -282 165 l-238 143 85 51 c47 28 87 51 90 51 2 0 4 -20 4 -44 0 -37 5 -48 34 -74 49 -43 98 -57 201 -57 109 0 178 21 229 71 l36 35 0 128 0 129 -41 37 c-22 20 -39 38 -37 39 1 1 33 19 71 39 l67 37 0 -54 c0 -51 2 -56 41 -89 53 -46 117 -61 226 -54 65 4 96 11 140 33 86 44 92 57 95 202 l3 124 -39 35 c-21 19 -34 38 -29 42 4 5 38 24 76 44 l67 37 0 -56 c0 -31 7 -70 15 -87 32 -68 133 -104 260 -94 95 8 154 30 199 76 l38 39 -4 126 c-1 69 -1 125 2 124 3 -2 56 -29 119 -61z m-183 -214 c-49 -45 -129 -66 -230 -61 -84 5 -129 21 -166 60 -16 17 -20 35 -20 85 l0 62 33 -19 c48 -29 164 -42 245 -30 72 12 144 40 158 61 6 9 10 -11 12 -56 3 -69 2 -71 -32 -102z m595 126 c44 -22 89 -73 89 -101 0 -28 -52 -73 -108 -93 -65 -23 -194 -30 -266 -15 -66 13 -116 53 -116 90 0 108 266 187 401 119z m-1228 -85 c54 -27 77 -54 77 -90 0 -63 -99 -108 -240 -109 -167 0 -243 62 -175 143 60 71 246 102 338 56z m1317 -153 c0 -60 -4 -74 -25 -99 -42 -50 -103 -73 -208 -79 -112 -7 -189 11 -229 54 -22 24 -27 39 -30 101 -2 40 -1 71 2 69 126 -74 320 -75 444 -3 23 13 42 24 44 25 1 1 2 -30 2 -68z m-1237 -73 c-3 -35 -11 -73 -19 -84 -24 -39 -98 -66 -192 -71 -103 -6 -161 7 -201 45 -25 23 -30 37 -35 95 -6 66 0 81 23 54 13 -16 68 -33 136 -42 67 -8 179 10 235 39 25 13 48 24 52 25 3 0 4 -27 1 -61z m1497 -311 c0 -162 -3 -335 -6 -385 l-7 -92 -326 -196 c-414 -251 -1087 -663 -1256 -770 -71 -45 -130 -82 -130 -81 0 1 2 184 5 406 l5 405 210 129 c482 298 1470 876 1498 877 4 0 7 -132 7 -293z m-2169 232 c96 -29 137 -104 84 -153 -77 -71 -323 -81 -393 -16 -96 89 141 219 309 169z m112 -236 c-7 -79 -25 -105 -91 -135 -91 -41 -262 -32 -321 17 -24 21 -29 34 -35 91 -4 37 -5 68 -3 71 3 2 22 -6 43 -19 35 -21 52 -23 164 -23 120 0 127 1 185 31 33 17 61 32 62 33 1 0 0 -29 -4 -66z m-441 -276 c112 -68 244 -145 293 -172 259 -139 437 -248 447 -274 11 -29 13 -682 2 -769 -5 -44 -10 -53 -24 -49 -9 2 -239 134 -510 293 -365 214 -498 297 -512 319 -17 28 -18 51 -16 365 3 347 4 355 47 403 11 13 24 17 42 13 15 -3 119 -61 231 -129z"/> <path d="M1691 1955 c-80 -18 -148 -59 -176 -105 -17 -30 -20 -52 -20 -162 0 -119 1 -128 23 -151 56 -59 195 -89 319 -69 78 13 126 36 170 79 l33 34 0 138 0 139 -40 36 c-22 19 -56 42 -76 51 -54 22 -159 27 -233 10z m231 -41 c127 -64 116 -152 -24 -201 -62 -21 -219 -24 -283 -5 -154 45 -87 187 105 223 63 11 163 3 202 -17z m91 -246 c-4 -69 -7 -75 -43 -110 -49 -48 -102 -63 -225 -63 -88 0 -107 3 -150 26 -62 31 -75 56 -75 143 0 66 1 68 18 53 31 -28 89 -47 164 -53 91 -8 177 8 248 45 30 15 58 29 61 30 4 0 4 -32 2 -71z"/> <path d="M1047 1600 c-31 -10 -73 -30 -92 -45 -57 -43 -65 -69 -65 -208 l0 -125 38 -36 c47 -46 112 -66 217 -66 129 0 232 40 276 107 16 23 19 48 19 146 0 83 -4 126 -14 146 -16 31 -73 71 -125 89 -52 18 -187 14 -254 -8z m268 -29 c45 -20 95 -73 95 -100 0 -31 -37 -67 -92 -92 -46 -21 -68 -24 -173 -24 -134 0 -187 16 -214 66 -29 53 30 123 131 154 65 21 204 19 253 -4z m77 -330 c-50 -68 -143 -97 -282 -89 -90 5 -130 20 -167 60 -17 18 -22 38 -25 96 -2 39 -1 71 2 69 71 -43 108 -52 215 -52 117 0 196 18 245 55 l25 19 3 -66 c2 -53 -1 -72 -16 -92z"/> <path d="M2795 19 c-45 -5 -42 -5 33 -10 46 -2 86 -1 89 4 2 4 -4 7 -14 8 -10 0 -27 1 -38 2 -11 1 -42 0 -70 -4z"/> </g> </svg> 