 <svg version="1.0" xmlns="http://www.w3.org/2000/svg"  width="900.000000pt" height="900.000000pt" viewBox="0 0 900.000000 900.000000"  preserveAspectRatio="xMidYMid meet">  <g transform="translate(0.000000,900.000000) scale(0.100000,-0.100000)" fill="#000000" stroke="none"> <path d="M640 8986 c0 -8 -28 -28 -62 -45 -35 -17 -85 -44 -113 -60 -27 -17 -70 -41 -95 -53 -25 -13 -64 -36 -88 -51 -23 -15 -59 -37 -80 -48 -20 -11 -50 -29 -67 -40 -16 -10 -37 -22 -45 -26 -42 -18 -90 -66 -90 -89 0 -30 8 -30 66 1 26 14 60 25 75 25 15 0 30 4 34 9 3 6 24 1 49 -10 71 -31 126 -35 173 -11 37 19 53 38 53 63 0 15 -36 10 -50 -6 -20 -24 -121 -20 -143 5 -23 28 -21 40 6 40 13 0 45 14 71 31 57 38 104 43 196 23 95 -22 172 -2 189 47 8 25 7 29 -7 29 -9 0 -30 -9 -47 -20 -41 -27 -93 -25 -129 4 -30 25 -28 46 4 46 10 0 40 18 65 40 25 22 55 40 65 40 25 0 32 13 24 45 -4 18 -13 25 -30 25 -14 0 -24 -6 -24 -14z"/> <path d="M740 8975 c0 -14 12 -35 27 -50 24 -22 37 -25 95 -25 71 0 113 13 123 38 9 24 -1 26 -59 12 -73 -17 -166 2 -166 35 0 8 -4 15 -10 15 -5 0 -10 -11 -10 -25z"/> <path d="M1280 8988 c0 -26 40 -78 65 -84 50 -13 144 1 167 24 29 29 17 38 -31 24 -21 -7 -51 -12 -66 -12 -47 0 -108 23 -113 42 -5 20 -22 25 -22 6z"/> <path d="M1596 8957 c6 -41 4 -44 -35 -76 l-40 -33 20 -28 c18 -24 19 -32 10 -66 -13 -46 -113 -144 -148 -144 -12 0 -25 -5 -28 -10 -4 -6 -28 -21 -55 -35 -45 -23 -112 -64 -135 -83 -6 -5 -23 -12 -38 -16 -15 -3 -27 -11 -27 -16 0 -6 -6 -10 -14 -10 -7 0 -20 -7 -27 -16 -7 -9 -36 -26 -64 -39 -27 -12 -59 -32 -69 -44 -11 -11 -24 -21 -31 -21 -6 0 -32 -13 -58 -30 -26 -16 -56 -30 -66 -30 -9 0 -28 -11 -40 -24 -13 -14 -37 -30 -54 -37 -18 -8 -41 -21 -52 -31 -11 -10 -58 -37 -105 -62 -47 -25 -105 -56 -130 -70 -25 -13 -63 -34 -85 -46 -34 -19 -58 -36 -112 -80 -19 -16 -62 -30 -89 -30 -15 0 -38 -13 -56 -30 -16 -16 -38 -30 -49 -30 -15 0 -19 -7 -19 -37 0 -32 6 -41 35 -60 19 -13 37 -19 40 -14 4 8 200 128 235 144 8 4 29 16 45 27 17 11 39 24 50 30 11 6 43 24 70 41 28 16 64 37 80 45 17 8 44 23 60 34 17 11 39 24 50 30 11 6 34 19 50 30 17 11 41 25 55 30 13 6 27 14 30 18 5 7 12 11 96 57 27 14 63 35 79 46 17 10 39 23 50 29 11 6 34 19 50 30 17 11 44 26 60 34 17 8 53 29 80 45 28 17 59 35 70 41 11 6 34 19 50 30 17 11 39 24 50 29 11 5 37 21 58 35 21 14 44 26 50 26 7 0 18 5 24 11 13 13 39 28 110 64 28 14 54 33 57 41 3 9 6 78 6 155 0 139 0 139 -25 151 -14 6 -25 17 -25 25 0 7 -11 13 -25 13 -23 0 -24 -2 -19 -43z"/> <path d="M2640 8985 c0 -8 21 -23 48 -34 26 -12 54 -25 62 -31 8 -5 35 -20 60 -32 25 -13 63 -35 84 -50 21 -16 43 -28 48 -28 4 0 27 -12 51 -27 52 -34 113 -69 152 -89 17 -8 44 -23 60 -34 17 -11 39 -24 50 -30 11 -5 27 -14 35 -20 8 -5 51 -30 95 -55 44 -25 87 -50 95 -56 8 -5 22 -12 30 -16 8 -4 70 -40 137 -80 68 -40 132 -73 144 -73 12 0 38 13 58 28 20 16 43 32 51 35 8 4 29 16 45 27 17 11 44 26 60 35 44 22 130 72 210 122 11 7 39 21 63 32 23 11 42 24 42 28 7 130 5 147 -16 158 -12 6 -28 16 -35 22 -19 15 -130 73 -140 73 -4 0 -27 13 -51 29 -24 16 -54 31 -68 32 -17 3 -26 11 -28 27 -2 12 -10 22 -18 22 -19 0 -18 -17 7 -56 22 -37 61 -63 132 -89 52 -20 55 -25 30 -55 -24 -28 -125 -28 -168 0 -37 25 -45 25 -45 2 0 -40 74 -82 143 -82 32 0 88 26 100 46 8 15 35 18 61 8 30 -11 -12 -65 -66 -85 -16 -6 -28 -15 -28 -20 0 -5 -7 -9 -15 -9 -15 0 -63 -30 -93 -57 -7 -7 -20 -13 -28 -13 -8 0 -14 -4 -14 -10 0 -5 -8 -10 -19 -10 -10 0 -24 -7 -31 -15 -7 -8 -18 -15 -26 -15 -7 0 -19 -6 -26 -13 -7 -7 -32 -24 -55 -37 -25 -14 -43 -32 -45 -44 -5 -32 -31 -30 -51 3 -11 19 -27 31 -45 33 -21 2 -27 8 -25 26 3 21 0 22 -32 16 -33 -6 -51 9 -22 19 6 2 9 8 4 12 -4 5 -19 2 -33 -5 -29 -16 -40 -7 -51 43 -4 20 -12 27 -29 27 -12 0 -26 5 -29 10 -3 6 -16 8 -29 4 -17 -4 -27 3 -46 32 -19 28 -32 38 -53 39 -16 0 -33 9 -39 19 -7 13 -17 16 -34 12 -14 -4 -36 0 -52 9 -66 38 -87 53 -84 64 1 6 -7 11 -19 11 -15 0 -19 4 -15 16 5 13 2 15 -13 11 -11 -3 -25 1 -32 9 -6 8 -8 14 -3 14 4 0 3 5 -4 12 -8 8 -15 8 -25 -1 -11 -9 -17 -8 -28 5 -7 9 -24 20 -36 25 -13 5 -22 14 -21 21 2 8 -7 13 -23 13 -14 0 -32 5 -40 11 -8 6 -22 14 -32 17 -10 4 -15 11 -12 17 4 6 -28 10 -89 10 -77 0 -96 -3 -96 -15z"/> <path d="M3900 8986 c0 -21 -75 -56 -121 -56 -22 0 -58 9 -80 20 -35 19 -40 19 -46 4 -11 -29 37 -64 99 -71 79 -8 124 9 148 57 22 44 25 60 10 60 -5 0 -10 -6 -10 -14z"/> <path d="M4730 8910 l0 -90 33 -14 c17 -8 55 -29 82 -45 28 -17 59 -35 70 -41 11 -6 36 -20 55 -31 19 -12 55 -32 80 -46 25 -13 59 -33 75 -44 17 -10 39 -23 50 -29 36 -18 60 -35 68 -47 13 -20 36 -15 76 15 20 16 43 32 51 35 8 4 38 21 65 37 28 17 64 37 80 45 17 9 44 24 60 35 17 11 39 24 50 30 11 6 34 19 50 30 17 11 54 31 83 45 l52 26 0 90 c0 88 0 89 -25 89 -14 0 -25 -6 -25 -12 -1 -30 -81 -98 -175 -148 -77 -41 -271 -156 -309 -183 -25 -17 -31 -18 -40 -6 -14 18 -73 49 -92 49 -8 0 -14 8 -14 18 0 12 -16 27 -42 41 -209 108 -288 168 -288 218 0 20 -5 23 -35 23 l-35 0 0 -90z"/> <path d="M4880 8981 c0 -25 18 -39 77 -56 45 -13 55 -13 93 0 54 19 70 32 70 56 0 28 -56 27 -63 -1 -4 -17 -14 -20 -62 -20 -48 0 -58 3 -62 20 -7 27 -53 28 -53 1z"/> <path d="M5422 8979 c2 -13 18 -30 38 -41 47 -26 143 -18 177 14 28 26 30 48 3 48 -11 0 -20 -6 -20 -14 0 -19 -22 -26 -82 -26 -41 0 -51 3 -55 20 -4 14 -14 20 -35 20 -24 0 -29 -4 -26 -21z"/> <path d="M6877 8983 c-5 -13 -13 -23 -18 -23 -17 0 -98 -40 -165 -81 -35 -21 -66 -39 -68 -39 -4 0 -299 -172 -326 -190 -8 -6 -22 -13 -30 -17 -8 -4 -58 -32 -110 -63 -52 -31 -102 -59 -110 -63 -8 -4 -28 -16 -45 -27 -16 -11 -37 -23 -45 -27 -8 -3 -33 -18 -55 -32 -22 -14 -58 -35 -80 -47 -22 -11 -56 -31 -75 -42 -19 -12 -46 -27 -60 -33 -13 -5 -27 -14 -30 -19 -4 -6 -4 -261 -1 -313 1 -4 16 -15 34 -23 17 -8 39 -19 47 -24 23 -15 163 -95 180 -103 8 -4 29 -16 45 -26 17 -11 48 -29 70 -41 22 -12 63 -38 91 -56 28 -19 61 -34 74 -34 12 0 53 21 91 46 38 25 88 56 112 68 23 13 58 33 77 44 19 12 44 26 55 32 11 6 34 19 50 30 17 11 37 23 45 27 8 4 58 32 110 63 52 31 102 59 110 63 8 4 29 16 45 27 17 11 37 23 45 27 8 4 47 26 85 48 39 23 77 44 85 48 8 4 29 16 45 27 17 11 39 24 50 30 11 6 34 19 50 30 17 11 39 24 51 29 11 5 50 27 85 48 35 22 71 42 79 46 8 4 29 16 45 27 17 11 37 23 45 27 8 4 58 32 110 63 52 31 102 59 110 63 8 4 29 16 45 27 17 11 39 24 50 30 11 6 36 20 55 32 19 11 53 31 75 42 22 12 58 33 80 47 22 14 47 29 55 32 8 4 38 21 65 37 28 17 73 42 102 56 58 30 66 42 57 90 l-6 34 -63 0 c-57 0 -63 -2 -69 -22 -7 -26 -71 -72 -167 -121 -36 -19 -94 -53 -129 -76 -35 -22 -67 -41 -71 -41 -4 0 -36 -18 -70 -40 -35 -22 -84 -50 -109 -62 -25 -11 -58 -31 -75 -43 -16 -13 -59 -38 -95 -57 -36 -19 -87 -49 -114 -67 -28 -17 -55 -31 -62 -31 -6 0 -28 -13 -49 -30 -21 -16 -42 -30 -46 -30 -5 0 -38 -20 -75 -45 -36 -25 -73 -45 -83 -45 -10 0 -28 -11 -40 -24 -13 -13 -35 -27 -49 -31 -15 -4 -36 -15 -47 -25 -24 -21 -115 -70 -131 -70 -7 0 -15 -7 -18 -15 -3 -9 -31 -28 -63 -42 -31 -14 -76 -39 -99 -55 -23 -15 -45 -28 -49 -28 -4 0 -20 -11 -37 -25 -16 -14 -42 -28 -56 -32 -15 -3 -44 -19 -66 -35 -21 -15 -45 -28 -52 -28 -7 0 -25 -11 -41 -24 -32 -27 -88 -42 -98 -27 -10 17 -25 13 -25 -8 0 -10 -6 -24 -14 -30 -17 -14 -32 -8 -106 43 -25 17 -65 42 -90 55 -104 54 -210 123 -210 135 0 8 -7 19 -15 26 -25 20 -18 66 12 90 l28 22 -28 20 c-29 21 -36 55 -12 64 8 3 34 -3 58 -15 55 -27 126 -27 176 -1 41 20 60 57 35 67 -8 3 -22 -1 -32 -10 -38 -34 -162 -29 -162 6 0 7 21 24 47 38 25 13 60 32 77 41 17 9 41 17 53 18 12 0 23 4 25 10 2 6 22 1 46 -11 64 -32 118 -34 172 -7 35 18 46 29 48 51 4 32 -6 34 -41 7 -31 -25 -128 -28 -147 -5 -17 21 -7 41 25 49 15 4 44 18 64 32 19 13 47 24 61 24 14 0 31 5 38 12 8 8 18 9 34 1 61 -29 90 -35 135 -28 69 10 103 30 103 60 0 30 -5 31 -58 5 -50 -24 -75 -25 -113 -3 -40 24 -36 39 16 57 25 8 57 24 72 35 14 12 35 21 47 21 12 0 27 5 33 11 8 8 20 6 44 -8 48 -25 176 -24 207 3 21 18 31 64 14 64 -5 0 -27 -9 -50 -20 -48 -23 -63 -24 -109 -8 -43 16 -39 37 10 54 21 8 52 25 69 39 16 14 37 25 45 25 9 0 24 7 34 16 16 14 21 14 56 -10 31 -22 49 -26 104 -26 76 0 119 24 119 66 0 28 -17 31 -36 7 -10 -14 -27 -18 -82 -18 -63 0 -73 3 -95 27 -14 15 -27 40 -29 55 -3 27 -4 27 -11 6z"/> <path d="M3114 8956 c-13 -34 51 -76 114 -76 71 0 132 31 132 67 0 17 -30 16 -54 -2 -30 -22 -112 -19 -152 6 -30 18 -35 19 -40 5z"/> <path d="M7430 8906 c0 -57 117 -86 195 -49 32 15 54 47 41 60 -3 3 -12 0 -20 -6 -8 -7 -39 -15 -68 -18 -49 -5 -77 2 -140 35 -5 2 -8 -8 -8 -22z"/> <path d="M7850 8905 c0 -8 6 -15 14 -15 7 0 19 7 26 15 11 13 8 15 -14 15 -16 0 -26 -5 -26 -15z"/> <path d="M7740 8835 l-24 -26 34 15 c36 15 52 36 28 36 -8 0 -25 -11 -38 -25z"/> <path d="M5150 8825 c0 -60 133 -88 201 -42 39 26 51 57 21 57 -11 0 -25 -7 -32 -15 -19 -23 -108 -20 -145 5 -39 26 -45 25 -45 -5z"/> <path d="M1013 8814 c-17 -44 87 -86 172 -70 54 10 102 66 57 66 -10 0 -27 -7 -38 -15 -29 -22 -86 -18 -138 10 -41 22 -47 23 -53 9z"/> <path d="M3384 8805 c-7 -18 19 -51 58 -71 37 -19 114 -18 148 3 23 13 50 50 50 68 0 12 -39 4 -50 -10 -20 -24 -140 -20 -174 6 -23 18 -27 19 -32 4z"/> <path d="M1443 8803 c-18 -7 -16 -23 2 -23 8 0 15 7 15 15 0 8 -1 15 -2 14 -2 0 -9 -3 -15 -6z"/> <path d="M7665 8790 c-8 -13 15 -13 35 0 12 8 11 10 -7 10 -12 0 -25 -4 -28 -10z"/> <path d="M1375 8760 c-3 -5 3 -10 14 -10 12 0 21 5 21 10 0 6 -6 10 -14 10 -8 0 -18 -4 -21 -10z"/> <path d="M7160 8746 c0 -38 39 -56 118 -56 55 0 75 4 96 21 23 18 39 67 19 57 -84 -43 -129 -46 -194 -14 -40 20 -39 20 -39 -8z"/> <path d="M1280 8700 c0 -5 7 -10 15 -10 8 0 15 5 15 10 0 6 -7 10 -15 10 -8 0 -15 -4 -15 -10z"/> <path d="M7500 8696 c0 -9 7 -12 20 -9 31 8 34 23 6 23 -16 0 -26 -6 -26 -14z"/> <path d="M7455 8670 c-3 -5 3 -10 14 -10 12 0 21 5 21 10 0 6 -6 10 -14 10 -8 0 -18 -4 -21 -10z"/> <path d="M744 8655 c-5 -11 2 -26 19 -42 56 -56 227 -31 227 33 0 18 -24 18 -40 -1 -20 -24 -121 -20 -164 6 -33 19 -36 19 -42 4z"/> <path d="M3650 8641 c0 -11 14 -31 31 -45 59 -50 206 -28 222 33 6 25 -9 27 -49 6 -47 -24 -174 -13 -174 16 0 5 -7 9 -15 9 -8 0 -15 -9 -15 -19z"/> <path d="M7400 8640 c-12 -8 -11 -10 8 -10 12 0 22 5 22 10 0 13 -11 13 -30 0z"/> <path d="M1110 8605 c-7 -8 -19 -15 -26 -15 -8 0 -14 -4 -14 -10 0 -16 20 -12 46 9 14 11 21 22 15 25 -5 3 -14 -1 -21 -9z"/> <path d="M6886 8595 c-8 -23 41 -62 88 -68 72 -10 166 32 153 68 -7 16 -10 15 -43 -4 -44 -26 -99 -27 -147 -1 -44 24 -43 24 -51 5z"/> <path d="M8953 8589 c-11 -11 -36 -26 -78 -49 -11 -6 -33 -19 -50 -30 -16 -11 -39 -24 -50 -30 -11 -6 -33 -19 -50 -30 -16 -10 -52 -30 -80 -45 -27 -14 -68 -36 -90 -49 l-40 -24 0 -157 c0 -165 -1 -162 45 -179 8 -4 29 -15 45 -26 17 -11 44 -26 60 -35 17 -8 53 -28 80 -45 28 -16 59 -34 70 -40 11 -6 34 -19 50 -30 17 -11 37 -23 45 -27 8 -3 26 -15 39 -25 44 -34 51 -25 51 62 l0 80 -43 -6 c-39 -6 -48 -3 -79 25 -20 17 -53 39 -74 49 -63 29 -153 91 -164 113 -12 22 -4 96 12 116 7 9 5 17 -5 28 -22 21 -31 55 -19 67 7 7 23 3 49 -11 32 -18 51 -21 117 -19 73 3 81 5 99 31 30 39 12 52 -38 27 -47 -24 -71 -25 -119 -5 -46 20 -45 45 4 58 19 5 47 20 64 34 22 18 38 24 60 20 17 -2 39 1 48 7 13 8 23 8 38 -2 44 -27 50 -18 50 73 0 75 -2 85 -18 85 -10 0 -23 -5 -29 -11z"/> <path d="M7290 8580 c0 -5 9 -10 20 -10 11 0 20 5 20 10 0 6 -9 10 -20 10 -11 0 -20 -4 -20 -10z"/> <path d="M7250 8550 c0 -5 7 -10 15 -10 8 0 15 5 15 10 0 6 -7 10 -15 10 -8 0 -15 -4 -15 -10z"/> <path d="M7190 8520 c0 -5 9 -10 20 -10 11 0 20 5 20 10 0 6 -9 10 -20 10 -11 0 -20 -4 -20 -10z"/> <path d="M470 8492 c0 -35 68 -72 132 -72 41 0 94 25 108 50 16 30 6 35 -34 16 -45 -21 -101 -20 -155 4 -53 24 -51 24 -51 2z"/> <path d="M138 8489 c-2 -7 -32 -12 -71 -13 -66 -1 -67 -1 -67 -28 0 -27 2 -28 56 -28 63 0 118 26 127 60 4 16 0 20 -18 20 -13 0 -25 -5 -27 -11z"/> <path d="M7137 8494 c-4 -4 -4 -10 -2 -14 6 -10 45 0 45 11 0 10 -33 12 -43 3z"/> <path d="M7080 8456 c0 -8 -12 -17 -27 -22 -19 -5 -23 -8 -12 -11 14 -3 89 33 89 43 0 2 -11 4 -25 4 -15 0 -25 -6 -25 -14z"/> <path d="M6620 8430 c0 -32 56 -60 118 -60 65 0 121 31 122 68 0 17 -25 15 -40 -3 -9 -11 -32 -15 -80 -15 -48 0 -71 4 -80 15 -18 21 -40 19 -40 -5z"/> <path d="M753 8395 c-30 -26 -20 -32 22 -13 14 6 25 17 25 25 0 20 -16 16 -47 -12z"/> <path d="M6924 8365 c-4 -8 -12 -15 -20 -15 -8 0 -14 -4 -14 -10 0 -5 7 -10 15 -10 8 0 15 4 15 10 0 5 11 12 25 16 14 3 25 10 25 15 0 15 -40 10 -46 -6z"/> <path d="M200 8341 c0 -11 14 -31 31 -45 41 -34 134 -37 185 -5 59 36 41 56 -29 31 -40 -14 -52 -15 -94 -4 -26 7 -55 20 -64 28 -21 19 -29 18 -29 -5z"/> <path d="M6825 8309 c-4 -6 -4 -13 -1 -16 8 -8 36 5 36 17 0 13 -27 13 -35 -1z"/> <path d="M6350 8275 c0 -53 107 -83 183 -52 40 17 61 42 53 63 -6 15 -8 15 -27 -2 -29 -26 -148 -27 -176 -1 -26 23 -33 22 -33 -8z"/> <path d="M500 8250 c0 -5 9 -10 20 -10 11 0 20 5 20 10 0 6 -9 10 -20 10 -11 0 -20 -4 -20 -10z"/> <path d="M445 8220 c-3 -5 3 -10 14 -10 12 0 21 5 21 10 0 6 -6 10 -14 10 -8 0 -18 -4 -21 -10z"/> <path d="M8930 8177 c0 -15 45 -57 61 -57 5 0 9 14 9 30 0 23 -5 30 -19 30 -11 0 -26 3 -35 6 -10 4 -16 1 -16 -9z"/> <path d="M120 8164 c-16 -9 -43 -13 -72 -11 -41 3 -48 1 -48 -14 0 -13 10 -20 35 -25 58 -10 135 19 135 51 0 18 -17 18 -50 -1z"/> <path d="M290 8130 c0 -5 7 -10 15 -10 8 0 15 5 15 10 0 6 -7 10 -15 10 -8 0 -15 -4 -15 -10z"/> <path d="M6080 8119 c0 -38 38 -58 109 -59 66 0 131 27 131 54 0 23 -10 23 -58 0 -52 -25 -98 -22 -147 10 -31 21 -35 20 -35 -5z"/> <path d="M6426 8075 c-20 -14 -41 -25 -46 -25 -5 0 -21 -11 -36 -25 -15 -14 -24 -25 -21 -25 12 0 82 35 95 48 7 6 20 12 27 12 8 0 19 9 25 20 14 27 0 25 -44 -5z"/> <path d="M6217 7953 c-10 -10 -8 -61 2 -67 8 -5 31 43 31 65 0 11 -24 12 -33 2z"/> <path d="M3985 7816 c-17 -13 -49 -34 -70 -46 -22 -12 -53 -30 -70 -41 -16 -10 -39 -23 -50 -29 -11 -6 -47 -26 -80 -45 -33 -19 -75 -41 -92 -51 l-33 -16 0 -129 0 -128 53 -27 c78 -41 119 -63 152 -85 17 -10 39 -23 50 -28 11 -5 36 -20 55 -33 19 -13 55 -34 80 -47 25 -12 59 -31 75 -42 17 -10 39 -23 50 -29 29 -15 56 -32 96 -62 20 -16 42 -28 49 -28 7 0 29 14 50 30 21 17 40 30 43 30 3 0 26 14 50 30 25 17 48 30 51 30 4 0 25 12 49 27 23 15 60 37 82 49 22 11 56 30 75 41 l35 20 3 125 3 126 -43 21 c-24 12 -50 26 -58 31 -65 40 -157 93 -174 101 -12 5 -34 18 -51 29 -16 11 -41 24 -54 30 -13 6 -38 21 -55 33 -17 12 -46 30 -63 40 -18 9 -48 25 -66 35 -17 9 -46 27 -64 40 -39 27 -41 27 -78 -2z m81 -81 c16 -13 17 -16 4 -25 -32 -21 -119 -4 -95 19 6 5 21 11 35 14 14 2 28 5 31 6 3 0 14 -6 25 -14z m-87 -71 c47 -11 69 -13 98 -5 21 6 51 11 66 11 37 0 157 -57 157 -74 0 -19 -69 -30 -104 -17 -36 14 -36 14 -36 -8 0 -26 78 -56 117 -46 76 19 130 16 181 -10 27 -14 55 -25 61 -25 21 0 11 -20 -18 -35 -25 -13 -35 -13 -75 -1 -54 16 -72 3 -36 -26 33 -27 68 -33 114 -19 78 23 86 24 86 9 0 -21 -70 -88 -92 -88 -10 0 -18 -4 -18 -9 0 -20 22 -22 46 -6 47 31 73 -6 36 -51 -19 -24 -173 -124 -190 -124 -7 0 -21 -9 -33 -21 -16 -16 -29 -20 -50 -15 -22 4 -31 1 -39 -14 -18 -34 -22 -33 -177 72 -23 15 -45 28 -51 28 -5 0 -27 12 -48 28 -21 15 -67 42 -102 60 -35 18 -76 44 -90 57 -15 14 -30 25 -34 25 -3 0 -20 12 -37 26 -34 28 -39 59 -17 90 9 11 12 30 9 47 -5 22 -2 27 15 27 12 0 23 -4 26 -9 3 -4 22 -11 42 -14 38 -6 98 16 123 47 23 27 2 34 -40 13 -33 -16 -48 -18 -77 -11 -19 5 -37 14 -39 19 -3 9 99 63 147 79 8 2 16 5 17 5 1 1 29 -6 62 -15z"/> <path d="M4080 7453 c-32 -14 -59 -13 -122 2 -39 10 -36 -10 5 -35 41 -26 91 -25 133 1 54 33 43 56 -16 32z"/> <path d="M4150 7333 c0 -5 7 -17 15 -27 22 -29 121 -34 154 -8 31 25 20 49 -12 27 -29 -20 -103 -20 -111 0 -5 15 -46 22 -46 8z"/> <path d="M1538 7703 c-10 -2 -18 -9 -18 -14 0 -5 -10 -14 -22 -19 -13 -6 -50 -26 -83 -45 -33 -19 -69 -40 -80 -46 -24 -12 -45 -25 -102 -62 -24 -15 -45 -27 -47 -27 -2 0 -43 -23 -89 -50 l-86 -50 1 -63 c0 -34 4 -70 9 -79 5 -9 33 -28 61 -43 29 -14 67 -34 83 -45 31 -19 85 -50 145 -83 19 -10 49 -27 65 -38 17 -10 37 -22 45 -26 8 -4 58 -32 110 -63 52 -31 102 -59 110 -63 8 -4 29 -16 45 -27 17 -11 37 -23 45 -27 8 -4 47 -25 85 -48 39 -22 77 -44 85 -48 8 -4 29 -16 45 -27 17 -11 37 -23 45 -27 8 -4 44 -24 79 -46 35 -21 74 -43 85 -48 12 -5 35 -18 51 -28 17 -11 48 -29 70 -41 21 -12 50 -30 63 -41 31 -24 62 -24 93 -1 25 19 162 103 189 115 8 4 29 16 45 27 17 11 37 23 45 26 8 4 46 25 84 47 38 23 83 48 100 56 30 16 31 18 34 89 3 81 -3 95 -52 117 -35 16 -128 68 -166 93 -14 9 -41 25 -60 36 -19 11 -53 30 -75 42 -22 12 -57 32 -77 43 -21 11 -57 33 -80 48 -24 15 -63 38 -88 50 -25 13 -52 28 -60 33 -46 29 -207 123 -225 131 -11 5 -33 18 -50 29 -16 11 -37 23 -45 27 -8 4 -46 26 -85 48 -38 23 -77 44 -85 48 -8 4 -28 16 -45 26 -16 11 -48 29 -70 41 -21 12 -50 30 -63 41 -25 19 -32 21 -64 12z m97 -128 c0 -16 -10 -22 -45 -28 -51 -9 -100 4 -100 27 0 19 22 24 90 23 48 -2 55 -5 55 -22z m-164 -72 c45 -22 149 -22 185 2 22 14 32 15 77 4 29 -6 66 -23 84 -36 17 -13 48 -29 67 -34 20 -5 36 -14 36 -19 0 -26 -113 -54 -134 -33 -3 4 -22 12 -41 19 -31 10 -35 10 -35 -5 0 -61 140 -94 220 -52 27 14 46 18 58 12 107 -53 170 -81 184 -81 31 0 28 -18 -6 -39 -44 -28 -87 -26 -141 4 -29 16 -47 20 -51 14 -11 -19 31 -63 77 -81 51 -20 97 -16 151 15 42 23 33 25 158 -36 41 -21 81 -37 88 -37 15 0 16 -22 0 -38 -19 -19 -128 -15 -150 5 -13 12 -22 13 -29 6 -32 -32 38 -83 112 -83 22 0 63 10 90 21 38 17 53 19 62 10 6 -6 23 -11 37 -11 14 0 44 -13 66 -29 21 -15 52 -33 68 -38 17 -5 32 -15 34 -21 11 -34 -141 -41 -174 -8 -8 9 -19 16 -23 16 -32 0 -6 -60 34 -78 41 -19 130 -15 172 8 44 23 57 25 71 7 9 -10 0 -22 -40 -51 -45 -35 -170 -111 -253 -155 -16 -9 -32 -18 -35 -21 -16 -16 -119 -60 -141 -60 -15 0 -37 12 -54 30 -32 33 -134 97 -170 106 -13 3 -33 17 -46 30 -12 13 -30 24 -40 24 -10 0 -37 15 -61 33 -24 18 -81 53 -128 76 -47 24 -92 49 -100 55 -33 27 -121 76 -138 76 -9 0 -30 14 -46 30 -16 17 -34 30 -40 30 -6 0 -35 16 -65 35 -29 19 -55 35 -58 35 -3 0 -43 23 -90 50 -47 28 -89 50 -94 50 -20 0 -79 63 -79 86 0 28 16 31 50 7 19 -14 45 -18 103 -18 74 0 80 2 103 28 40 46 32 60 -22 37 -57 -25 -112 -25 -143 -1 -28 21 -22 36 16 44 16 3 46 18 68 32 21 15 50 28 62 30 13 1 27 5 30 9 10 10 28 7 64 -11z"/> <path d="M1650 7245 c-44 -30 -107 -32 -160 -5 -47 24 -50 24 -50 5 0 -35 69 -75 127 -75 47 0 101 24 118 53 24 40 7 50 -35 22z"/> <path d="M1716 7093 c-11 -11 28 -54 62 -68 65 -28 132 -15 176 34 28 31 7 51 -29 27 -30 -20 -135 -26 -156 -10 -19 15 -46 24 -53 17z"/> <path d="M2207 6936 c-6 -16 -77 -32 -122 -27 -16 1 -40 9 -52 17 -22 14 -53 19 -53 8 0 -17 24 -46 50 -59 40 -21 139 -20 170 2 31 21 40 33 40 56 0 20 -26 23 -33 3z"/> <path d="M2475 6774 c-41 -31 -90 -36 -146 -15 -57 22 -70 21 -62 -8 12 -48 157 -61 213 -19 17 12 30 30 30 40 0 22 -8 22 -35 2z"/> <path d="M7620 7262 c-30 -20 -66 -43 -80 -49 -44 -22 -109 -60 -125 -73 -12 -10 -15 -41 -15 -160 l0 -147 60 -32 c34 -17 80 -43 103 -58 66 -43 106 -63 123 -63 9 0 33 13 53 29 20 15 41 30 46 32 27 11 146 82 151 91 3 5 6 75 7 156 l0 146 -34 21 c-19 12 -65 39 -103 59 -38 21 -81 49 -95 62 -14 13 -28 24 -31 24 -3 0 -30 -17 -60 -38z m144 -73 c16 -14 -22 -59 -52 -60 -61 -2 -98 4 -114 18 -27 24 -22 41 15 51 36 10 137 4 151 -9z m-174 -97 c65 -37 171 -22 203 30 14 21 17 21 52 8 l26 -10 -20 -28 c-11 -15 -36 -37 -55 -47 -20 -11 -36 -23 -36 -27 0 -5 -6 -8 -14 -8 -20 0 -66 -39 -66 -56 0 -22 24 -16 59 15 37 33 87 49 104 32 7 -7 6 -29 -4 -73 -13 -55 -19 -65 -50 -81 -19 -10 -48 -16 -66 -14 -27 2 -34 -1 -44 -25 -6 -16 -16 -31 -21 -34 -4 -3 -31 11 -58 30 -28 20 -55 36 -61 36 -17 0 -49 82 -49 127 0 23 5 53 11 67 9 20 9 29 0 40 -11 13 -9 21 10 47 21 30 23 31 31 13 5 -10 26 -29 48 -42z"/> <path d="M5948 6911 c-13 -11 -42 -29 -63 -41 -22 -12 -53 -30 -70 -41 -16 -10 -37 -22 -45 -26 -31 -16 -135 -77 -140 -82 -5 -5 -23 -16 -134 -73 -18 -9 -36 -22 -42 -30 -5 -7 -8 -80 -6 -165 l3 -152 27 -14 c45 -23 125 -67 157 -87 17 -10 53 -31 80 -46 89 -49 100 -55 130 -74 17 -11 37 -23 45 -27 8 -4 33 -19 54 -35 21 -15 43 -28 47 -28 4 0 36 19 71 43 35 23 74 48 88 54 14 7 48 26 75 42 28 17 59 35 70 41 11 6 34 19 50 29 28 18 93 55 155 87 25 13 25 16 30 166 3 95 1 157 -5 165 -11 13 -57 40 -125 75 -25 13 -47 26 -50 30 -3 4 -17 12 -30 18 -14 5 -38 19 -55 30 -16 11 -39 24 -50 30 -42 23 -67 38 -78 49 -6 6 -17 11 -25 11 -7 0 -34 16 -59 35 -52 40 -70 43 -105 16z m91 -92 c31 -11 41 -32 20 -45 -15 -9 -99 -9 -126 0 -48 16 -14 54 48 55 14 1 40 -4 58 -10z m-142 -96 c34 -19 149 -16 186 5 18 9 35 22 40 27 4 6 11 3 18 -7 6 -11 22 -18 38 -18 16 0 39 -8 52 -19 13 -10 45 -28 72 -39 26 -11 47 -26 47 -31 0 -14 -65 -41 -97 -41 -13 0 -43 9 -65 20 -51 25 -48 25 -48 -3 0 -31 26 -53 73 -61 49 -9 139 9 171 35 20 16 30 18 46 9 11 -6 20 -12 20 -14 0 -7 -64 -70 -95 -94 l-30 -23 36 4 c28 4 38 1 48 -15 17 -27 5 -95 -20 -108 -10 -6 -31 -22 -45 -35 -15 -14 -39 -28 -53 -31 -14 -4 -43 -20 -64 -36 -21 -16 -66 -41 -100 -55 -34 -14 -64 -29 -67 -33 -3 -5 -17 -14 -30 -19 -14 -6 -32 -16 -41 -23 -13 -9 -22 -7 -44 10 -15 12 -34 22 -41 22 -7 0 -19 8 -26 19 -7 10 -38 31 -68 47 -30 15 -58 32 -61 37 -4 6 -23 15 -42 22 -65 22 -125 68 -141 108 -19 48 -11 107 15 107 10 0 21 -4 24 -10 3 -5 13 -10 22 -10 10 0 -4 19 -35 48 -29 26 -52 53 -52 59 0 18 43 39 48 24 15 -44 189 -65 231 -27 12 11 21 30 21 43 0 24 -9 29 -25 14 -6 -4 -31 -16 -56 -25 -44 -17 -47 -17 -87 4 -48 25 -52 37 -18 49 13 5 46 23 73 40 28 17 62 31 76 31 14 0 28 7 31 16 6 14 9 15 24 3 9 -8 27 -20 39 -26z"/> <path d="M5874 6465 c-9 -23 19 -50 67 -64 73 -22 182 21 165 64 -5 15 -10 14 -40 -4 -20 -13 -50 -21 -76 -21 -26 0 -56 8 -76 21 -30 18 -35 19 -40 4z"/> <path d="M6256 6435 c-27 -19 -55 -35 -63 -35 -7 0 -13 -4 -13 -10 0 -16 40 -12 46 5 4 8 17 15 30 15 13 0 24 4 24 9 0 5 9 11 20 14 19 5 29 37 12 37 -4 0 -29 -16 -56 -35z"/> <path d="M6120 6355 c-7 -8 -18 -15 -26 -15 -7 0 -16 -4 -19 -10 -3 -5 2 -10 12 -10 24 1 69 35 55 43 -5 4 -15 0 -22 -8z"/> <path d="M6030 6300 c0 -5 7 -10 15 -10 8 0 15 5 15 10 0 6 -7 10 -15 10 -8 0 -15 -4 -15 -10z"/> <path d="M4285 6339 c-4 -5 -17 -15 -28 -20 -12 -5 -35 -18 -52 -29 -16 -11 -39 -24 -50 -30 -11 -6 -33 -19 -50 -30 -16 -11 -41 -25 -55 -31 -14 -5 -38 -20 -55 -32 -16 -12 -50 -33 -75 -45 -25 -13 -58 -32 -75 -42 -16 -11 -39 -24 -50 -30 -11 -6 -33 -19 -50 -30 -16 -11 -52 -31 -80 -45 -27 -14 -63 -35 -80 -45 -16 -11 -39 -24 -50 -30 -11 -6 -33 -19 -50 -30 -16 -11 -40 -24 -52 -29 -11 -5 -24 -15 -28 -20 -3 -6 -12 -11 -20 -11 -8 0 -31 -12 -52 -26 -21 -14 -47 -30 -58 -35 -11 -5 -33 -18 -50 -29 -16 -11 -39 -24 -50 -30 -11 -5 -27 -14 -35 -20 -27 -18 -170 -100 -175 -100 -2 0 -23 -12 -47 -27 -24 -16 -52 -34 -63 -41 -11 -7 -32 -17 -47 -23 -16 -6 -28 -14 -28 -17 0 -4 -20 -16 -45 -27 l-45 -19 0 -86 1 -85 77 -38 c42 -21 91 -47 107 -58 17 -10 39 -23 50 -29 21 -11 34 -18 103 -62 24 -16 47 -28 52 -28 6 0 39 -20 76 -45 36 -25 72 -45 81 -45 8 0 32 13 52 28 20 16 43 32 51 35 8 4 29 16 45 27 17 11 44 26 60 34 17 8 53 29 80 45 28 17 59 35 70 41 11 6 34 19 50 30 17 11 37 23 45 27 8 4 47 26 85 48 39 23 77 44 85 48 8 4 29 16 45 27 17 11 39 24 50 30 11 6 34 19 50 30 17 11 44 26 60 34 17 8 53 29 80 45 28 17 59 35 70 41 11 6 34 19 50 30 17 10 50 29 75 42 25 12 59 32 75 44 17 12 53 34 80 49 28 14 64 35 80 45 48 30 77 47 130 75 28 14 64 35 80 45 17 11 40 24 53 30 21 9 23 15 20 91 l-3 82 -50 28 c-27 16 -59 33 -70 39 -21 10 -33 18 -103 63 -24 15 -49 27 -57 27 -8 0 -17 5 -20 11 -4 5 -17 15 -28 20 -12 5 -35 18 -52 29 -16 11 -39 24 -50 30 -42 23 -67 38 -78 49 -14 14 -54 14 -62 0z m88 -94 c35 -7 35 -31 -3 -50 -35 -18 -63 -19 -107 -3 -47 17 -43 42 10 54 43 10 52 10 100 -1z m-171 -84 c50 -40 190 -39 230 1 19 19 22 19 30 4 5 -9 20 -16 34 -16 14 0 53 -13 87 -29 34 -16 70 -31 80 -35 24 -8 21 -21 -9 -45 -38 -30 -99 -28 -146 4 -45 31 -48 31 -48 2 0 -32 26 -53 82 -68 41 -11 55 -11 103 5 31 9 59 24 62 32 7 18 34 18 57 1 17 -13 15 -16 -25 -49 -47 -37 -144 -98 -157 -98 -4 0 -31 -16 -61 -35 -29 -19 -54 -35 -57 -35 -2 0 -43 -24 -91 -53 -48 -29 -95 -56 -103 -60 -8 -4 -28 -16 -45 -27 -16 -11 -39 -24 -50 -29 -18 -8 -237 -137 -275 -161 -8 -6 -24 -14 -36 -19 -11 -5 -51 -28 -88 -50 -36 -23 -68 -41 -71 -41 -2 0 -23 -13 -47 -28 -24 -16 -59 -37 -78 -48 -19 -10 -94 -54 -166 -96 -73 -43 -135 -78 -139 -78 -4 0 -21 -10 -37 -22 l-31 -21 -16 20 c-9 11 -32 29 -51 39 -19 10 -51 31 -71 47 -20 15 -46 27 -58 27 -12 0 -21 6 -21 14 0 8 -16 20 -36 26 -45 15 -90 45 -132 88 -36 37 -38 44 -17 62 13 11 19 9 38 -8 63 -59 204 -54 237 8 19 36 -2 46 -45 21 -51 -30 -115 -28 -144 3 -26 28 -22 41 14 50 14 4 62 24 107 46 l81 39 31 -22 c25 -18 45 -22 108 -22 67 0 79 3 102 24 49 46 29 70 -32 41 -23 -11 -52 -20 -65 -20 -35 0 -97 28 -97 44 0 7 27 24 59 36 33 12 62 28 65 36 3 8 20 14 40 14 22 0 39 6 46 18 8 12 13 13 16 5 3 -7 11 -13 19 -13 7 0 18 -7 25 -15 9 -11 33 -15 89 -15 80 0 111 14 125 53 11 32 -3 37 -45 15 -32 -16 -51 -19 -90 -15 -59 7 -69 12 -69 36 0 12 14 24 44 35 25 9 50 23 56 31 7 8 28 17 49 21 20 3 41 13 48 21 10 13 17 11 48 -12 37 -29 110 -43 158 -31 30 7 77 50 77 71 0 19 -34 20 -50 0 -8 -10 -31 -15 -69 -15 -48 0 -61 4 -81 25 -22 23 -22 25 -4 31 35 12 104 49 104 56 0 5 12 8 26 8 14 0 39 8 55 17 25 15 30 15 46 2 68 -57 220 -48 236 13 10 36 -8 43 -46 19 -19 -11 -49 -21 -67 -21 -38 0 -92 29 -88 48 2 8 27 24 56 36 29 12 58 28 64 34 7 7 22 12 34 12 12 0 27 7 34 15 16 19 22 19 52 -4z"/> <path d="M4195 5899 c-21 -33 52 -89 116 -89 68 0 148 55 120 83 -7 7 -17 5 -32 -9 -30 -27 -127 -24 -168 5 -20 15 -32 18 -36 10z"/> <path d="M3920 5727 c0 -14 12 -32 30 -45 55 -41 182 -24 210 27 5 11 10 22 10 25 0 11 -38 6 -42 -5 -9 -28 -178 -17 -178 12 0 5 -7 9 -15 9 -9 0 -15 -9 -15 -23z"/> <path d="M3650 5568 c1 -37 46 -62 110 -63 74 0 107 10 126 40 23 35 12 41 -36 21 -54 -22 -108 -20 -148 4 -42 26 -52 25 -52 -2z"/> <path d="M3380 5406 c0 -18 10 -29 45 -45 25 -12 61 -21 80 -21 49 0 115 35 115 60 0 23 -15 25 -50 5 -37 -21 -110 -18 -140 5 -34 26 -50 25 -50 -4z"/> <path d="M3110 5250 c0 -25 49 -56 101 -65 27 -5 50 -1 82 13 51 23 78 58 52 68 -9 4 -24 -1 -34 -10 -23 -21 -129 -22 -157 -1 -27 20 -44 18 -44 -5z"/> <path d="M8575 6317 c-39 -28 -63 -43 -100 -61 -16 -8 -52 -29 -80 -45 -27 -17 -59 -35 -70 -41 -11 -6 -33 -19 -50 -29 -26 -17 -65 -39 -150 -85 -62 -34 -60 -29 -60 -189 1 -81 5 -151 11 -157 5 -5 41 -26 79 -46 110 -58 127 -68 170 -95 22 -14 47 -29 55 -32 8 -4 29 -16 45 -27 17 -11 44 -26 60 -35 17 -8 53 -28 80 -45 28 -16 59 -34 70 -40 11 -6 34 -19 50 -30 17 -11 39 -24 50 -30 11 -5 47 -26 80 -45 33 -19 67 -38 75 -42 8 -3 31 -19 51 -35 20 -15 42 -28 48 -28 7 0 11 27 11 76 l0 77 -29 -6 c-19 -4 -33 -1 -41 7 -6 8 -22 17 -35 20 -14 4 -25 11 -25 16 0 6 -8 10 -18 10 -10 0 -29 11 -41 24 -12 13 -35 26 -51 29 -15 4 -57 28 -92 54 -65 48 -106 72 -165 93 -18 7 -33 18 -33 25 0 8 -17 19 -37 26 -21 7 -49 20 -63 28 -45 30 -65 41 -95 55 -47 22 -79 63 -91 116 -11 50 -5 70 23 70 18 0 16 8 -7 37 -43 55 -14 82 45 43 36 -24 141 -28 183 -6 29 15 60 61 49 73 -4 3 -25 -3 -46 -15 -39 -22 -92 -27 -141 -13 -47 13 -33 34 48 72 94 45 151 55 192 34 34 -17 151 -20 167 -4 16 16 96 21 130 8 15 -5 37 -19 48 -29 11 -10 44 -21 73 -25 51 -7 52 -6 52 19 0 14 -3 25 -7 24 -12 -2 -63 24 -63 33 0 4 -24 19 -52 34 -29 14 -66 34 -83 45 -16 11 -39 24 -50 30 -20 11 -33 19 -95 58 -43 27 -38 27 -75 -1z m115 -97 c12 -7 12 -12 -4 -29 -28 -31 -130 -30 -147 0 -9 17 -8 23 2 30 19 12 130 11 149 -1z"/> <path d="M2 6043 l3 -68 43 3 c46 3 86 -14 116 -47 11 -12 27 -21 37 -21 25 0 49 -11 49 -21 0 -5 -20 -19 -44 -31 l-45 -21 -56 21 c-68 26 -65 26 -65 5 0 -32 17 -45 76 -59 52 -12 65 -12 114 3 75 23 132 17 183 -17 23 -15 57 -31 75 -35 38 -8 40 -14 9 -43 -29 -27 -117 -31 -137 -7 -14 17 -50 20 -50 4 0 -26 24 -49 62 -60 51 -13 108 -5 166 23 32 16 45 19 54 10 15 -15 -26 -76 -62 -92 l-25 -12 37 -19 c20 -10 39 -23 43 -28 11 -19 -22 -76 -61 -106 -63 -48 -104 -75 -116 -75 -6 0 -39 -18 -74 -40 -35 -22 -70 -40 -78 -40 -7 0 -19 -7 -26 -15 -7 -9 -20 -13 -28 -10 -8 3 -22 -1 -31 -8 -28 -24 -47 -26 -91 -6 -62 28 -80 25 -80 -12 0 -29 30 -68 54 -69 4 0 25 -13 46 -30 38 -30 83 -39 95 -19 4 5 17 15 28 20 12 5 36 18 52 29 17 11 39 24 50 30 11 6 34 19 50 30 17 11 39 24 50 29 11 5 36 20 55 32 19 13 55 34 80 47 25 13 68 36 95 52 l50 28 3 155 2 155 -52 27 c-29 14 -66 34 -83 45 -16 11 -39 24 -50 30 -11 6 -33 19 -50 30 -16 11 -52 31 -80 45 -27 14 -63 35 -80 45 -16 11 -39 24 -50 29 -11 5 -37 21 -58 35 -21 14 -40 26 -42 26 -3 0 -39 20 -81 45 -41 25 -78 45 -80 45 -3 0 -4 -30 -2 -67z"/> <path d="M8750 6038 c0 -6 11 -26 24 -43 30 -39 80 -49 167 -33 55 9 59 12 59 37 0 38 -6 41 -45 25 -48 -20 -114 -17 -160 6 -46 23 -45 23 -45 8z"/> <path d="M8490 5867 c0 -7 12 -24 26 -38 23 -21 35 -24 105 -24 72 1 81 3 106 28 41 41 20 53 -48 28 -64 -25 -81 -26 -117 -7 -48 24 -72 29 -72 13z"/> <path d="M0 5705 c0 -15 4 -24 10 -20 13 8 13 32 0 40 -6 4 -10 -5 -10 -20z"/> <path d="M8760 5714 c0 -19 26 -46 57 -59 43 -18 78 -19 138 -3 40 11 45 15 45 40 0 32 -8 34 -36 13 -25 -19 -124 -20 -150 0 -19 14 -54 20 -54 9z"/> <path d="M249 5552 c-29 -21 -151 -24 -170 -4 -16 15 -39 16 -39 2 0 -6 12 -22 26 -35 49 -46 192 -28 209 26 9 29 3 31 -26 11z"/> <path d="M470 5550 c0 -5 7 -10 15 -10 8 0 15 5 15 10 0 6 -7 10 -15 10 -8 0 -15 -4 -15 -10z"/> <path d="M6890 5542 c-8 -3 -31 -17 -50 -31 -19 -14 -44 -31 -56 -37 -11 -7 -44 -25 -73 -40 -60 -34 -72 -40 -126 -75 -39 -25 -98 -59 -180 -103 -22 -12 -59 -34 -83 -49 -23 -15 -59 -37 -80 -48 -20 -11 -50 -29 -67 -40 -16 -10 -39 -23 -51 -28 -24 -11 -126 -72 -134 -81 -3 -3 -25 -15 -50 -28 -25 -12 -54 -28 -65 -35 -97 -60 -101 -62 -190 -111 -27 -15 -63 -36 -80 -47 -16 -10 -37 -22 -45 -26 -8 -4 -30 -17 -49 -30 -18 -12 -56 -34 -85 -48 -28 -14 -73 -39 -101 -55 l-50 -28 0 -153 0 -153 30 -17 c17 -10 50 -29 75 -42 25 -14 61 -34 80 -46 19 -11 44 -25 55 -31 11 -6 43 -24 70 -41 28 -16 61 -35 75 -42 14 -6 31 -17 38 -24 7 -7 18 -13 24 -13 5 0 27 -13 48 -30 47 -37 62 -37 109 -2 44 33 62 44 126 77 28 14 64 34 80 45 17 11 39 24 50 30 11 6 34 19 50 30 17 11 39 24 50 30 11 5 27 14 35 19 35 22 166 98 180 104 8 4 29 16 45 27 17 11 37 23 45 27 17 7 207 118 230 133 8 6 24 15 35 20 11 6 34 19 50 30 17 11 37 23 45 27 8 4 47 25 85 48 39 22 77 44 85 48 8 4 29 16 45 27 17 11 39 24 50 30 11 6 34 19 50 30 17 10 53 30 80 45 28 14 59 31 70 38 10 6 35 22 55 33 l36 22 -1 152 -1 152 -69 39 c-39 22 -83 47 -100 55 -16 8 -43 23 -60 34 -16 11 -39 24 -50 30 -11 6 -33 19 -50 30 -16 10 -50 29 -75 42 -25 12 -61 34 -80 49 -42 31 -60 38 -80 31z m90 -112 c41 -26 -49 -76 -105 -57 -57 19 -75 52 -32 60 43 8 122 7 137 -3z m135 -95 c33 -16 80 -36 105 -45 54 -20 61 -39 21 -63 -35 -21 -87 -22 -121 -2 -32 18 -60 19 -60 2 0 -54 143 -71 224 -27 41 22 47 23 61 9 13 -13 11 -19 -18 -50 -19 -20 -41 -38 -50 -42 -18 -7 -23 -27 -7 -27 5 0 21 5 35 12 34 15 45 0 45 -62 0 -38 -5 -50 -33 -76 -17 -17 -45 -38 -62 -46 -60 -30 -149 -80 -184 -104 -20 -13 -41 -24 -47 -24 -6 0 -17 -7 -24 -15 -12 -15 -84 -59 -181 -111 -32 -17 -65 -37 -75 -45 -29 -24 -237 -139 -253 -139 -5 0 -23 -13 -41 -30 -18 -16 -51 -39 -74 -50 -61 -29 -142 -76 -171 -98 -14 -11 -40 -23 -59 -26 -20 -4 -41 -16 -49 -30 -9 -13 -28 -27 -43 -30 -15 -4 -41 -18 -58 -31 -17 -13 -51 -31 -74 -41 -37 -14 -45 -15 -52 -3 -5 7 -10 11 -12 9 -2 -3 -8 -14 -14 -25 -17 -31 -50 -29 -104 4 -28 17 -54 31 -59 31 -4 0 -19 8 -32 19 -13 10 -51 33 -84 51 -78 42 -159 104 -172 132 -16 32 -24 126 -12 133 5 4 9 23 9 44 0 21 3 40 6 43 3 4 30 -5 61 -19 46 -21 64 -24 110 -19 68 8 91 20 104 53 13 36 8 37 -35 8 -49 -34 -114 -34 -152 -2 -28 25 -26 47 5 47 9 0 32 11 51 25 18 14 50 28 69 31 20 4 44 13 53 21 15 14 21 13 51 -6 27 -16 51 -21 109 -21 78 0 93 6 121 51 18 31 11 46 -12 25 -9 -8 -38 -21 -64 -30 -42 -14 -52 -14 -81 -2 -61 26 -57 54 12 74 21 7 47 21 57 32 10 11 29 20 42 20 13 0 32 5 43 12 16 10 27 8 65 -10 73 -35 168 -24 200 24 23 35 13 41 -35 19 -38 -17 -122 -17 -150 0 -17 10 -11 45 8 51 9 3 41 17 71 30 116 54 131 56 186 28 51 -25 75 -26 140 -2 28 11 64 44 65 61 0 12 -28 8 -43 -8 -10 -9 -39 -16 -75 -17 -53 -3 -62 0 -81 22 l-20 25 20 18 c12 9 29 17 38 17 9 0 39 12 66 25 28 14 57 25 66 25 8 0 20 5 26 11 9 9 24 6 58 -11 63 -31 155 -24 193 13 37 38 24 49 -28 26 -54 -25 -126 -21 -147 7 -19 27 -12 37 41 56 27 9 56 24 65 32 10 9 30 16 44 16 15 0 36 5 47 12 15 10 26 9 55 -5 50 -24 145 -23 192 3 21 11 40 19 43 17 3 -2 32 -16 65 -32z"/> <path d="M6787 5084 c-23 -24 57 -74 118 -74 42 0 101 25 109 46 10 25 -1 29 -31 13 -36 -19 -137 -17 -158 5 -18 17 -28 20 -38 10z"/> <path d="M7050 4980 c0 -5 7 -10 15 -10 8 0 15 5 15 10 0 6 -7 10 -15 10 -8 0 -15 -4 -15 -10z"/> <path d="M6722 4917 c-43 -26 -120 -27 -166 -2 -40 22 -53 17 -37 -14 17 -31 47 -42 115 -43 66 0 90 9 119 47 23 31 10 37 -31 12z"/> <path d="M6895 4890 c-3 -5 1 -10 9 -10 8 0 18 5 21 10 3 6 -1 10 -9 10 -8 0 -18 -4 -21 -10z"/> <path d="M6240 4770 c0 -5 12 -22 26 -39 23 -28 31 -31 85 -31 65 0 112 18 129 49 16 30 13 31 -40 5 -61 -29 -71 -29 -142 0 -32 13 -58 20 -58 16z"/> <path d="M6535 4680 c-3 -5 1 -10 9 -10 8 0 18 5 21 10 3 6 -1 10 -9 10 -8 0 -18 -4 -21 -10z"/> <path d="M5970 4607 c0 -7 11 -24 25 -37 36 -33 149 -36 192 -4 33 25 45 58 16 47 -10 -3 -26 -13 -35 -20 -21 -19 -109 -13 -160 10 -30 14 -38 14 -38 4z"/> <path d="M5700 4455 c0 -20 26 -47 58 -61 57 -24 126 -14 165 24 36 37 30 53 -10 26 -32 -21 -149 -27 -161 -8 -8 13 -52 29 -52 19z"/> <path d="M415 5520 c-3 -5 3 -10 15 -10 12 0 18 5 15 10 -3 6 -10 10 -15 10 -5 0 -12 -4 -15 -10z"/> <path d="M260 5430 c0 -5 7 -10 15 -10 8 0 15 5 15 10 0 6 -7 10 -15 10 -8 0 -15 -4 -15 -10z"/> <path d="M1919 5177 c-61 -38 -74 -46 -94 -57 -11 -6 -33 -19 -50 -29 -16 -11 -52 -32 -80 -47 -27 -14 -52 -29 -55 -33 -3 -3 -21 -14 -40 -25 -63 -33 -104 -57 -135 -77 -16 -10 -41 -23 -54 -29 -13 -6 -37 -20 -53 -31 -16 -12 -48 -31 -71 -44 -23 -12 -58 -32 -77 -43 -19 -12 -44 -26 -55 -32 -11 -6 -33 -19 -50 -30 -16 -11 -52 -31 -80 -45 -27 -14 -63 -35 -80 -45 -16 -11 -39 -24 -50 -30 -11 -6 -33 -19 -50 -30 -16 -11 -40 -24 -52 -29 -11 -5 -24 -15 -28 -20 -3 -6 -12 -11 -20 -11 -8 0 -34 -13 -58 -30 -25 -16 -49 -30 -54 -30 -27 0 -43 -39 -43 -102 0 -73 2 -75 100 -126 25 -12 59 -32 75 -42 17 -11 40 -24 52 -29 11 -5 24 -15 28 -20 8 -14 52 -14 60 -1 4 6 43 32 88 58 45 26 91 52 102 59 11 7 29 17 40 23 11 6 34 19 50 30 17 11 37 23 45 27 8 4 58 32 110 63 52 31 102 59 110 63 8 4 29 16 45 27 17 11 41 25 55 30 13 6 27 14 30 18 3 4 16 13 30 19 14 7 48 26 75 42 28 17 59 35 70 41 11 6 34 19 50 30 17 11 39 24 50 30 11 6 47 26 80 45 33 19 69 40 80 45 11 6 34 19 50 30 17 11 39 24 50 30 11 6 42 23 70 38 l50 29 -1 65 c0 36 -3 72 -7 81 -3 8 -30 27 -59 41 -29 15 -66 35 -83 46 -129 82 -127 82 -166 57z m119 -102 c4 -3 1 -14 -4 -23 -16 -24 -125 -29 -148 -7 -23 23 -20 33 12 38 33 6 132 0 140 -8z m92 -69 c0 -21 -52 -61 -178 -137 -132 -80 -202 -120 -242 -141 -14 -7 -53 -29 -88 -50 -34 -21 -64 -38 -66 -38 -2 0 -28 -16 -57 -35 -30 -19 -57 -35 -61 -35 -4 0 -37 -18 -73 -40 -36 -22 -69 -40 -74 -40 -5 0 -16 -6 -23 -14 -8 -7 -32 -23 -54 -35 -97 -53 -150 -84 -164 -97 -15 -12 -103 -63 -177 -101 l-32 -16 -67 67 c-50 49 -65 69 -56 78 8 8 25 5 63 -12 41 -17 64 -21 100 -17 66 8 108 33 109 65 0 14 -36 16 -45 2 -11 -17 -126 -12 -147 7 -22 20 -23 33 -1 33 9 0 44 16 79 35 34 19 71 35 81 35 11 0 24 5 31 12 9 9 21 7 51 -10 78 -44 221 -15 221 45 0 18 -35 16 -50 -2 -19 -23 -101 -20 -134 6 -31 24 -27 35 17 44 17 4 48 20 67 35 43 33 119 45 159 24 61 -32 193 -8 210 38 5 13 8 24 6 26 -1 1 -27 -7 -57 -19 l-55 -21 -52 22 c-28 13 -51 26 -51 30 0 4 19 15 43 25 40 16 56 24 95 44 74 40 83 42 117 21 64 -40 198 -21 226 31 15 28 6 33 -28 16 -48 -25 -94 -28 -133 -9 -46 23 -44 41 5 61 22 9 51 23 65 32 14 9 46 22 71 28 41 11 49 11 80 -8 51 -31 123 -28 190 7 54 29 79 31 79 8z"/> <path d="M2700 4550 c-19 -16 -40 -30 -46 -30 -6 0 -17 -7 -24 -15 -7 -8 -18 -15 -26 -15 -7 0 -33 -13 -57 -30 -25 -16 -50 -30 -56 -30 -8 0 -11 -50 -11 -162 l0 -163 48 -23 c26 -12 63 -32 82 -43 19 -12 55 -32 80 -46 25 -13 59 -33 75 -44 17 -10 39 -23 50 -29 11 -6 47 -26 80 -45 33 -19 69 -40 80 -45 11 -6 34 -19 50 -30 17 -11 39 -24 50 -30 11 -6 43 -24 70 -41 28 -16 64 -37 80 -45 17 -8 44 -23 60 -34 17 -11 39 -24 50 -30 11 -6 36 -20 55 -31 19 -12 55 -32 80 -46 25 -13 59 -33 75 -44 17 -10 39 -23 50 -29 11 -6 43 -24 70 -41 28 -16 64 -37 80 -45 17 -8 44 -23 60 -34 17 -11 39 -24 50 -30 11 -6 43 -24 70 -41 28 -16 64 -37 80 -45 17 -8 44 -23 60 -34 17 -11 37 -23 45 -27 8 -4 48 -26 88 -50 40 -24 75 -43 78 -43 4 0 24 -14 46 -32 42 -33 93 -42 108 -19 4 7 17 18 28 24 12 7 45 25 74 41 149 82 133 55 133 226 -1 155 -7 180 -46 180 -10 0 -21 5 -24 11 -4 5 -17 15 -28 20 -12 5 -35 18 -52 28 -16 11 -52 32 -80 47 -89 49 -100 55 -130 74 -16 11 -37 23 -45 27 -14 6 -195 111 -230 133 -8 5 -35 20 -60 32 -25 13 -51 29 -58 36 -7 6 -17 12 -22 12 -5 0 -28 12 -52 28 -74 47 -82 52 -105 61 -11 6 -24 15 -28 20 -3 6 -13 11 -21 11 -9 0 -30 11 -47 24 -18 14 -43 30 -57 35 -14 6 -38 20 -55 30 -31 20 -72 44 -135 77 -19 11 -37 22 -40 26 -3 4 -17 12 -30 18 -14 5 -38 19 -55 30 -46 30 -69 43 -122 70 -26 14 -64 36 -83 49 -19 12 -44 27 -55 32 -11 5 -33 18 -50 28 -16 11 -48 29 -70 41 -22 12 -59 35 -83 51 -24 16 -48 29 -55 29 -7 0 -28 -14 -47 -30z m122 -91 c20 -11 20 -12 -8 -35 -36 -29 -77 -30 -122 -2 -32 20 -33 22 -16 35 22 16 117 17 146 2z m-128 -94 c50 -14 67 -14 110 -4 28 7 59 17 68 23 13 8 21 7 30 -2 6 -6 22 -12 34 -12 12 0 48 -13 79 -30 31 -16 63 -30 70 -30 23 0 28 -20 9 -41 -21 -24 -118 -26 -148 -4 -27 20 -46 19 -46 -4 0 -25 41 -50 103 -63 45 -9 59 -8 107 11 47 18 55 19 63 6 6 -11 13 -13 27 -5 22 12 47 2 99 -35 19 -14 42 -25 52 -25 10 0 21 -5 25 -11 11 -18 -19 -38 -67 -45 -41 -6 -69 2 -131 34 -5 2 -8 -5 -8 -16 0 -56 141 -93 216 -57 20 9 43 13 52 9 9 -4 30 -6 45 -5 17 2 47 -9 75 -27 26 -16 57 -33 70 -37 31 -9 28 -32 -8 -50 -43 -22 -92 -19 -134 10 -44 30 -46 30 -46 7 0 -25 39 -60 81 -73 41 -12 125 -3 158 18 17 11 26 12 34 4 6 -6 25 -11 43 -11 17 0 37 -6 43 -14 6 -8 38 -24 71 -36 33 -12 60 -26 60 -30 0 -15 -67 -50 -97 -50 -16 0 -47 9 -68 20 -47 24 -59 11 -25 -25 46 -49 128 -56 207 -18 26 12 37 13 46 4 6 -6 22 -11 36 -11 13 0 48 -13 78 -30 29 -16 59 -30 67 -30 24 0 29 -20 10 -41 -22 -24 -124 -28 -144 -4 -15 19 -50 20 -50 2 0 -29 80 -77 129 -77 17 0 54 10 83 23 52 23 54 23 102 6 26 -10 56 -25 65 -33 10 -9 22 -16 28 -16 25 0 74 -33 71 -48 -6 -31 -119 -43 -154 -17 -20 15 -54 20 -54 7 0 -20 33 -52 65 -62 47 -15 129 -5 172 21 33 20 36 21 51 5 16 -16 14 -20 -25 -55 -42 -38 -45 -51 -13 -51 14 0 18 -9 18 -40 0 -22 -3 -42 -8 -45 -4 -3 -6 -14 -3 -24 6 -22 -40 -51 -80 -51 -14 0 -30 -7 -37 -15 -17 -20 -52 -19 -81 3 -13 10 -45 29 -71 41 -27 13 -51 27 -54 33 -3 5 -26 18 -50 28 -24 11 -44 24 -44 29 0 5 -13 12 -30 16 -16 4 -30 10 -30 15 0 5 -13 11 -29 15 -16 3 -37 15 -47 26 -10 12 -34 27 -52 35 -18 7 -47 27 -63 44 -19 19 -41 30 -58 30 -17 0 -58 21 -107 55 -43 30 -92 61 -109 70 -16 8 -48 25 -70 38 -22 13 -76 43 -120 66 -44 24 -87 49 -95 55 -18 15 -151 96 -188 115 -15 8 -39 24 -54 37 -15 12 -42 26 -60 29 -18 4 -46 18 -61 31 -16 13 -34 24 -41 24 -7 0 -28 12 -47 26 -19 14 -64 41 -100 59 -42 21 -82 52 -108 82 -38 44 -41 51 -35 88 3 22 11 45 16 52 7 8 5 20 -6 35 -9 12 -16 29 -16 36 0 15 5 15 104 -13z"/> <path d="M8810 4070 c-19 -16 -38 -30 -42 -30 -3 0 -39 -19 -80 -43 -40 -24 -80 -46 -88 -50 -8 -4 -28 -16 -45 -27 -16 -11 -39 -24 -50 -30 -11 -6 -33 -19 -50 -30 -16 -10 -53 -30 -82 -44 -58 -29 -61 -36 -61 -124 l0 -62 62 -35 c33 -20 68 -40 76 -45 8 -6 22 -13 30 -17 8 -4 47 -25 85 -48 39 -22 77 -44 85 -48 8 -4 29 -16 45 -27 17 -11 44 -26 60 -34 17 -8 53 -29 80 -45 28 -17 57 -34 65 -38 8 -3 29 -17 46 -30 48 -36 54 -31 54 47 0 43 -4 70 -11 70 -6 0 -25 11 -42 23 -18 13 -52 34 -77 47 -25 13 -57 29 -71 37 -14 7 -57 33 -95 58 -37 25 -72 45 -78 45 -5 0 -23 10 -40 23 -17 13 -39 26 -48 30 -39 14 -100 60 -110 83 -19 42 6 46 73 13 59 -30 83 -34 138 -23 33 7 81 48 81 70 0 19 -34 18 -50 -1 -8 -10 -31 -15 -71 -15 -47 0 -62 4 -78 22 -25 26 -21 34 20 42 17 3 44 17 60 30 15 13 46 27 69 31 22 4 43 11 46 17 4 5 12 4 22 -5 48 -41 137 -47 211 -14 l51 22 0 53 c0 33 -4 52 -12 52 -6 0 -35 18 -64 40 -29 22 -59 40 -66 40 -7 0 -29 -14 -48 -30z m137 -87 c7 -3 13 -9 13 -13 0 -15 -67 -50 -96 -50 -31 0 -94 33 -94 49 0 26 121 35 177 14z"/> <path d="M0 3953 l0 -69 34 4 c25 3 56 -6 111 -33 68 -32 75 -38 63 -53 -22 -29 -31 -32 -91 -32 -42 0 -59 4 -63 15 -8 20 -44 19 -44 0 0 -23 47 -63 82 -70 44 -10 112 3 151 29 33 23 34 23 56 5 13 -11 34 -19 46 -19 13 0 30 -6 37 -14 8 -7 24 -17 36 -20 12 -4 22 -12 22 -17 0 -5 11 -9 25 -9 18 0 25 -5 25 -20 0 -40 -129 -52 -171 -14 -10 9 -23 13 -28 9 -18 -11 -12 -35 15 -60 23 -22 36 -25 97 -25 53 0 78 5 103 21 19 11 34 25 34 31 0 7 7 5 18 -3 9 -8 33 -22 52 -32 19 -9 42 -21 50 -26 8 -5 36 -19 62 -30 57 -25 55 -44 -6 -61 -44 -12 -118 -1 -131 20 -4 6 -11 8 -16 5 -16 -10 -10 -41 11 -60 41 -37 230 -19 230 21 0 20 13 17 28 -6 7 -12 23 -20 41 -20 16 0 34 -6 40 -13 6 -8 35 -24 66 -37 30 -13 55 -27 55 -31 0 -4 -12 -17 -26 -28 -35 -27 -86 -27 -136 1 -33 19 -40 20 -48 8 -14 -23 10 -51 64 -71 45 -18 50 -18 104 -3 31 9 65 23 74 32 14 12 21 12 32 3 8 -7 19 -10 24 -7 5 3 24 -5 43 -17 36 -24 93 -52 122 -61 21 -7 22 -20 1 -40 -24 -24 -119 -21 -151 4 -28 22 -43 18 -43 -11 0 -23 50 -56 98 -65 42 -8 102 9 139 40 22 18 33 21 51 15 26 -10 20 -30 -20 -64 -22 -20 -149 -97 -228 -139 -19 -11 -53 -31 -75 -45 -22 -15 -62 -38 -89 -51 -48 -23 -49 -23 -66 -4 -9 10 -25 24 -35 31 -123 75 -204 123 -209 123 -3 0 -46 25 -95 55 -50 30 -119 70 -153 88 -35 19 -79 44 -98 56 -19 11 -55 31 -80 44 -25 13 -61 33 -80 45 -19 12 -47 22 -62 22 -21 0 -28 5 -28 20 0 21 -15 27 -25 10 -10 -16 -33 0 -28 21 3 10 0 19 -6 19 -7 0 -11 -23 -11 -63 0 -57 3 -65 27 -83 16 -11 35 -23 43 -27 8 -4 29 -16 45 -27 17 -11 39 -24 50 -30 11 -6 34 -19 50 -30 17 -11 37 -23 45 -27 18 -8 158 -89 180 -103 8 -6 24 -15 35 -20 11 -6 34 -19 50 -30 17 -10 50 -29 75 -42 25 -13 47 -26 50 -30 3 -4 17 -12 30 -18 14 -5 39 -19 55 -30 17 -11 39 -24 50 -29 11 -5 37 -21 58 -35 21 -14 42 -26 46 -26 5 0 14 -7 21 -15 20 -24 68 -18 109 13 20 15 47 33 61 40 14 6 48 25 75 41 28 17 59 35 70 41 11 6 34 19 50 30 32 20 48 29 140 79 33 18 65 37 71 42 6 5 10 39 9 81 -3 92 -1 87 -27 98 -13 5 -50 26 -83 45 -33 19 -69 39 -80 45 -11 6 -33 19 -50 30 -16 11 -39 24 -50 30 -11 6 -33 19 -50 30 -16 11 -37 23 -45 26 -8 3 -19 8 -25 10 -5 2 -23 13 -40 24 -16 11 -39 24 -50 30 -11 6 -33 19 -50 30 -16 11 -43 26 -60 35 -16 8 -52 28 -80 45 -27 16 -59 34 -70 40 -11 6 -33 19 -50 29 -16 11 -50 31 -75 44 -25 14 -61 34 -80 46 -19 11 -44 25 -55 31 -11 6 -42 24 -70 41 -27 16 -63 37 -80 45 -16 8 -43 23 -60 34 -16 11 -39 24 -50 29 -11 5 -37 21 -58 35 -21 14 -40 26 -43 26 -4 0 -25 13 -48 28 -22 15 -47 31 -53 36 -10 5 -13 -9 -13 -61z"/> <path d="M6705 3885 c-22 -19 -58 -44 -80 -55 -59 -29 -115 -62 -160 -93 -22 -15 -45 -27 -51 -27 -6 0 -22 -8 -35 -19 -13 -10 -52 -33 -86 -51 -35 -17 -63 -37 -64 -44 -4 -61 2 -300 8 -306 7 -7 75 -44 203 -113 19 -10 49 -27 65 -38 17 -10 37 -22 45 -26 8 -4 81 -47 162 -95 81 -48 150 -88 152 -88 3 0 50 -27 104 -60 55 -33 103 -60 107 -60 4 0 27 -13 52 -30 24 -16 48 -30 52 -30 4 0 26 -12 47 -27 88 -61 94 -63 138 -30 17 13 67 44 111 70 44 26 87 52 95 57 8 6 22 13 30 17 15 6 151 85 180 104 8 5 27 14 43 20 15 6 27 16 27 22 1 7 1 77 2 156 2 167 10 151 -127 220 -44 23 -104 56 -133 76 -30 19 -56 35 -59 35 -3 0 -25 14 -50 30 -24 17 -52 30 -63 30 -10 0 -20 3 -22 8 -4 9 -65 52 -75 52 -4 0 -26 14 -47 30 -22 17 -46 30 -53 30 -8 0 -29 11 -46 24 -18 14 -43 30 -57 36 -14 6 -50 26 -80 45 -30 18 -75 44 -100 57 -67 35 -134 79 -143 94 -14 23 -50 15 -92 -21z m147 -71 c30 -19 -36 -74 -88 -74 -28 0 -71 22 -86 44 -10 15 2 34 25 40 24 5 137 -3 149 -10z m-198 -82 c9 -11 35 -25 57 -32 51 -17 141 -1 175 31 22 20 22 20 60 1 22 -10 54 -22 73 -26 19 -3 42 -13 50 -20 9 -8 27 -16 40 -18 33 -4 36 -19 11 -51 -19 -24 -29 -27 -79 -27 -44 0 -65 5 -85 21 -31 24 -48 16 -39 -19 7 -29 50 -51 112 -59 52 -6 120 20 140 54 10 17 12 17 21 1 6 -10 21 -18 33 -18 12 0 45 -14 72 -30 28 -16 62 -30 78 -30 22 0 27 -5 27 -24 0 -30 -15 -42 -61 -51 -39 -7 -119 10 -119 25 0 6 -7 10 -15 10 -9 0 -15 -9 -15 -24 0 -39 54 -66 131 -66 58 0 68 3 98 30 l33 30 25 -20 c14 -11 32 -20 40 -20 7 0 36 -11 63 -25 27 -14 60 -25 73 -25 33 0 38 -9 20 -36 -23 -35 -83 -51 -133 -34 -22 7 -45 19 -51 27 -18 21 -29 15 -29 -14 1 -75 170 -95 240 -28 50 48 95 10 51 -42 -11 -13 -30 -28 -42 -33 -26 -12 -56 -29 -104 -60 -16 -11 -51 -30 -77 -42 -27 -12 -48 -28 -48 -35 0 -7 -8 -13 -19 -13 -10 0 -24 -7 -31 -15 -7 -8 -19 -15 -28 -15 -8 0 -30 -11 -49 -26 -33 -25 -33 -26 -33 -108 0 -51 -5 -89 -13 -100 -12 -16 -17 -14 -76 26 -79 55 -140 92 -216 133 -33 18 -85 47 -117 63 -31 17 -89 53 -130 79 -40 26 -91 57 -113 69 -96 51 -141 77 -156 90 -8 8 -22 14 -30 14 -8 0 -20 5 -26 11 -5 5 -25 18 -43 27 -19 9 -38 26 -44 37 -6 11 -21 33 -34 49 -19 24 -22 36 -16 75 3 25 10 50 14 55 4 4 4 22 -1 39 -6 22 -5 33 4 39 17 11 45 10 52 -2 13 -20 85 -50 122 -50 54 0 117 38 121 73 4 32 -6 34 -41 7 -37 -29 -129 -28 -157 2 -27 30 -26 58 3 58 12 0 39 9 60 20 20 11 44 20 52 20 8 0 29 9 47 20 41 25 51 25 72 2z m1100 -578 c9 -24 7 -90 -4 -119 -6 -16 -24 -32 -47 -42 -21 -8 -40 -18 -43 -22 -11 -14 -70 -51 -81 -51 -7 0 -20 -6 -28 -13 -9 -7 -36 -22 -61 -32 -25 -11 -58 -30 -74 -43 -16 -12 -38 -22 -50 -20 -19 3 -21 10 -21 70 l0 67 41 21 c23 11 44 27 47 35 3 7 22 17 42 21 20 3 42 15 48 25 7 11 19 19 29 19 9 0 23 6 30 13 32 31 71 48 94 43 19 -5 24 -2 24 13 0 17 10 24 41 30 4 0 10 -6 13 -15z"/> <path d="M6650 3447 c0 -14 12 -32 30 -45 63 -47 210 -16 210 44 0 28 -17 31 -35 7 -18 -25 -145 -25 -172 0 -26 23 -33 22 -33 -6z"/> <path d="M7135 3308 c-11 -27 -88 -43 -140 -28 -25 7 -45 17 -45 21 0 5 -7 9 -15 9 -23 0 -17 -43 9 -62 13 -9 50 -19 82 -23 69 -7 127 16 132 55 5 28 -15 51 -23 28z"/> <path d="M7190 3137 c0 -30 23 -51 73 -67 65 -21 167 17 167 62 0 23 -2 22 -50 -2 -53 -27 -98 -25 -142 5 -45 31 -48 31 -48 2z"/> <path d="M8940 3629 c-42 -23 -114 -25 -154 -4 -33 17 -46 13 -39 -13 13 -51 152 -72 203 -32 14 11 31 20 38 20 6 0 12 11 12 25 0 29 -12 30 -60 4z"/> <path d="M233 3486 c-4 -7 -29 -21 -55 -30 -47 -15 -95 -9 -122 15 -16 15 -36 10 -36 -8 1 -34 49 -57 120 -57 76 0 120 22 120 60 0 28 -16 40 -27 20z"/> <path d="M293 3315 c-8 -23 22 -51 73 -65 79 -22 164 6 164 55 0 30 -1 30 -50 5 -50 -25 -106 -25 -148 0 -28 17 -33 18 -39 5z"/> <path d="M2760 3180 c-41 -33 -43 -34 -90 -58 -25 -13 -58 -32 -75 -42 -16 -10 -52 -31 -80 -46 -27 -14 -63 -35 -78 -46 -16 -11 -49 -32 -75 -46 -72 -39 -95 -52 -127 -72 -16 -11 -39 -24 -50 -30 -11 -6 -33 -19 -50 -30 -16 -11 -52 -31 -80 -45 -27 -14 -63 -35 -80 -45 -16 -11 -39 -24 -50 -30 -11 -6 -33 -19 -50 -30 -16 -11 -39 -24 -50 -30 -66 -35 -125 -69 -160 -91 -22 -14 -50 -29 -62 -33 -13 -4 -23 -12 -23 -17 0 -5 -5 -9 -11 -9 -6 0 -31 -13 -56 -30 -24 -16 -47 -30 -50 -30 -3 0 -39 -20 -80 -45 -40 -25 -76 -45 -78 -45 -2 0 -23 -13 -47 -29 -24 -15 -72 -44 -108 -63 -36 -20 -81 -45 -100 -57 -19 -11 -44 -25 -55 -31 -11 -6 -33 -19 -50 -30 -16 -11 -37 -23 -45 -27 -8 -4 -46 -26 -85 -48 -38 -23 -77 -45 -85 -49 -17 -8 -39 -21 -97 -59 -24 -15 -45 -27 -48 -27 -2 0 -39 -20 -81 -45 -41 -25 -79 -45 -84 -45 -4 0 -13 -7 -20 -15 -17 -21 -17 -330 0 -351 7 -7 35 -25 64 -39 28 -14 60 -31 71 -38 10 -6 37 -23 60 -37 22 -13 49 -30 60 -37 11 -7 25 -15 32 -18 6 -4 31 6 55 22 60 38 81 51 98 59 8 4 33 19 55 33 67 43 84 53 175 103 25 13 63 35 85 49 22 14 47 29 55 32 8 4 29 16 45 27 17 11 44 26 60 34 17 8 53 29 80 45 28 17 59 35 70 41 11 6 34 19 50 30 17 11 39 24 50 30 11 6 34 19 50 30 17 11 44 26 60 35 17 8 53 28 80 45 28 16 59 34 70 40 11 6 34 19 50 30 17 11 37 23 45 27 15 6 203 115 230 133 8 6 24 15 35 20 11 6 34 19 50 30 17 11 39 24 51 29 19 8 136 76 174 101 8 6 24 15 35 20 11 6 34 19 50 30 17 11 39 24 51 29 11 5 50 27 85 48 35 22 71 42 79 46 8 4 29 16 45 27 17 11 37 23 45 27 18 8 158 89 180 103 8 6 26 15 40 21 13 5 28 16 32 22 4 7 8 88 8 180 l0 168 -32 15 c-46 21 -78 40 -91 53 -6 6 -17 11 -23 11 -7 0 -42 20 -78 45 -74 50 -90 53 -126 25z m89 -91 c61 -13 68 -22 46 -55 -16 -25 -20 -26 -92 -22 -60 3 -78 7 -89 23 -20 27 -13 38 32 52 50 15 45 15 103 2z m139 -85 c23 -16 30 -44 11 -44 -10 0 -59 -45 -59 -54 0 -2 14 -3 32 -2 29 1 33 -3 40 -34 14 -63 0 -107 -48 -152 -47 -44 -126 -94 -196 -126 -25 -11 -69 -36 -98 -56 -29 -20 -57 -36 -63 -36 -6 0 -20 -8 -31 -19 -12 -10 -64 -40 -116 -67 -97 -49 -110 -57 -191 -111 -26 -17 -57 -34 -70 -38 -13 -5 -37 -18 -54 -30 -42 -32 -127 -81 -156 -90 -13 -4 -44 -23 -68 -41 -24 -19 -50 -34 -57 -34 -7 0 -28 -13 -47 -29 -18 -16 -53 -37 -78 -47 -24 -9 -53 -24 -64 -34 -11 -9 -31 -22 -45 -28 -14 -7 -33 -16 -43 -22 -9 -5 -25 -15 -35 -20 -9 -6 -27 -14 -38 -19 -12 -5 -24 -16 -27 -24 -3 -7 -27 -22 -54 -32 -26 -10 -57 -26 -68 -35 -11 -10 -31 -21 -44 -25 -28 -9 -127 -70 -191 -118 -25 -18 -57 -36 -70 -40 -14 -3 -63 -31 -110 -62 -101 -66 -142 -86 -192 -92 -20 -3 -45 -14 -54 -24 -22 -25 -46 -24 -69 1 -10 12 -37 29 -60 39 -62 27 -96 91 -93 171 1 40 7 64 16 69 11 6 12 13 3 29 -9 17 -7 26 14 49 l25 28 17 -21 c10 -11 36 -29 57 -39 64 -29 193 -4 210 41 11 28 -4 35 -31 14 -37 -29 -154 -29 -183 0 -31 31 -24 47 25 64 25 8 57 24 71 35 14 11 42 24 62 27 20 4 44 16 53 27 16 21 16 21 58 -12 41 -33 44 -33 122 -29 65 4 83 9 104 28 14 13 25 29 25 37 0 16 -27 18 -32 2 -5 -15 -93 -30 -138 -23 -46 7 -56 13 -63 39 -6 17 7 26 93 68 54 26 104 47 111 47 6 0 17 8 24 17 11 15 15 14 45 -7 82 -59 260 -37 260 32 0 19 -15 24 -25 8 -8 -13 -72 -40 -94 -40 -30 0 -90 21 -106 36 -26 26 -17 43 28 55 43 11 49 14 102 49 17 11 41 20 54 20 13 0 29 8 36 17 14 19 11 19 95 -28 43 -23 96 -21 163 9 34 15 47 27 47 41 0 26 -7 26 -48 1 -47 -29 -128 -27 -165 4 -28 23 -29 56 -2 56 11 0 98 40 207 95 24 12 30 11 50 -4 32 -25 84 -41 130 -41 63 0 148 53 124 77 -4 4 -23 -2 -43 -12 -51 -28 -120 -25 -161 5 -39 29 -37 41 11 57 20 7 55 26 78 43 23 16 55 30 70 30 17 0 34 8 42 21 15 20 15 20 63 -10 40 -26 58 -31 108 -31 73 0 129 24 134 58 4 27 -22 30 -37 5 -8 -15 -23 -18 -81 -17 -63 0 -74 4 -97 27 l-27 26 50 24 c27 12 65 33 84 45 19 12 47 22 62 22 17 0 33 9 45 25 l18 25 38 -31 c49 -41 146 -50 206 -19 41 20 58 47 41 64 -6 6 -18 2 -34 -14 -23 -21 -32 -22 -97 -18 -54 4 -76 10 -86 24 -21 28 -16 39 25 53 20 7 57 27 82 43 31 20 54 28 73 25 19 -2 32 2 41 15 13 18 15 17 67 -7 90 -42 199 -32 232 22 11 17 28 16 55 -3z"/> <path d="M2885 2880 c-3 -5 3 -10 14 -10 12 0 21 5 21 10 0 6 -6 10 -14 10 -8 0 -18 -4 -21 -10z"/> <path d="M2248 2512 c-43 -17 -50 -32 -15 -32 19 0 65 37 55 44 -2 2 -20 -4 -40 -12z"/> <path d="M1640 2160 c0 -5 9 -10 19 -10 11 0 23 5 26 10 4 6 -5 10 -19 10 -14 0 -26 -4 -26 -10z"/> <path d="M1335 1980 c-3 -5 3 -10 14 -10 12 0 21 5 21 10 0 6 -6 10 -14 10 -8 0 -18 -4 -21 -10z"/> <path d="M1174 1885 c-4 -8 -12 -15 -19 -15 -8 0 -17 -4 -20 -10 -12 -19 20 -9 50 15 23 19 26 25 12 25 -10 0 -20 -7 -23 -15z"/> <path d="M1075 1830 c-3 -5 3 -10 14 -10 11 0 23 5 26 10 3 6 -3 10 -14 10 -11 0 -23 -4 -26 -10z"/> <path d="M715 1621 c-3 -5 -1 -12 5 -16 12 -7 30 2 30 16 0 12 -27 12 -35 0z"/> <path d="M562 3148 c4 -28 78 -68 126 -68 43 0 108 34 115 60 7 28 -18 37 -42 15 -27 -23 -120 -25 -154 -2 -35 23 -49 21 -45 -5z"/> <path d="M832 2998 c5 -36 63 -68 121 -68 58 0 117 31 117 61 0 23 1 23 -40 3 -40 -20 -142 -14 -169 10 -24 22 -33 20 -29 -6z"/> <path d="M5005 2724 c-16 -14 -39 -30 -50 -35 -11 -5 -33 -18 -50 -29 -16 -11 -37 -23 -45 -26 -8 -3 -19 -8 -25 -10 -5 -2 -23 -12 -40 -22 l-30 -19 0 -152 c0 -173 -7 -158 95 -209 25 -13 59 -32 75 -42 32 -20 87 -51 145 -83 19 -10 49 -27 65 -38 17 -10 39 -23 50 -29 11 -6 34 -19 50 -30 66 -44 73 -45 105 -22 16 12 31 22 34 22 3 0 22 12 43 26 21 14 47 30 58 35 11 5 38 20 60 32 l40 22 0 154 0 155 -47 27 c-26 16 -73 42 -105 60 -32 17 -64 36 -71 42 -14 11 -83 51 -127 73 -16 8 -43 23 -60 34 -16 11 -37 23 -45 27 -8 3 -31 19 -51 35 -20 15 -38 28 -40 28 -2 -1 -17 -12 -34 -26z m104 -103 c10 -7 11 -13 2 -30 -17 -31 -111 -31 -141 1 -19 21 -20 23 -3 30 26 10 125 9 142 -1z m-159 -86 c54 -28 111 -29 167 -5 40 17 56 19 71 11 12 -6 30 -11 42 -11 11 0 37 -10 58 -23 20 -13 52 -29 70 -37 58 -23 28 -56 -53 -59 -17 -1 -48 8 -70 19 -58 30 -71 9 -23 -36 34 -30 44 -34 94 -34 43 0 68 6 99 25 36 20 45 22 60 11 17 -12 17 -14 0 -39 -9 -14 -25 -29 -36 -32 -26 -9 -89 -66 -89 -82 0 -7 17 -1 44 17 61 41 72 39 80 -14 9 -60 -5 -79 -79 -111 -33 -15 -68 -33 -77 -42 -16 -14 -20 -13 -48 11 -18 14 -37 26 -45 26 -7 0 -18 6 -24 14 -7 8 -40 29 -74 47 -34 17 -80 44 -101 60 -22 16 -45 29 -52 29 -18 0 -83 76 -90 106 -4 17 -2 29 7 35 19 11 20 70 2 91 -31 35 14 51 67 23z"/> <path d="M6417 2140 c-14 -11 -28 -20 -31 -20 -3 0 -22 -12 -43 -26 -21 -14 -47 -30 -58 -35 -11 -5 -33 -18 -50 -28 -16 -11 -50 -30 -75 -42 -25 -13 -63 -35 -85 -50 -22 -15 -58 -37 -80 -49 -22 -12 -53 -30 -70 -41 -16 -10 -40 -23 -52 -28 -19 -9 -88 -49 -168 -99 -11 -6 -29 -17 -40 -22 -11 -6 -33 -19 -50 -30 -16 -11 -54 -31 -82 -45 -29 -15 -53 -30 -53 -34 0 -3 -12 -12 -27 -18 -16 -7 -50 -25 -78 -42 -27 -17 -59 -35 -70 -41 -11 -5 -29 -16 -40 -22 -41 -27 -101 -63 -140 -84 -22 -11 -56 -31 -75 -42 -19 -12 -44 -26 -55 -32 -11 -6 -33 -19 -50 -30 -16 -11 -41 -25 -55 -31 -14 -5 -39 -21 -57 -35 -17 -13 -38 -24 -45 -24 -8 0 -19 -5 -25 -11 -12 -12 -46 -33 -80 -48 -11 -5 -24 -15 -28 -20 -3 -6 -15 -11 -25 -11 -10 0 -22 -5 -26 -11 -5 -8 -9 -282 -5 -357 1 -7 11 -17 24 -22 12 -5 49 -26 82 -45 33 -19 69 -39 80 -45 11 -6 34 -19 50 -30 74 -49 76 -49 150 0 17 11 39 24 50 30 11 6 34 19 50 30 17 11 39 24 50 30 11 6 34 19 50 30 17 11 44 26 60 34 17 8 53 29 80 45 28 17 59 35 70 41 11 6 34 19 50 30 17 11 37 23 45 27 8 4 58 32 110 63 52 31 102 59 110 63 8 4 29 16 45 27 17 11 39 24 50 30 11 6 36 20 55 31 19 12 55 32 80 46 25 13 59 33 75 44 17 10 39 23 50 29 11 6 34 19 50 30 17 11 39 24 51 29 11 5 50 27 85 48 35 22 71 42 79 46 8 4 29 16 45 27 17 11 39 24 50 30 11 6 34 19 50 30 17 11 44 26 60 34 17 8 53 29 80 45 28 17 74 42 103 56 l52 27 -2 181 c-3 170 -4 182 -23 192 -23 12 -150 84 -180 102 -11 7 -27 15 -35 19 -8 4 -26 16 -39 26 -30 23 -42 23 -74 -2z m99 -101 c46 -12 53 -23 30 -54 -20 -28 -145 -28 -175 -1 -40 36 -26 50 59 59 19 2 36 5 38 5 2 1 23 -3 48 -9z m125 -79 c26 -15 24 -30 -12 -68 -17 -18 -30 -35 -28 -36 2 -2 13 -8 24 -14 31 -16 34 -118 5 -155 -12 -15 -28 -27 -35 -27 -8 0 -19 -9 -25 -20 -6 -11 -17 -20 -24 -20 -8 0 -37 -16 -66 -35 -29 -19 -60 -35 -70 -35 -10 0 -25 -11 -34 -25 -9 -14 -28 -28 -42 -31 -14 -4 -62 -31 -107 -61 -45 -29 -98 -58 -117 -63 -19 -5 -43 -18 -52 -29 -10 -11 -43 -34 -75 -51 -32 -17 -89 -49 -128 -70 -38 -22 -84 -46 -101 -54 -17 -8 -36 -22 -44 -30 -7 -9 -17 -16 -23 -16 -6 0 -18 -6 -26 -14 -9 -7 -44 -28 -78 -45 -34 -18 -67 -39 -74 -47 -6 -8 -22 -14 -36 -14 -14 0 -37 -13 -54 -29 -16 -16 -45 -35 -65 -41 -20 -7 -53 -27 -73 -45 -20 -18 -52 -37 -72 -44 -20 -6 -51 -23 -69 -36 -19 -14 -39 -25 -46 -25 -6 0 -38 -18 -70 -40 -40 -27 -65 -38 -80 -34 -16 4 -26 0 -34 -15 l-11 -21 -42 21 c-59 31 -137 100 -137 123 0 11 -5 34 -12 52 -10 29 -9 36 14 66 23 31 25 36 12 58 -16 30 -18 66 -4 75 6 4 29 -7 52 -24 37 -28 50 -31 111 -31 79 0 133 21 150 57 15 34 3 38 -38 13 -30 -19 -47 -22 -101 -18 -53 3 -69 9 -91 30 l-26 27 24 10 c13 5 39 15 56 21 18 7 45 23 59 37 23 22 34 24 70 19 37 -5 45 -2 54 14 10 19 11 19 50 -5 91 -57 284 -12 256 60 -6 17 -8 16 -30 -4 -20 -19 -37 -23 -99 -24 -67 -2 -78 1 -101 22 -30 28 -27 34 29 51 21 7 57 26 80 42 31 23 48 29 78 26 28 -3 38 1 42 13 5 14 11 13 52 -7 88 -45 232 -25 254 34 11 29 -8 38 -33 15 -29 -26 -157 -26 -187 1 -31 28 -26 42 22 54 23 6 58 25 77 42 32 29 39 31 83 26 41 -4 48 -3 43 10 -12 31 6 33 46 4 36 -26 49 -30 109 -30 77 0 130 20 150 56 19 36 4 40 -47 15 -59 -30 -143 -26 -174 7 -28 30 -26 35 22 50 23 8 60 27 82 43 26 19 52 29 74 29 21 0 40 7 47 17 12 16 16 15 54 -10 34 -23 51 -27 111 -27 59 0 77 4 110 26 23 15 40 35 40 45 0 24 -18 24 -43 2 -15 -14 -36 -18 -93 -17 -65 0 -76 3 -100 27 l-26 26 23 10 c13 5 38 14 56 21 17 6 41 22 54 36 17 18 33 24 67 24 30 0 49 5 56 16 11 14 16 13 50 -10 33 -22 50 -26 113 -26 74 0 117 13 142 44 16 19 25 20 52 6z"/> <path d="M6550 1830 c0 -5 9 -10 20 -10 11 0 20 5 20 10 0 6 -9 10 -20 10 -11 0 -20 -4 -20 -10z"/> <path d="M6435 1770 c-3 -5 3 -10 14 -10 12 0 21 5 21 10 0 6 -6 10 -14 10 -8 0 -18 -4 -21 -10z"/> <path d="M6232 1649 c2 -6 8 -10 13 -10 5 0 11 4 13 10 2 6 -4 11 -13 11 -9 0 -15 -5 -13 -11z"/> <path d="M5830 1410 c0 -5 7 -10 15 -10 8 0 15 5 15 10 0 6 -7 10 -15 10 -8 0 -15 -4 -15 -10z"/> <path d="M5780 1390 c-11 -7 -12 -12 -3 -21 13 -13 33 -4 33 17 0 16 -9 18 -30 4z"/> <path d="M5698 1342 c-16 -10 -28 -20 -28 -24 0 -15 41 -8 46 7 4 8 12 15 20 15 8 0 14 5 14 10 0 14 -20 11 -52 -8z"/> <path d="M5510 1230 c0 -5 9 -10 21 -10 11 0 17 5 14 10 -3 6 -13 10 -21 10 -8 0 -14 -4 -14 -10z"/> <path d="M5245 1079 c-5 -5 -19 -16 -30 -24 -20 -14 -20 -14 0 -14 11 0 34 11 50 24 26 21 27 25 10 24 -11 0 -24 -4 -30 -10z"/> <path d="M5105 989 c-4 -6 -5 -12 -2 -15 7 -7 37 7 37 17 0 13 -27 11 -35 -2z"/> <path d="M4950 900 c0 -5 7 -10 15 -10 8 0 15 5 15 10 0 6 -7 10 -15 10 -8 0 -15 -4 -15 -10z"/> <path d="M3140 2135 c-7 -8 -16 -15 -21 -15 -4 0 -27 -12 -51 -27 -59 -38 -76 -48 -133 -79 -27 -14 -63 -36 -80 -48 -16 -12 -50 -32 -75 -44 -25 -13 -67 -36 -95 -52 l-50 -28 -3 -58 c-4 -78 3 -100 35 -113 16 -6 44 -21 63 -32 19 -12 55 -32 80 -46 25 -13 59 -33 75 -44 17 -10 39 -23 50 -29 11 -6 36 -20 55 -31 19 -12 53 -31 75 -42 22 -12 57 -35 78 -50 35 -27 39 -28 56 -13 10 9 20 16 24 16 3 0 23 12 44 26 21 14 47 30 58 35 11 5 34 18 50 29 17 11 39 24 50 30 11 6 34 19 50 30 17 11 44 26 60 34 52 26 118 65 129 76 5 5 18 10 27 10 23 0 29 20 29 100 0 64 -2 70 -27 88 -16 10 -35 22 -43 26 -8 3 -42 22 -75 41 -33 19 -69 39 -80 45 -11 6 -33 19 -50 30 -16 11 -40 24 -52 29 -11 5 -24 15 -28 20 -3 6 -15 11 -26 11 -10 0 -19 4 -19 9 0 5 -10 13 -22 17 -13 4 -39 20 -59 35 -40 32 -80 37 -99 14z m76 -86 c50 -13 58 -34 18 -49 -33 -13 -74 -13 -113 1 -43 15 -38 42 9 50 19 4 36 7 38 8 2 0 23 -4 48 -10z m-133 -98 c27 -23 162 -21 199 3 21 13 37 16 72 11 26 -4 50 -14 54 -21 4 -8 34 -24 67 -37 32 -12 60 -28 62 -34 5 -14 -58 -53 -86 -53 -11 0 -44 11 -72 24 -40 20 -51 22 -55 11 -10 -24 29 -62 71 -72 51 -11 122 1 157 27 51 37 92 14 56 -32 -14 -17 -214 -138 -228 -138 -5 0 -15 -6 -22 -12 -14 -13 -43 -31 -113 -69 -22 -11 -52 -33 -67 -47 l-27 -25 -10 26 c-6 15 -16 27 -22 27 -7 0 -30 15 -53 34 -23 18 -54 41 -71 50 -16 9 -37 20 -45 26 -8 5 -36 16 -62 26 -27 9 -48 23 -48 30 0 7 -8 15 -19 19 -10 3 -35 22 -55 42 -34 34 -35 37 -19 55 16 18 17 18 38 -2 36 -34 107 -51 167 -40 28 6 52 10 54 10 7 0 35 62 32 71 -2 5 -27 -2 -56 -17 -57 -28 -91 -28 -137 2 -33 22 -32 40 5 47 16 4 48 18 70 32 22 14 54 28 70 32 17 3 33 9 36 14 6 10 33 1 57 -20z"/> <path d="M3055 1700 c-3 -6 2 -21 12 -34 26 -36 109 -54 164 -36 36 12 69 42 69 62 0 13 -34 8 -54 -7 -25 -19 -105 -19 -131 -2 -31 21 -54 27 -60 17z"/> <path d="M7670 1978 c-25 -18 -67 -45 -93 -58 -27 -14 -64 -33 -83 -43 l-35 -18 3 -82 3 -82 40 -22 c22 -12 51 -28 65 -36 14 -7 48 -26 75 -41 28 -15 64 -36 80 -47 17 -10 37 -22 45 -26 8 -4 47 -26 85 -48 39 -23 77 -44 85 -48 8 -4 29 -16 45 -26 17 -11 50 -31 75 -44 25 -14 61 -34 80 -46 19 -11 42 -24 50 -28 8 -3 17 -9 20 -12 18 -21 73 -52 83 -46 15 7 42 24 92 56 22 14 67 41 100 59 33 18 65 38 70 45 6 7 10 44 10 81 0 63 -2 70 -25 82 -14 7 -38 22 -55 32 -16 11 -52 31 -80 46 -57 29 -73 39 -130 74 -59 37 -75 47 -125 72 -25 13 -61 34 -80 47 -19 12 -44 27 -55 32 -11 5 -33 18 -50 28 -16 11 -48 29 -70 41 -22 12 -60 35 -84 52 -66 44 -88 45 -141 6z m113 -74 c73 -13 35 -64 -48 -64 -50 0 -85 16 -85 39 0 26 59 37 133 25z m-126 -98 c50 -25 133 -21 177 9 25 17 42 22 54 16 145 -70 212 -105 212 -111 0 -5 -16 -18 -35 -30 -41 -25 -76 -22 -140 10 -47 24 -55 19 -28 -18 26 -36 92 -52 162 -41 32 5 58 15 66 26 12 16 15 16 32 2 10 -9 34 -19 54 -23 21 -4 42 -13 48 -20 6 -7 32 -19 57 -26 53 -15 62 -30 37 -59 -14 -17 -29 -21 -74 -21 -38 0 -61 5 -69 15 -13 16 -50 21 -50 7 0 -14 43 -50 73 -61 44 -17 77 -13 142 18 32 16 65 27 72 24 35 -14 -3 -61 -86 -109 -25 -15 -58 -38 -73 -52 l-27 -25 -30 24 c-16 13 -30 31 -30 40 -1 15 -58 39 -93 39 -8 0 -39 18 -68 40 -29 22 -61 40 -71 40 -10 0 -26 12 -37 27 -14 19 -28 27 -45 25 -17 -1 -32 7 -45 23 -12 15 -30 25 -45 25 -14 0 -40 14 -61 35 -21 19 -46 35 -57 35 -10 0 -19 5 -19 11 0 6 -8 8 -17 5 -27 -8 -50 9 -35 27 10 11 7 19 -14 41 -24 23 -26 29 -15 52 11 24 13 25 29 11 9 -8 31 -22 49 -31z"/> <path d="M3739 1273 c-37 -27 -61 -42 -89 -54 -13 -5 -27 -13 -30 -17 -3 -4 -31 -20 -63 -35 l-58 -28 3 -82 3 -82 37 -20 c20 -11 56 -31 80 -44 24 -13 61 -35 83 -50 66 -44 72 -45 129 -8 65 44 132 82 174 101 17 8 32 19 33 23 0 4 2 41 4 81 l3 73 -40 25 c-21 14 -49 29 -61 35 -12 5 -35 18 -52 29 -16 11 -37 23 -45 27 -8 3 -26 15 -39 25 -30 22 -42 23 -72 1z m86 -93 c40 -15 29 -43 -22 -53 -55 -11 -108 3 -108 28 0 30 78 45 130 25z m-179 -65 c3 -7 26 -22 50 -31 56 -21 142 -14 183 15 69 50 94 7 30 -50 -24 -21 -49 -39 -55 -39 -6 0 -23 -9 -37 -20 -38 -30 -74 -25 -125 17 -96 79 -103 88 -80 111 16 16 27 15 34 -3z"/> <path d="M2100 1026 c-14 -14 -61 -43 -105 -67 -44 -23 -87 -48 -96 -55 -8 -8 -19 -14 -22 -14 -4 0 -26 -12 -50 -27 -23 -15 -76 -45 -117 -66 -108 -57 -110 -59 -110 -134 0 -71 12 -103 38 -103 10 0 23 -5 29 -11 12 -12 33 -25 108 -64 28 -14 64 -35 80 -45 17 -11 39 -24 50 -29 11 -5 36 -20 55 -32 19 -13 55 -34 80 -47 25 -13 59 -32 75 -42 17 -11 37 -23 45 -27 8 -4 59 -33 113 -65 53 -32 102 -58 107 -58 6 0 10 -4 10 -8 0 -4 15 -15 33 -23 17 -8 52 -26 77 -39 70 -37 78 -40 99 -40 11 0 24 -7 29 -16 5 -9 14 -14 21 -10 19 12 12 35 -14 42 -13 3 -27 14 -30 24 -3 10 -25 36 -48 56 -23 21 -42 43 -42 49 0 5 -15 9 -33 7 -32 -3 -87 28 -87 49 0 14 -27 29 -52 29 -13 0 -32 9 -43 20 -11 11 -25 20 -30 20 -15 0 -71 30 -88 46 -7 8 -24 14 -36 14 -17 0 -25 8 -33 33 -8 28 -13 32 -41 31 -23 -2 -32 3 -32 13 0 28 -41 54 -73 47 -22 -4 -34 -1 -53 16 -13 13 -21 27 -18 31 3 5 -3 8 -13 7 -49 -4 -64 2 -58 22 8 26 -19 38 -42 19 -15 -12 -16 -12 -10 5 9 22 -17 56 -43 56 -23 0 -44 48 -29 66 16 19 42 17 61 -5 18 -22 108 -36 164 -25 42 8 74 35 74 63 0 25 -16 36 -27 17 -4 -7 -30 -21 -56 -30 -43 -14 -51 -15 -84 -1 -39 16 -73 43 -73 56 0 4 10 11 23 14 29 9 85 32 120 50 16 8 38 15 50 15 12 0 28 4 36 9 10 6 27 1 52 -15 32 -20 52 -24 112 -24 67 0 75 2 106 31 33 30 34 30 48 10 8 -12 22 -21 32 -21 19 0 65 -17 133 -48 46 -21 49 -46 8 -67 -41 -21 -99 -19 -139 6 -40 24 -56 15 -42 -24 11 -29 59 -47 128 -47 51 0 85 12 113 40 20 20 23 20 39 6 10 -9 33 -19 52 -22 19 -4 43 -15 54 -24 11 -10 37 -23 58 -30 44 -14 47 -31 11 -59 -35 -28 -102 -28 -137 -1 -34 27 -47 25 -47 -5 0 -21 9 -30 53 -50 28 -14 59 -25 67 -25 26 0 120 48 126 65 5 13 10 11 30 -10 13 -14 34 -25 48 -25 26 0 129 -41 152 -61 11 -9 10 -15 -3 -35 -13 -21 -23 -24 -78 -24 -47 0 -69 5 -87 20 -28 22 -38 18 -38 -16 0 -31 63 -64 121 -64 43 0 107 25 125 49 10 12 14 12 35 -2 13 -10 31 -17 41 -17 10 0 41 -11 70 -24 29 -13 66 -29 81 -35 27 -10 27 -12 12 -35 -11 -16 -30 -27 -56 -31 -50 -9 -119 3 -126 21 -9 23 -33 16 -33 -10 0 -44 43 -66 125 -66 61 0 78 4 110 26 27 18 41 22 48 15 6 -6 20 -11 30 -11 11 0 43 -13 71 -29 28 -16 66 -32 83 -36 32 -6 32 -7 18 -35 -17 -33 -33 -40 -89 -40 -30 0 -55 8 -80 25 -20 14 -39 25 -41 25 -3 0 -5 -12 -5 -27 1 -47 41 -67 133 -68 75 0 80 1 104 29 21 25 28 28 42 18 9 -7 39 -23 66 -35 28 -13 56 -31 64 -40 10 -13 31 -17 93 -17 88 0 93 9 20 36 -26 10 -76 36 -112 57 -36 22 -90 53 -120 70 -30 16 -86 48 -123 71 -37 22 -76 46 -85 51 -10 6 -38 22 -64 38 -26 15 -51 27 -57 27 -5 0 -38 19 -73 42 -73 49 -83 55 -176 105 -37 19 -86 49 -110 64 -24 16 -45 29 -47 29 -3 0 -27 13 -53 30 -27 17 -55 30 -61 30 -7 0 -47 24 -90 54 -42 30 -95 62 -116 70 -22 9 -46 23 -55 30 -8 8 -26 17 -40 21 -14 4 -41 20 -60 35 -19 15 -42 30 -50 33 -8 4 -31 17 -50 29 -19 11 -56 31 -81 44 -25 13 -62 37 -83 54 -47 36 -64 37 -96 6z m131 -83 c21 -21 -7 -50 -56 -58 -61 -9 -100 1 -120 31 -15 23 -15 25 7 34 30 13 154 8 169 -7z"/> <path d="M2220 580 c-31 -24 -117 -27 -146 -5 -21 16 -54 20 -54 6 0 -35 101 -86 148 -75 59 15 102 43 102 69 0 30 -16 31 -50 5z"/> <path d="M7770 510 c-41 -33 -43 -34 -90 -58 -25 -13 -58 -32 -75 -42 -16 -11 -39 -24 -50 -30 -11 -6 -33 -19 -50 -29 -16 -11 -52 -32 -80 -47 -89 -49 -100 -55 -130 -74 -16 -11 -39 -24 -50 -30 -11 -6 -33 -19 -50 -30 -16 -11 -39 -24 -50 -30 -11 -5 -47 -25 -80 -44 -56 -33 -114 -62 -160 -82 -14 -6 9 -10 73 -12 67 -2 101 1 125 13 29 13 38 14 90 0 70 -18 101 -19 147 -2 50 17 60 26 60 48 0 23 -13 24 -44 4 -28 -19 -120 -22 -141 -5 -22 18 -18 41 7 48 11 3 45 18 74 34 30 15 62 28 72 28 10 0 23 5 29 11 8 8 26 5 67 -10 31 -12 70 -21 86 -21 39 0 116 34 124 56 12 31 -10 38 -49 15 -45 -26 -102 -27 -132 -2 -13 11 -23 23 -23 28 0 4 21 17 48 27 26 11 59 28 74 38 14 10 37 18 50 18 13 0 28 4 34 10 6 6 20 4 39 -7 42 -24 169 -24 212 0 22 12 38 14 50 9 71 -36 156 -72 167 -72 7 0 19 -6 25 -14 9 -11 6 -18 -15 -35 -34 -26 -79 -27 -127 -1 -46 25 -57 25 -57 2 0 -25 26 -47 73 -62 46 -14 122 1 162 32 21 16 28 18 40 8 23 -19 18 -37 -20 -71 -41 -38 -45 -52 -11 -43 28 7 46 -17 46 -60 0 -24 3 -26 50 -26 l50 0 2 85 c1 47 2 97 2 112 1 27 -5 31 -149 108 -27 15 -63 37 -80 49 -16 12 -50 32 -75 44 -62 32 -127 69 -178 103 -50 34 -77 36 -112 9z m116 -97 c23 -9 16 -22 -21 -40 -32 -15 -40 -16 -77 -3 -49 18 -59 36 -26 50 21 9 93 5 124 -7z"/> <path d="M2300 415 c0 -19 10 -29 40 -45 49 -25 103 -25 158 0 33 15 42 24 42 45 0 28 -15 32 -40 10 -25 -22 -150 -23 -166 -1 -17 24 -34 19 -34 -9z"/> <path d="M5248 292 c-10 -2 -18 -8 -18 -13 0 -5 -10 -14 -22 -19 -13 -6 -30 -14 -38 -20 -22 -14 -163 -95 -180 -103 -8 -4 -28 -16 -45 -27 -16 -10 -68 -38 -115 -62 l-85 -43 104 -3 104 -3 39 41 c21 22 51 43 66 46 15 4 37 12 48 20 18 11 28 9 70 -12 41 -22 59 -25 110 -21 42 3 71 11 92 27 27 20 32 21 53 7 13 -8 36 -17 50 -21 15 -3 43 -24 63 -46 l37 -41 107 3 c68 2 100 6 87 11 -40 17 -183 94 -205 111 -8 7 -35 22 -60 34 -25 13 -58 32 -75 42 -16 11 -39 24 -50 30 -34 18 -62 35 -76 46 -20 15 -41 21 -61 16z m101 -116 c14 -17 -1 -31 -47 -41 -72 -15 -155 22 -99 45 36 14 133 12 146 -4z"/> <path d="M2570 266 c0 -42 43 -66 117 -66 81 0 123 21 123 62 0 32 -6 35 -32 11 -12 -10 -42 -18 -79 -21 -51 -4 -66 -1 -89 17 -37 27 -40 26 -40 -3z"/> <path d="M1105 254 c-20 -13 -40 -24 -44 -24 -5 0 -14 -7 -21 -15 -7 -8 -18 -15 -26 -15 -7 0 -32 -12 -56 -27 -69 -45 -82 -52 -103 -63 -11 -6 -33 -19 -50 -30 -35 -22 -114 -60 -126 -60 -4 0 -11 -4 -14 -10 -4 -6 33 -10 105 -10 l111 0 14 34 c13 31 18 33 75 39 47 5 67 3 83 -8 32 -22 129 -19 180 5 37 18 42 18 50 4 6 -11 17 -13 39 -9 23 5 35 2 54 -16 13 -12 24 -28 24 -36 0 -10 25 -13 110 -13 61 0 110 2 110 4 0 2 -37 23 -82 45 -46 23 -96 51 -113 61 -16 11 -43 26 -60 35 -16 8 -52 28 -80 45 -27 16 -60 34 -72 40 -13 5 -23 13 -23 17 0 5 -11 13 -25 20 -21 9 -30 8 -60 -13z m84 -90 c21 -4 31 -12 31 -25 0 -21 -20 -29 -84 -31 -41 -2 -51 2 -68 22 l-20 25 28 6 c41 9 76 10 113 3z"/> <path d="M2840 106 c0 -63 171 -89 229 -35 23 22 25 28 12 48 -7 11 -14 9 -39 -9 -40 -30 -108 -30 -158 -1 -44 26 -44 26 -44 -3z"/> <path d="M7700 61 c0 -25 77 -61 127 -61 52 1 107 30 111 58 4 26 -22 31 -36 5 -14 -23 -119 -24 -155 0 -34 22 -47 22 -47 -2z"/> <path d="M8055 29 c-4 -6 -17 -14 -29 -19 -18 -8 -17 -9 12 -9 36 -1 72 14 72 29 0 14 -47 13 -55 -1z"/> </g> </svg> 