 <svg version="1.0" xmlns="http://www.w3.org/2000/svg"  width="900.000000pt" height="900.000000pt" viewBox="0 0 900.000000 900.000000"  preserveAspectRatio="xMidYMid meet">  <g transform="translate(0.000000,900.000000) scale(0.100000,-0.100000)" fill="#000000" stroke="none"> <path d="M3041 8646 c-7 -8 -27 -17 -46 -20 -19 -4 -42 -17 -52 -29 -22 -28 -120 -86 -274 -163 -36 -18 -72 -41 -80 -50 -7 -9 -22 -20 -34 -25 -11 -5 -51 -27 -90 -48 l-70 -39 0 -79 0 -78 50 -26 c88 -46 148 -80 231 -130 45 -27 85 -49 90 -49 4 0 15 -6 23 -14 9 -7 39 -26 66 -41 51 -28 167 -97 197 -117 13 -10 29 -3 86 35 38 26 78 50 88 54 16 6 171 95 214 123 8 6 24 15 35 20 11 6 34 19 50 29 17 11 66 38 110 61 112 59 106 52 103 139 l-3 76 -55 29 c-30 15 -79 45 -109 65 -29 20 -87 54 -130 75 -42 22 -78 42 -81 46 -3 3 -23 15 -45 27 -91 47 -110 59 -122 74 -7 9 -30 24 -52 32 -22 9 -42 21 -46 27 -9 14 -41 12 -54 -4z m134 -117 c6 -6 4 -22 -4 -45 -16 -45 -8 -53 33 -30 41 22 71 18 71 -9 0 -12 8 -21 20 -23 30 -4 92 -30 162 -65 55 -28 63 -36 63 -60 0 -20 -6 -30 -20 -34 -11 -3 -20 -9 -20 -14 0 -13 51 0 72 18 19 17 41 12 78 -16 21 -17 22 -21 10 -36 -14 -17 -113 -85 -141 -96 -8 -4 -46 -25 -82 -48 -37 -23 -70 -41 -73 -41 -3 0 -48 -26 -100 -57 -52 -32 -107 -64 -122 -72 -15 -7 -40 -25 -55 -40 l-29 -26 -22 26 c-12 14 -43 35 -69 48 -26 12 -49 27 -53 32 -3 5 -12 9 -20 9 -9 0 -30 11 -48 25 -18 14 -40 25 -49 25 -10 0 -26 9 -37 20 -11 11 -29 20 -40 20 -13 0 -26 12 -37 35 -12 25 -23 35 -39 35 -12 0 -39 16 -58 35 -20 19 -43 35 -51 35 -7 0 -17 9 -20 21 -8 25 14 52 56 69 27 11 32 10 50 -9 19 -20 49 -29 49 -13 0 4 -9 18 -20 32 -27 34 -25 47 7 55 15 3 38 14 52 24 37 26 130 71 146 71 8 0 19 9 25 20 6 12 21 20 35 20 14 0 29 -8 35 -20 6 -12 21 -20 35 -20 29 0 30 7 10 34 -24 31 -19 74 8 79 33 8 181 -3 192 -14z"/> <path d="M3270 8281 c0 -10 30 -24 37 -17 3 3 2 9 -2 15 -8 13 -35 15 -35 2z"/> <path d="M7045 8562 c-33 -14 -66 -35 -74 -45 -7 -11 -28 -26 -45 -33 -17 -8 -44 -23 -61 -34 -16 -11 -39 -24 -50 -30 -11 -6 -38 -21 -60 -35 -22 -13 -49 -24 -60 -25 -11 0 -35 -13 -52 -29 -17 -15 -37 -31 -45 -35 -7 -3 -26 -15 -43 -26 -16 -11 -40 -24 -52 -29 -12 -6 -39 -21 -60 -33 -21 -13 -58 -32 -83 -43 -25 -10 -58 -30 -75 -45 -16 -14 -48 -35 -70 -47 -22 -12 -56 -30 -75 -42 -19 -11 -45 -25 -57 -30 -11 -5 -24 -15 -28 -20 -3 -6 -18 -11 -32 -11 -15 0 -43 -15 -67 -36 -52 -44 -48 -42 -131 -85 l-70 -37 -3 -81 -3 -80 33 -15 c18 -8 56 -29 83 -45 28 -17 59 -35 70 -41 11 -6 43 -24 70 -41 28 -16 64 -37 80 -45 17 -8 44 -23 60 -34 17 -11 39 -24 50 -30 24 -12 115 -64 180 -104 51 -30 53 -30 120 14 17 11 39 24 50 30 11 5 27 14 35 20 22 14 163 95 180 103 8 4 29 16 45 27 17 11 44 26 60 34 17 8 53 29 80 45 28 16 70 40 95 53 25 13 61 34 80 47 19 12 44 27 55 32 11 5 34 18 50 29 17 11 39 24 51 29 11 5 50 27 85 48 35 22 71 42 79 46 8 4 29 16 45 27 17 11 44 26 60 34 17 8 53 29 80 45 28 17 74 42 103 56 28 15 52 32 53 38 5 100 5 136 0 143 -3 5 -26 19 -51 32 -25 13 -58 32 -75 42 -16 11 -39 24 -50 29 -11 5 -31 21 -44 35 -14 14 -33 26 -42 26 -18 0 -66 23 -124 61 -16 10 -37 22 -45 26 -30 14 -115 67 -121 76 -5 7 -119 69 -123 66 -1 0 -28 -12 -61 -27z m150 -108 c10 -7 15 -19 12 -27 -15 -38 -160 -66 -173 -32 -3 8 -15 17 -25 20 -27 9 -20 37 11 46 40 11 156 6 175 -7z m149 -104 c34 0 48 -6 70 -29 15 -16 47 -34 69 -40 57 -15 70 -25 63 -48 -10 -33 -117 -68 -139 -47 -8 8 -111 44 -114 40 -8 -7 31 -67 49 -77 11 -6 47 -11 81 -12 54 -2 62 0 61 16 -2 16 4 17 41 11 37 -5 45 -3 54 14 8 15 19 19 43 16 18 -1 36 -3 41 -3 9 -1 9 -43 -1 -56 -8 -11 -82 -62 -121 -82 -84 -46 -110 -61 -145 -85 -21 -16 -43 -28 -48 -28 -5 0 -57 -28 -116 -63 -59 -35 -145 -85 -192 -111 -47 -26 -98 -56 -115 -66 -16 -11 -52 -31 -78 -45 -27 -14 -77 -44 -113 -65 -35 -22 -68 -40 -72 -40 -5 0 -26 -13 -48 -29 -57 -42 -177 -101 -203 -101 -24 0 -91 36 -91 49 0 4 -19 15 -42 26 -23 10 -60 30 -82 45 -23 16 -59 36 -81 46 -22 10 -47 24 -55 30 -8 7 -36 23 -62 36 -53 27 -128 92 -128 112 0 7 10 18 23 25 19 10 31 8 82 -18 81 -41 158 -43 215 -5 28 19 40 34 40 50 0 27 -12 31 -30 9 -7 -8 -19 -15 -27 -15 -8 0 -29 -10 -45 -22 -25 -17 -34 -19 -49 -10 -11 7 -29 18 -41 25 -36 19 -58 39 -58 51 0 6 17 18 38 28 20 9 53 23 73 32 20 9 41 22 48 30 6 7 30 14 53 14 26 1 47 7 54 16 15 21 27 20 48 -3 34 -37 201 -44 242 -10 17 14 48 69 42 74 -2 2 -28 -7 -57 -22 -67 -31 -149 -29 -183 5 -23 22 -19 52 7 52 14 0 76 30 139 68 12 6 38 15 59 18 22 4 37 12 37 20 0 18 24 18 40 -1 7 -8 27 -17 46 -21 19 -3 37 -10 40 -15 7 -12 111 -11 119 1 3 6 17 10 29 10 27 0 56 37 56 70 l0 22 -34 -21 c-18 -12 -39 -21 -46 -21 -8 0 -21 -7 -31 -15 -15 -15 -22 -13 -75 12 -82 39 -81 54 7 86 39 15 77 34 83 43 7 8 31 18 54 21 29 4 43 11 47 24 8 25 15 24 48 -6 20 -20 40 -26 80 -29 29 -1 58 -6 64 -9 17 -11 126 32 142 55 15 20 15 20 34 -6 15 -21 27 -26 61 -26z"/> <path d="M6960 8023 c0 -18 9 -38 23 -50 19 -19 33 -21 119 -19 92 1 99 3 125 29 20 20 24 30 16 38 -9 9 -18 6 -39 -10 -22 -17 -40 -21 -100 -21 -68 0 -76 2 -109 31 l-35 31 0 -29z"/> <path d="M6626 7841 c-16 -25 4 -61 44 -81 81 -41 240 4 240 68 l0 26 -20 -22 c-12 -12 -27 -22 -34 -22 -8 0 -19 -6 -25 -13 -23 -28 -156 -1 -185 38 -9 13 -15 15 -20 6z"/> <path d="M6290 7621 c0 -11 10 -29 22 -41 21 -19 74 -26 163 -20 38 3 85 36 85 61 0 24 -11 24 -43 -1 -20 -16 -40 -20 -96 -20 -49 0 -72 4 -78 14 -4 7 -18 17 -30 20 -19 6 -23 4 -23 -13z"/> <path d="M4977 8560 c-14 -11 -31 -20 -37 -20 -7 0 -29 -13 -50 -30 -21 -16 -42 -30 -48 -30 -5 0 -15 -7 -22 -15 -7 -8 -21 -15 -31 -15 -10 0 -22 -6 -26 -12 -4 -7 -26 -22 -48 -33 -22 -10 -47 -24 -55 -31 -8 -6 -26 -15 -40 -19 -13 -4 -49 -24 -80 -45 -70 -48 -137 -87 -172 -101 -16 -6 -28 -14 -28 -18 0 -10 -56 -41 -75 -41 -9 0 -34 -13 -54 -29 -20 -16 -63 -43 -96 -61 -33 -18 -67 -38 -76 -46 -8 -8 -20 -14 -26 -14 -5 0 -20 -9 -33 -20 -13 -11 -30 -20 -39 -21 -16 0 -23 -4 -122 -70 -30 -20 -64 -39 -76 -43 -13 -4 -23 -11 -23 -16 0 -4 -11 -11 -24 -14 -13 -3 -25 -11 -27 -18 -2 -7 -2 -97 1 -200 l5 -187 45 -26 c25 -14 59 -32 75 -40 17 -9 44 -24 60 -35 17 -11 39 -24 50 -29 11 -5 37 -21 58 -35 43 -30 61 -28 101 9 14 13 35 26 46 30 11 3 20 11 20 16 0 5 5 9 11 9 10 0 126 65 179 100 8 6 27 15 43 21 15 6 27 14 27 19 0 4 8 10 18 14 9 3 24 10 32 15 8 5 22 12 30 15 8 4 29 15 45 26 17 11 37 23 45 27 8 4 34 20 56 35 23 15 47 28 52 28 6 0 17 6 24 13 8 6 29 20 48 31 70 37 106 58 135 77 17 10 39 23 51 28 19 8 136 76 174 101 8 6 24 15 35 20 11 6 34 19 50 30 17 10 58 32 92 49 34 17 63 34 66 38 3 4 7 93 8 197 l4 189 -45 21 c-25 12 -47 23 -50 26 -14 14 -70 50 -78 50 -5 0 -24 14 -42 30 -18 17 -39 30 -47 30 -7 0 -27 9 -45 20 -40 24 -40 24 -71 0z m108 -64 c70 -27 79 -46 39 -87 -27 -28 -32 -29 -116 -29 -61 0 -88 4 -88 12 0 6 -10 22 -21 34 -33 35 -19 53 66 82 43 14 53 13 120 -12z m-215 -111 c30 -49 53 -59 89 -40 28 14 31 14 40 -3 8 -14 13 -15 30 -4 12 6 33 12 49 12 32 0 72 25 72 45 0 28 43 30 113 3 39 -15 34 -32 -20 -72 -27 -20 -55 -42 -64 -51 -9 -8 -23 -15 -32 -15 -21 0 -21 -9 -1 -35 14 -19 15 -19 39 10 21 26 26 29 44 18 11 -7 27 -13 35 -13 13 0 14 -12 10 -67 -8 -100 -23 -152 -51 -171 -14 -9 -33 -24 -43 -33 -9 -9 -28 -19 -42 -22 -14 -4 -49 -23 -78 -42 -29 -19 -56 -35 -61 -35 -13 0 -80 -48 -94 -67 -7 -9 -19 -14 -28 -10 -8 3 -23 -3 -32 -13 -9 -10 -30 -22 -45 -25 -15 -3 -36 -15 -45 -25 -10 -11 -22 -17 -27 -14 -5 4 -22 -5 -36 -19 -15 -14 -50 -36 -79 -51 -28 -14 -54 -30 -58 -36 -3 -5 -17 -10 -31 -10 -15 0 -24 -6 -24 -15 0 -9 -8 -18 -17 -21 -31 -10 -176 -86 -228 -118 -158 -101 -181 -110 -205 -81 -19 23 -26 19 -40 -26 -8 -22 -17 -42 -21 -44 -3 -3 -25 9 -48 25 -22 17 -46 30 -51 30 -15 0 -147 108 -154 125 -3 8 -5 59 -5 114 0 103 10 130 44 117 22 -8 19 -1 -15 36 -16 18 -30 35 -30 39 0 4 16 19 35 33 44 34 75 31 94 -9 18 -38 28 -45 71 -45 20 0 41 -5 48 -12 9 -9 15 -9 24 0 7 7 20 12 31 12 10 0 15 5 11 11 -3 6 -15 8 -27 5 -36 -9 -74 5 -117 44 -33 30 -41 43 -35 59 3 12 14 21 24 21 10 0 24 7 31 15 7 8 21 15 31 15 9 0 24 6 31 14 8 7 33 17 56 21 26 4 60 21 91 46 l49 39 6 -34 c10 -54 41 -67 145 -63 90 4 144 23 156 56 11 27 -11 31 -35 6 -21 -22 -31 -25 -100 -25 -83 0 -109 11 -133 58 -12 26 -12 29 8 44 13 10 35 20 51 24 16 4 31 10 34 13 9 11 71 41 85 41 18 0 78 32 88 48 14 21 31 13 47 -21 20 -43 52 -57 137 -57 66 0 71 1 66 20 -5 18 -11 20 -52 14 -36 -5 -50 -2 -60 10 -7 9 -19 16 -25 16 -7 0 -23 11 -35 24 -29 31 -16 61 32 70 19 3 44 17 56 30 13 13 38 27 56 30 18 4 52 20 76 36 24 16 49 30 56 30 6 0 21 -16 33 -35z"/> <path d="M4786 8215 c-3 -8 -15 -15 -26 -15 -24 0 -27 -15 -4 -24 22 -8 54 -8 54 2 0 4 3 17 6 30 7 25 -20 32 -30 7z"/> <path d="M5070 8215 c-7 -8 -18 -15 -25 -15 -7 0 -15 -7 -19 -15 -3 -8 -13 -15 -22 -15 -9 0 -35 -12 -58 -27 -22 -16 -59 -37 -81 -48 -22 -11 -44 -26 -48 -32 -4 -7 -16 -13 -26 -13 -10 0 -24 -7 -31 -15 -7 -8 -21 -15 -31 -15 -11 0 -19 -4 -19 -8 0 -5 -21 -19 -47 -32 -27 -13 -50 -26 -53 -30 -3 -4 -26 -17 -52 -30 -27 -13 -48 -27 -48 -32 0 -4 -7 -8 -15 -8 -8 0 -23 -9 -32 -20 -10 -11 -27 -20 -39 -20 -12 0 -24 -7 -28 -15 -3 -8 -14 -15 -25 -15 -11 0 -21 -4 -23 -8 -1 -4 -32 -25 -68 -46 -36 -20 -72 -42 -80 -47 -8 -5 -24 -13 -35 -18 -11 -5 -37 -21 -58 -35 -21 -14 -44 -26 -51 -26 -25 0 -44 -34 -39 -67 5 -33 23 -46 23 -17 0 23 49 65 113 96 31 15 75 41 98 58 23 16 46 30 51 30 5 0 45 25 89 55 44 30 89 55 100 55 11 0 22 7 25 15 4 8 13 15 20 15 8 0 17 7 20 15 4 8 16 15 29 15 12 0 28 7 35 15 7 8 18 15 25 15 7 0 18 7 25 15 7 8 20 15 29 15 10 0 41 18 70 40 29 21 91 58 138 80 46 23 104 55 128 71 23 16 47 29 52 29 11 0 43 33 43 43 0 13 -48 7 -60 -8z"/> <path d="M4070 7796 c0 -16 37 -28 46 -15 8 14 -5 29 -27 29 -10 0 -19 -6 -19 -14z"/> <path d="M1527 8520 c-14 -11 -32 -20 -39 -20 -8 0 -25 -11 -38 -25 l-23 -25 27 0 c15 0 38 7 51 16 18 12 37 14 79 9 31 -4 56 -11 56 -15 0 -4 11 -11 25 -14 13 -3 30 -16 36 -27 9 -19 7 -25 -17 -45 -16 -13 -41 -27 -56 -30 -18 -4 -28 -13 -28 -25 0 -26 19 -33 39 -15 10 9 25 16 33 16 9 0 25 16 37 36 17 29 25 34 44 29 12 -4 26 -11 32 -16 12 -12 45 -11 45 1 0 6 -4 10 -9 10 -5 0 -16 6 -23 13 -7 7 -31 24 -53 37 -22 13 -55 36 -73 52 -18 15 -43 28 -56 28 -13 0 -26 7 -30 15 -8 21 -28 19 -59 -5z"/> <path d="M1355 8416 c-22 -12 -56 -31 -75 -42 -19 -11 -54 -32 -77 -47 -24 -15 -49 -27 -58 -27 -8 0 -25 -10 -36 -21 -12 -12 -45 -34 -73 -48 -53 -27 -121 -69 -168 -102 -15 -10 -36 -19 -47 -19 -11 0 -30 -13 -43 -30 -15 -20 -30 -30 -49 -30 -14 0 -32 -6 -38 -14 -6 -7 -40 -28 -76 -45 -36 -18 -65 -36 -65 -40 0 -8 -70 -41 -86 -41 -6 0 -23 -13 -39 -30 -16 -16 -34 -30 -41 -30 -7 0 -36 -16 -65 -35 -30 -19 -59 -35 -65 -35 -6 0 -17 -8 -25 -17 -12 -15 -15 -53 -13 -199 1 -100 4 -186 7 -191 4 -6 35 -24 69 -42 35 -18 77 -40 93 -51 17 -10 48 -28 70 -40 22 -12 59 -35 83 -51 24 -16 49 -29 56 -29 8 0 19 -7 26 -15 7 -8 16 -15 21 -15 5 0 42 -20 82 -45 41 -25 78 -45 81 -45 4 0 22 -11 39 -24 18 -14 43 -30 57 -36 14 -6 50 -25 82 -43 31 -18 76 -43 100 -56 23 -13 67 -39 96 -58 52 -35 52 -35 80 -17 34 23 61 40 87 54 11 6 34 19 50 30 17 11 44 26 60 34 17 8 53 29 80 45 28 17 57 34 65 38 8 4 31 18 50 31 19 13 44 28 55 33 11 5 47 25 80 44 33 19 69 40 80 45 11 6 34 19 50 30 17 11 41 25 55 30 13 6 27 14 30 18 3 4 16 13 30 19 14 7 48 26 75 42 28 17 59 35 70 41 11 6 34 19 50 30 17 11 37 23 45 27 8 4 47 25 85 47 39 23 102 57 142 76 39 19 72 39 72 44 1 4 -36 49 -81 100 -45 50 -91 102 -103 115 -11 14 -27 32 -35 41 -8 9 -37 43 -64 75 -27 33 -54 65 -60 70 -6 6 -47 53 -91 105 -43 52 -90 106 -103 120 -14 14 -49 55 -80 93 -59 73 -94 87 -111 45 -5 -13 -18 -30 -28 -38 -45 -35 -83 -60 -93 -60 -5 0 -10 -4 -10 -10 0 -11 43 -14 54 -3 10 10 78 33 100 33 21 0 186 -166 186 -187 0 -7 13 -22 29 -34 16 -12 27 -28 24 -35 -3 -8 5 -18 20 -23 13 -5 34 -22 46 -38 12 -15 45 -54 74 -87 57 -64 159 -197 179 -235 12 -22 9 -26 -33 -65 -26 -23 -65 -48 -87 -54 -22 -7 -43 -19 -46 -27 -3 -8 -10 -15 -15 -15 -10 0 -127 -68 -202 -117 -19 -13 -38 -23 -42 -23 -3 0 -25 -13 -49 -29 -24 -16 -64 -38 -90 -50 -26 -11 -50 -26 -54 -32 -3 -6 -30 -22 -59 -35 -29 -12 -56 -28 -60 -34 -4 -6 -17 -16 -28 -21 -12 -5 -49 -25 -82 -44 -33 -20 -68 -38 -77 -41 -9 -3 -19 -12 -22 -20 -3 -7 -12 -11 -21 -8 -10 4 -15 0 -15 -10 0 -9 -8 -16 -19 -16 -10 0 -24 -7 -31 -15 -7 -8 -18 -15 -25 -15 -7 0 -18 -7 -25 -15 -7 -9 -20 -15 -29 -14 -9 1 -28 -3 -43 -11 -23 -11 -32 -10 -69 8 -23 12 -66 44 -95 73 -58 55 -69 57 -29 5 27 -35 33 -66 13 -66 -7 0 -28 11 -47 24 -33 22 -131 86 -170 111 -9 6 -36 23 -61 39 -25 16 -74 45 -110 64 -36 18 -81 46 -100 61 -19 16 -46 31 -58 35 -13 4 -56 28 -95 52 -40 24 -80 47 -89 50 -10 4 -18 12 -18 19 0 8 -9 17 -20 20 -33 11 -42 43 -44 159 l-1 111 33 -1 c35 -2 44 15 12 23 -12 3 -27 18 -35 33 -14 26 -13 29 10 44 13 9 27 16 31 16 4 0 16 7 26 17 17 15 19 15 38 -2 11 -10 20 -24 20 -31 0 -24 58 -56 89 -49 16 3 56 6 89 7 50 1 65 5 83 24 30 32 20 55 -12 23 -26 -26 -52 -30 -137 -22 -43 4 -59 11 -83 37 -16 17 -29 38 -29 47 0 15 76 59 128 74 12 3 22 10 22 14 0 5 20 14 45 20 25 6 54 20 65 31 29 29 52 24 78 -15 24 -38 47 -44 78 -21 18 14 18 15 -6 24 -14 6 -36 22 -50 37 l-25 27 35 28 c19 16 71 43 115 61 44 18 87 38 96 46 8 7 20 13 26 13 6 0 16 7 23 15 14 17 30 11 30 -13 1 -35 44 -69 94 -74 35 -4 49 -2 53 8 6 16 49 19 58 4 10 -17 33 -11 60 15 24 25 34 55 17 55 -5 0 -17 -8 -26 -19 -21 -24 -104 -35 -155 -21 -43 11 -67 33 -76 72 -6 25 -3 29 31 45 22 10 41 21 44 24 3 3 34 16 68 29 35 13 79 34 98 47 19 12 41 23 48 23 15 0 40 -27 49 -52 4 -10 11 -18 17 -18 6 0 18 -7 26 -15 16 -15 69 -20 98 -9 23 9 1 34 -29 34 -12 0 -28 7 -35 15 -7 8 -18 15 -25 15 -7 0 -24 10 -39 21 -21 17 -26 27 -22 45 8 31 -14 31 -69 0z"/> <path d="M1630 8170 c-19 -16 -41 -30 -48 -30 -7 0 -30 -11 -52 -25 -22 -14 -46 -25 -53 -25 -8 0 -22 -9 -32 -20 -10 -11 -24 -20 -32 -20 -23 0 -73 -42 -73 -62 0 -24 10 -22 38 7 13 13 44 35 70 47 26 13 51 29 55 35 4 7 21 13 38 13 17 0 32 6 36 15 3 9 22 25 42 35 20 11 47 28 61 39 23 19 23 21 5 21 -11 -1 -36 -14 -55 -30z"/> <path d="M1014 7985 c-3 -8 -22 -19 -42 -26 -21 -6 -42 -16 -49 -21 -6 -5 -22 -6 -35 -3 -17 4 -29 0 -42 -14 -17 -19 -17 -21 -2 -27 24 -9 71 2 133 31 43 21 53 30 53 50 0 28 -8 33 -16 10z"/> <path d="M1285 7980 c-4 -6 -17 -16 -28 -21 -12 -5 -35 -18 -52 -29 -16 -10 -49 -29 -72 -41 -24 -13 -43 -28 -43 -36 0 -20 28 -16 39 6 6 10 31 25 56 32 25 7 45 17 45 22 0 4 21 17 46 27 25 11 44 25 42 32 -6 17 -25 21 -33 8z"/> <path d="M1053 7843 c-22 -8 -15 -32 7 -26 20 5 26 18 13 26 -5 2 -14 2 -20 0z"/> <path d="M980 7795 c-7 -8 -19 -15 -27 -15 -7 0 -16 -7 -19 -15 -4 -9 -19 -15 -35 -15 -32 0 -39 -14 -13 -24 9 -4 24 0 34 9 9 8 21 15 26 15 5 0 17 9 27 20 9 11 26 20 37 20 11 0 20 5 20 10 0 15 -36 12 -50 -5z"/> <path d="M831 7711 c-12 -12 -30 -21 -40 -21 -10 0 -21 -7 -25 -15 -3 -8 -14 -15 -24 -15 -11 0 -25 -7 -32 -15 -7 -8 -21 -15 -31 -15 -11 0 -19 -4 -19 -9 0 -5 -10 -12 -22 -15 -13 -3 -34 -15 -47 -26 -23 -20 -23 -21 -5 -35 25 -19 35 -19 41 3 4 15 110 92 127 92 10 0 101 64 104 73 8 19 -8 17 -27 -2z"/> <path d="M3103 7591 c-18 -10 -48 -30 -66 -44 -19 -14 -53 -36 -76 -49 -23 -13 -50 -28 -59 -33 -83 -49 -172 -95 -185 -95 -9 0 -20 -6 -24 -14 -4 -7 -44 -34 -88 -60 -44 -25 -87 -51 -95 -56 -8 -6 -25 -14 -37 -19 -11 -6 -24 -15 -28 -20 -3 -6 -14 -11 -24 -11 -9 0 -46 -20 -81 -45 -35 -25 -68 -45 -74 -45 -5 0 -17 -6 -25 -14 -9 -7 -61 -37 -116 -66 -55 -28 -113 -62 -130 -74 -16 -12 -37 -26 -45 -29 -8 -4 -28 -16 -45 -27 -16 -11 -44 -26 -61 -34 -17 -8 -35 -19 -39 -26 -4 -6 -7 -95 -7 -197 1 -208 -7 -187 87 -237 81 -44 137 -77 180 -105 22 -15 60 -37 85 -50 25 -12 59 -31 75 -42 17 -10 39 -23 50 -29 36 -19 109 -62 153 -91 24 -16 48 -29 54 -29 5 0 27 13 47 28 20 16 43 32 51 35 8 4 29 16 45 27 17 11 44 26 60 34 17 8 53 29 80 45 28 17 59 35 70 41 11 6 43 24 70 41 28 16 64 37 80 45 17 8 44 23 60 34 17 11 39 24 50 30 11 6 34 19 50 29 17 11 50 30 75 42 25 13 63 35 85 49 73 46 80 50 105 61 13 5 27 13 30 17 3 4 21 15 40 26 61 33 104 57 135 76 17 11 67 38 112 61 109 55 112 59 76 106 -16 21 -33 45 -36 53 -4 8 -16 29 -27 45 -11 17 -23 37 -27 45 -4 8 -32 58 -63 110 -31 52 -59 102 -63 110 -4 8 -16 29 -27 45 -11 17 -25 41 -31 55 -14 34 -58 90 -70 90 -5 0 -28 12 -52 27 -23 15 -56 35 -73 45 -18 9 -44 29 -60 43 -16 15 -41 29 -56 32 -15 3 -33 12 -39 19 -15 18 -37 17 -76 -5z m112 -95 c30 -11 41 -20 43 -38 3 -21 -6 -28 -59 -53 -50 -23 -65 -26 -78 -16 -9 6 -30 21 -48 32 -17 11 -34 26 -36 34 -8 20 24 43 68 48 22 2 47 4 55 5 8 1 33 -5 55 -12z m155 -91 c17 -9 30 -20 30 -26 0 -18 -54 -63 -108 -89 -28 -14 -51 -31 -52 -37 0 -18 39 -16 46 2 4 8 16 15 28 15 12 0 32 7 44 16 15 10 32 14 49 10 26 -7 83 -62 83 -81 0 -6 20 -41 44 -78 49 -75 86 -142 86 -158 0 -6 12 -26 26 -45 34 -44 27 -71 -28 -110 -39 -28 -186 -112 -248 -142 -14 -7 -36 -20 -50 -30 -14 -9 -41 -26 -59 -37 -19 -11 -42 -28 -53 -37 -10 -10 -26 -18 -37 -18 -10 0 -24 -7 -31 -15 -7 -8 -19 -15 -27 -15 -7 0 -24 -9 -36 -21 -12 -11 -38 -29 -57 -39 -100 -52 -135 -71 -149 -84 -9 -7 -47 -30 -86 -51 -38 -21 -100 -55 -136 -77 -38 -22 -73 -36 -82 -32 -9 3 -19 -2 -26 -14 -8 -15 -19 -19 -48 -17 -52 4 -66 11 -87 45 -24 42 -40 38 -33 -7 4 -21 3 -33 -1 -27 -4 5 -23 16 -41 24 -19 8 -49 26 -65 40 -17 15 -58 42 -91 60 -33 19 -74 44 -90 56 -17 13 -49 31 -71 41 -22 10 -56 35 -77 55 l-37 37 0 90 c0 81 2 90 20 96 11 3 20 12 20 19 0 7 -9 21 -20 31 -26 23 -25 40 2 59 32 23 59 20 83 -8 25 -30 112 -45 121 -21 5 11 17 13 49 8 35 -4 49 -1 74 16 17 12 31 27 31 32 0 15 -32 10 -51 -7 -27 -25 -142 -23 -177 3 -30 22 -35 42 -12 53 108 55 184 90 195 90 7 0 27 12 44 26 l31 26 32 -35 c33 -34 34 -34 113 -33 68 1 85 5 115 26 38 26 50 39 50 56 0 14 -73 -20 -91 -42 -17 -20 -43 -17 -99 12 -49 26 -76 56 -66 73 3 5 24 11 47 14 24 3 52 16 68 30 14 13 57 39 95 57 69 32 69 32 85 12 25 -32 74 -39 198 -28 47 4 92 33 93 59 0 22 -13 22 -34 -2 -36 -40 -164 -33 -198 11 -22 29 -22 37 0 44 17 6 193 89 222 106 8 4 21 11 28 14 7 4 33 -8 57 -25 39 -28 50 -31 117 -31 67 1 77 4 123 35 57 39 65 41 105 20z"/> <path d="M3136 7195 c-3 -8 -15 -15 -26 -15 -11 0 -23 -6 -26 -13 -2 -7 -25 -22 -49 -32 -25 -11 -45 -23 -45 -27 0 -14 49 -9 57 5 4 8 38 28 76 45 37 18 67 36 67 42 0 16 -47 12 -54 -5z"/> <path d="M2940 7080 c0 -5 9 -10 20 -10 11 0 20 5 20 10 0 6 -9 10 -20 10 -11 0 -20 -4 -20 -10z"/> <path d="M2810 7005 c-25 -13 -53 -27 -62 -31 -10 -3 -18 -13 -18 -21 0 -12 7 -10 34 6 18 12 43 21 55 21 11 0 21 5 21 11 0 7 8 18 18 25 28 22 0 15 -48 -11z"/> <path d="M2670 6925 c0 -8 -9 -15 -19 -15 -11 0 -23 -4 -26 -10 -10 -16 20 -12 54 8 36 20 40 32 11 32 -11 0 -20 -7 -20 -15z"/> <path d="M2565 6869 c-4 -5 -19 -15 -33 -21 l-27 -12 24 -4 c15 -2 28 2 33 12 5 9 18 16 28 16 11 0 20 5 20 10 0 13 -37 13 -45 -1z"/> <path d="M2452 6804 c-18 -8 -35 -21 -38 -29 -4 -8 -17 -15 -30 -15 -13 0 -24 -4 -24 -8 0 -5 -10 -14 -22 -21 -13 -6 -36 -20 -53 -31 -16 -11 -37 -23 -45 -26 -78 -31 -97 -54 -61 -73 21 -12 31 -5 31 20 0 18 6 22 97 69 26 13 62 34 78 46 17 11 46 27 65 34 41 15 60 29 60 41 0 12 -19 10 -58 -7z"/> <path d="M6970 7475 c-14 -8 -35 -19 -47 -24 -13 -6 -23 -14 -23 -19 0 -4 -19 -18 -42 -30 -24 -12 -50 -26 -58 -31 -8 -5 -22 -12 -30 -15 -8 -4 -28 -15 -45 -26 -16 -11 -37 -23 -45 -26 -8 -4 -22 -13 -30 -19 -8 -7 -27 -15 -41 -19 -15 -3 -49 -21 -77 -40 -27 -19 -76 -48 -108 -64 -33 -16 -85 -43 -118 -60 -32 -18 -66 -32 -77 -32 -10 0 -23 -9 -29 -20 -5 -10 -49 -41 -96 -67 -48 -26 -104 -58 -127 -70 -22 -13 -48 -23 -57 -23 -9 0 -25 -10 -36 -21 -31 -35 -198 -132 -309 -180 -16 -7 -41 -23 -55 -35 -14 -12 -45 -33 -70 -46 -25 -13 -63 -36 -85 -50 l-40 -25 0 -192 c-1 -211 -3 -204 65 -235 19 -9 58 -29 85 -46 28 -16 57 -33 65 -37 8 -4 42 -23 75 -43 33 -20 92 -54 130 -74 39 -21 77 -45 86 -52 8 -8 19 -14 22 -14 4 0 26 -12 50 -27 56 -37 87 -53 100 -53 5 0 24 10 41 23 29 22 262 164 296 180 8 4 24 13 35 20 11 7 52 30 90 52 39 22 79 45 90 52 11 7 27 15 35 19 8 4 59 34 113 66 54 32 100 58 102 58 2 0 24 14 48 30 25 17 47 30 50 30 3 0 52 28 109 61 57 34 130 76 163 93 33 18 78 44 100 58 65 40 128 77 155 88 13 6 27 15 30 19 3 5 38 25 78 46 39 20 75 41 78 46 3 5 14 9 24 9 34 0 40 33 40 227 l0 188 -66 35 c-37 19 -94 54 -127 78 -34 23 -68 42 -77 42 -9 0 -21 5 -27 11 -13 13 -32 24 -100 59 -26 13 -77 44 -112 68 -105 73 -152 86 -201 57z m121 -82 c39 -20 45 -35 23 -68 -23 -35 -12 -42 26 -15 l31 22 22 -21 c13 -11 40 -27 62 -35 22 -7 68 -30 102 -49 34 -19 71 -38 82 -42 12 -3 24 -17 27 -29 4 -17 11 -22 28 -19 13 3 28 -2 35 -11 8 -9 24 -16 37 -16 12 0 26 -4 29 -10 8 -13 -25 -58 -47 -65 -25 -9 -22 -22 9 -37 41 -20 49 -40 34 -85 -9 -28 -10 -45 -2 -66 6 -16 11 -34 11 -42 0 -7 -35 -35 -77 -61 -43 -26 -89 -58 -104 -71 -14 -13 -30 -23 -35 -23 -6 0 -25 -11 -44 -25 -19 -14 -42 -25 -51 -25 -10 0 -22 -6 -26 -14 -11 -17 -47 -36 -71 -36 -11 0 -22 -9 -25 -20 -3 -12 -14 -20 -25 -20 -12 0 -24 -4 -27 -10 -3 -5 -15 -10 -25 -10 -10 0 -25 -6 -32 -14 -8 -7 -55 -37 -106 -65 -50 -29 -94 -56 -98 -62 -3 -5 -27 -20 -52 -33 -171 -87 -270 -146 -287 -172 -9 -13 -23 -24 -31 -24 -9 0 -28 -7 -42 -14 -15 -8 -47 -24 -72 -36 -59 -28 -120 -62 -156 -86 -54 -38 -180 -95 -196 -89 -11 4 -18 -1 -23 -14 -8 -26 -18 -26 -53 -2 -71 50 -156 102 -195 119 -23 11 -71 38 -107 61 -36 22 -76 46 -90 52 -14 6 -34 19 -45 29 -11 10 -30 21 -43 25 -49 14 -65 91 -49 239 10 96 14 110 35 124 21 14 27 13 58 -1 42 -21 74 -23 56 -5 -7 7 -12 27 -12 45 0 25 4 33 18 33 11 0 46 17 79 39 33 21 70 42 81 45 11 4 37 18 57 32 40 27 95 26 95 -2 0 -10 12 -14 41 -14 36 0 40 2 29 15 -7 8 -26 15 -42 15 -26 0 -29 3 -26 28 2 22 14 33 63 57 33 17 71 37 85 46 14 9 42 22 62 28 20 7 42 19 48 27 16 19 56 18 64 -1 9 -25 57 -37 118 -30 72 9 67 21 -11 27 -48 3 -64 9 -80 29 -28 33 -22 51 19 64 19 6 58 22 85 36 28 15 67 32 88 39 21 6 43 20 50 31 14 23 55 25 63 4 5 -13 54 -23 54 -10 0 2 -11 15 -25 29 -14 14 -25 29 -25 35 0 14 96 71 132 78 16 3 32 12 35 19 3 8 20 14 39 14 20 0 47 9 64 21 28 21 50 22 93 4 12 -5 17 -3 17 9 0 9 -6 16 -14 16 -20 0 -27 25 -12 46 31 41 131 50 197 17z"/> <path d="M7418 6952 c-31 -19 -36 -32 -13 -32 16 0 55 30 55 42 0 11 -11 9 -42 -10z"/> <path d="M7224 6835 c-4 -8 -14 -15 -23 -16 -9 0 -11 -3 -4 -5 15 -6 53 13 53 26 0 16 -20 12 -26 -5z"/> <path d="M6542 6729 c2 -7 10 -15 17 -17 8 -3 12 1 9 9 -2 7 -10 15 -17 17 -8 3 -12 -1 -9 -9z"/> <path d="M7020 6715 c-7 -8 -18 -15 -26 -15 -7 0 -16 -4 -19 -10 -3 -5 0 -10 8 -10 19 0 64 36 56 44 -3 4 -12 0 -19 -9z"/> <path d="M6800 6600 c0 -5 7 -10 15 -10 8 0 15 5 15 10 0 6 -7 10 -15 10 -8 0 -15 -4 -15 -10z"/> <path d="M5750 6540 c0 -5 6 -10 14 -10 8 0 18 5 21 10 3 6 -3 10 -14 10 -12 0 -21 -4 -21 -10z"/> <path d="M6203 6538 c2 -7 10 -13 17 -13 7 0 15 6 18 13 2 7 -5 12 -18 12 -13 0 -20 -5 -17 -12z"/> <path d="M6655 6510 c-3 -5 1 -10 9 -10 8 0 18 5 21 10 3 6 -1 10 -9 10 -8 0 -18 -4 -21 -10z"/> <path d="M6555 6450 c-3 -5 1 -10 9 -10 8 0 18 5 21 10 3 6 -1 10 -9 10 -8 0 -18 -4 -21 -10z"/> <path d="M6500 6420 c0 -5 6 -10 14 -10 8 0 18 5 21 10 3 6 -3 10 -14 10 -12 0 -21 -4 -21 -10z"/> <path d="M6445 6390 c-3 -5 3 -10 14 -10 11 0 23 5 26 10 3 6 -3 10 -14 10 -11 0 -23 -4 -26 -10z"/> <path d="M6180 6234 c0 -9 5 -14 12 -12 18 6 21 28 4 28 -9 0 -16 -7 -16 -16z"/> <path d="M6125 6210 c-3 -5 3 -10 14 -10 11 0 23 5 26 10 3 6 -3 10 -14 10 -11 0 -23 -4 -26 -10z"/> <path d="M6034 6146 c-10 -8 -15 -18 -11 -22 4 -4 17 2 30 14 24 25 12 30 -19 8z"/> <path d="M1232 6575 c-7 -8 -22 -15 -33 -15 -12 0 -40 -17 -64 -37 -23 -21 -68 -51 -99 -68 -32 -16 -68 -36 -80 -42 -13 -7 -41 -34 -62 -60 -21 -27 -45 -55 -53 -64 -30 -30 -126 -142 -146 -169 -11 -15 -33 -40 -50 -57 -16 -17 -41 -43 -55 -59 -49 -57 -96 -112 -135 -159 -22 -26 -75 -84 -117 -129 -43 -45 -77 -88 -78 -96 0 -9 30 -29 73 -50 39 -19 74 -38 77 -42 3 -4 17 -12 30 -18 14 -5 39 -19 55 -30 17 -11 39 -24 50 -30 42 -23 67 -38 78 -49 6 -6 17 -11 23 -11 7 0 32 -12 56 -27 69 -45 82 -52 103 -63 11 -6 34 -19 50 -30 48 -31 75 -40 101 -34 13 3 24 9 24 13 0 4 10 13 23 20 12 6 36 20 52 31 17 11 39 24 50 30 11 6 34 19 50 29 17 11 53 32 80 47 89 49 100 55 130 74 17 11 39 24 50 30 11 6 34 19 50 30 17 11 39 24 51 29 11 5 50 27 85 48 35 22 71 42 79 46 8 4 29 16 45 27 17 11 44 26 60 34 17 9 57 30 90 48 l60 33 3 203 2 202 -34 17 c-18 10 -59 31 -89 46 -31 15 -66 39 -79 52 -13 14 -26 25 -29 25 -11 0 -92 40 -124 60 -16 10 -50 29 -75 42 -25 13 -51 29 -58 36 -7 6 -17 12 -22 12 -5 0 -24 14 -42 30 -18 17 -42 30 -54 30 -12 0 -27 7 -34 15 -16 19 -51 19 -68 0z m101 -106 c49 -13 49 -40 1 -68 -37 -22 -83 -21 -129 2 -89 45 12 98 128 66z m124 -98 c7 -12 28 -20 59 -24 28 -3 53 -12 60 -22 15 -20 82 -55 105 -55 32 0 39 -23 14 -54 -22 -27 -26 -28 -92 -24 -50 2 -77 9 -99 25 -33 24 -44 21 -44 -8 0 -27 36 -56 86 -68 50 -13 59 -12 59 9 0 11 16 14 68 15 61 0 71 3 87 25 17 23 20 23 37 9 10 -9 26 -19 36 -22 24 -9 21 -19 -14 -47 -17 -14 -38 -32 -48 -41 -10 -8 -25 -18 -34 -22 -9 -3 -17 -11 -17 -17 0 -13 33 -13 47 1 6 6 21 9 34 7 23 -3 24 -6 25 -89 l0 -85 -33 -25 c-19 -13 -50 -36 -70 -51 -20 -16 -42 -28 -49 -28 -7 0 -25 -10 -41 -22 -15 -13 -44 -32 -63 -42 -19 -10 -44 -26 -55 -35 -31 -26 -72 -44 -83 -37 -6 3 -13 20 -17 36 -6 25 -1 35 27 63 18 18 56 62 83 98 28 35 81 94 119 132 70 68 73 81 15 50 -40 -21 -72 -53 -159 -153 -36 -41 -74 -84 -85 -96 -11 -11 -31 -33 -44 -50 -67 -81 -93 -109 -217 -235 -147 -149 -174 -169 -199 -149 -8 7 -15 20 -15 28 0 15 -2 15 -17 0 -15 -15 -19 -16 -47 -1 -17 8 -40 23 -51 33 -36 30 -134 80 -148 74 -10 -4 -13 3 -10 28 3 29 2 30 -7 11 -11 -28 -25 -29 -42 -4 -7 10 -41 32 -74 50 -68 35 -91 56 -94 86 -4 34 -1 40 45 94 25 29 45 58 45 64 0 7 20 28 45 47 24 19 44 41 45 48 0 19 42 72 52 66 9 -6 47 34 48 51 1 14 86 105 98 105 6 0 19 15 29 33 11 17 41 55 66 83 26 29 47 55 47 60 0 14 33 44 49 44 9 0 34 9 55 19 l38 20 39 -25 c30 -18 52 -24 98 -24 33 0 63 5 66 10 4 6 15 8 24 5 10 -3 32 5 52 19 42 30 51 31 66 7z m-57 -711 c0 -11 -7 -20 -15 -20 -15 0 -21 21 -8 33 12 13 23 7 23 -13z"/> <path d="M7965 6547 c-27 -12 -60 -32 -74 -45 -14 -13 -35 -28 -46 -33 -11 -5 -27 -13 -35 -18 -80 -50 -173 -101 -184 -101 -7 0 -31 -13 -52 -28 -39 -28 -176 -112 -204 -125 -8 -4 -35 -18 -59 -32 -24 -14 -48 -25 -53 -25 -5 0 -26 -13 -46 -29 -20 -16 -55 -39 -77 -51 -22 -12 -53 -30 -70 -40 -46 -29 -110 -60 -123 -60 -6 0 -26 -13 -44 -28 -18 -16 -40 -32 -48 -35 -8 -4 -28 -16 -45 -26 -32 -21 -61 -37 -169 -95 -38 -20 -83 -47 -100 -59 -39 -28 -58 -39 -126 -72 -30 -15 -59 -34 -63 -42 -10 -17 -12 -377 -3 -392 4 -6 30 -22 59 -37 78 -41 119 -63 152 -85 17 -10 37 -22 45 -26 8 -3 26 -15 39 -25 34 -26 52 -23 104 17 25 19 49 35 53 35 6 0 131 72 174 100 8 6 24 15 35 20 11 6 34 19 50 29 17 11 50 30 75 42 25 13 61 34 80 47 19 13 44 28 55 33 11 6 29 15 40 22 11 7 52 30 90 52 39 22 79 45 90 52 11 7 29 17 40 23 11 6 34 19 50 30 17 11 39 24 51 29 11 5 50 27 85 48 35 22 71 42 79 46 8 4 29 16 45 27 17 11 37 23 45 27 18 8 158 89 180 103 8 6 24 15 35 20 11 6 47 26 80 45 33 19 84 46 112 61 29 14 55 29 58 35 4 5 7 95 8 201 l1 192 -44 23 c-92 49 -135 77 -157 104 -14 16 -47 35 -82 47 l-58 20 -48 -21z m94 -88 c62 -13 76 -28 60 -63 -12 -25 -16 -26 -91 -26 -65 0 -81 3 -98 20 -35 35 -26 57 28 68 26 5 48 10 49 11 1 0 24 -4 52 -10z m-171 -99 c13 -15 36 -23 87 -29 39 -5 75 -5 81 0 5 4 19 6 30 3 13 -3 36 4 59 20 21 14 42 26 47 26 15 0 68 -30 68 -38 -1 -21 -87 -89 -150 -120 -53 -26 -115 -66 -123 -78 -4 -8 -14 -14 -22 -14 -18 0 -135 -70 -135 -81 0 -5 -11 -9 -24 -9 -14 0 -27 -4 -31 -9 -3 -6 -27 -20 -53 -33 -26 -13 -49 -25 -52 -28 -3 -3 -16 -11 -30 -18 -82 -42 -83 -43 -67 -59 13 -14 20 -12 64 18 26 19 68 44 93 57 82 42 100 53 100 63 0 6 8 8 19 4 12 -4 35 8 70 36 29 22 68 47 88 55 20 9 64 32 98 53 34 21 76 41 93 44 30 6 32 4 41 -31 24 -89 -32 -221 -92 -214 -15 1 -27 -4 -31 -13 -3 -8 -12 -15 -20 -15 -8 0 -19 -6 -23 -13 -10 -16 -59 -47 -74 -47 -7 0 -27 -11 -45 -25 -18 -14 -38 -25 -44 -25 -6 0 -23 -8 -38 -18 -48 -32 -66 -42 -108 -62 -23 -11 -47 -27 -54 -35 -7 -8 -17 -15 -22 -15 -5 0 -65 -34 -133 -75 -68 -41 -128 -75 -132 -75 -4 -1 -24 -14 -43 -30 -19 -17 -39 -30 -45 -30 -6 0 -35 -13 -65 -30 -30 -16 -66 -35 -80 -42 -14 -7 -43 -25 -64 -40 -21 -16 -46 -28 -54 -28 -8 0 -30 -13 -48 -30 -19 -16 -52 -34 -74 -40 -21 -6 -45 -18 -52 -28 -34 -45 -166 -90 -183 -62 -11 18 -25 11 -25 -13 0 -13 -6 -31 -13 -42 -13 -17 -16 -17 -47 -1 -18 9 -37 16 -41 16 -4 0 -32 21 -61 48 -103 93 -95 79 -94 171 1 84 3 89 44 107 2 1 -6 17 -17 35 -12 19 -21 37 -21 40 0 3 18 17 40 31 l39 26 19 -33 20 -32 98 2 c112 2 127 6 142 41 9 19 9 24 -2 24 -7 0 -20 -9 -27 -20 -13 -17 -22 -19 -97 -13 -73 5 -85 9 -99 29 -18 28 -12 40 30 59 18 8 59 30 92 49 33 20 70 36 83 36 12 0 22 4 22 10 0 5 9 14 20 20 17 9 26 7 49 -13 16 -13 50 -30 76 -37 40 -11 51 -11 81 3 19 10 45 17 58 17 24 0 76 41 76 60 0 16 -27 12 -34 -5 -3 -8 -13 -15 -23 -15 -10 0 -31 -7 -47 -15 -15 -8 -35 -15 -42 -15 -27 0 -114 50 -114 65 0 8 0 18 0 22 -1 4 19 12 44 18 25 7 72 28 105 48 32 21 66 37 73 37 8 0 23 9 33 20 18 19 18 19 48 -10 25 -25 40 -30 81 -32 121 -4 196 16 196 52 0 24 -8 25 -34 5 -13 -10 -43 -15 -90 -15 -61 1 -75 4 -98 25 -16 13 -28 28 -28 34 0 10 90 55 185 92 33 13 67 29 76 36 21 17 34 16 50 -3 7 -9 22 -14 36 -11 14 3 27 -2 32 -10 13 -24 108 -21 164 6 26 12 47 29 47 37 0 20 -23 17 -53 -6 -29 -23 -84 -26 -112 -6 -11 7 -32 16 -46 19 -29 7 -46 46 -26 59 7 4 37 17 67 29 30 11 62 27 70 34 8 7 34 18 56 24 23 6 47 18 54 26 17 21 39 19 58 -5z"/> <path d="M7514 5875 c-4 -8 -14 -15 -24 -15 -11 0 -21 -4 -25 -9 -3 -6 -18 -16 -33 -24 -98 -50 -169 -91 -178 -103 -6 -8 -18 -14 -27 -14 -9 0 -18 -4 -22 -9 -5 -10 -12 -14 -112 -65 -29 -15 -55 -31 -58 -36 -3 -6 -15 -10 -26 -10 -10 0 -19 -4 -19 -9 0 -5 -10 -13 -22 -17 -12 -3 -28 -13 -36 -20 -7 -8 -19 -14 -27 -14 -7 0 -15 -7 -19 -15 -3 -8 -14 -15 -24 -15 -11 0 -25 -6 -31 -13 -6 -8 -29 -22 -51 -32 -22 -10 -40 -21 -40 -26 0 -4 -14 -10 -31 -14 -25 -6 -30 -11 -25 -28 3 -12 6 -33 6 -46 0 -31 17 -16 22 18 2 17 18 32 58 54 30 16 58 35 63 42 4 8 22 17 40 20 17 4 39 13 47 20 8 7 51 32 95 55 44 23 85 47 90 53 6 7 36 25 68 40 31 15 63 37 70 47 7 12 23 20 39 20 16 0 28 4 28 9 0 5 28 23 63 41 85 43 180 103 185 118 6 18 -38 15 -44 -3z"/> <path d="M3881 6337 c-25 -12 -56 -33 -70 -46 -14 -13 -35 -27 -46 -32 -11 -5 -33 -18 -50 -29 -16 -11 -39 -24 -50 -30 -42 -23 -67 -38 -78 -49 -6 -6 -21 -11 -33 -11 -12 0 -44 -16 -70 -36 -46 -36 -95 -67 -124 -81 -8 -4 -37 -20 -64 -36 -27 -16 -68 -36 -90 -44 -23 -9 -54 -28 -71 -42 -16 -15 -49 -37 -71 -49 -23 -12 -52 -28 -65 -35 -13 -7 -43 -25 -66 -40 -24 -15 -52 -27 -62 -27 -11 0 -35 -13 -53 -28 -18 -16 -55 -42 -83 -58 -27 -16 -59 -34 -70 -41 -11 -7 -27 -15 -35 -19 -8 -4 -22 -12 -30 -19 -8 -6 -37 -20 -65 -30 -27 -9 -63 -30 -80 -45 -16 -15 -37 -30 -45 -34 -8 -3 -28 -15 -45 -26 -16 -11 -39 -24 -50 -29 -11 -5 -37 -21 -58 -35 -21 -14 -48 -26 -61 -26 -13 0 -37 -12 -54 -27 -33 -31 -59 -49 -82 -60 -8 -4 -49 -27 -90 -51 -41 -24 -97 -53 -125 -64 -27 -10 -55 -28 -63 -39 -8 -11 -24 -24 -36 -30 -11 -5 -48 -25 -81 -44 -33 -19 -70 -39 -82 -44 -11 -6 -24 -15 -28 -20 -3 -6 -17 -11 -29 -11 -13 0 -52 -21 -88 -47 -35 -27 -91 -61 -124 -78 -32 -16 -62 -34 -67 -40 -4 -5 -6 -43 -5 -84 l3 -74 50 -28 c28 -16 59 -33 70 -39 11 -6 43 -24 70 -41 28 -16 64 -37 80 -45 17 -8 44 -23 60 -34 17 -11 37 -23 45 -27 18 -8 208 -118 230 -133 8 -6 24 -15 35 -20 11 -6 43 -24 70 -40 28 -17 64 -37 80 -45 17 -9 44 -24 60 -35 17 -11 39 -24 50 -30 11 -6 43 -24 70 -41 28 -16 64 -37 80 -45 17 -8 44 -23 60 -34 17 -11 37 -23 45 -27 8 -4 58 -32 110 -63 52 -31 102 -59 110 -63 8 -4 29 -16 45 -27 17 -11 37 -23 45 -27 8 -4 44 -24 79 -46 35 -21 74 -43 85 -48 12 -5 35 -18 51 -28 31 -20 83 -50 145 -84 19 -10 49 -27 65 -38 17 -10 37 -22 45 -26 8 -4 58 -32 110 -63 52 -31 102 -59 110 -63 8 -4 29 -16 45 -27 17 -11 39 -24 50 -30 11 -5 47 -26 80 -45 33 -19 69 -40 80 -45 22 -12 22 -12 144 -85 45 -27 95 -57 111 -67 27 -16 29 -15 81 18 30 18 65 38 78 44 13 6 35 19 50 29 14 10 49 31 76 45 28 15 64 36 80 46 17 10 50 30 75 43 25 14 61 34 80 46 19 11 44 25 55 31 11 6 34 19 50 30 17 11 37 23 45 27 18 8 158 89 180 103 8 6 24 15 35 20 11 6 34 19 50 30 17 11 44 26 60 34 17 8 53 29 80 45 28 17 59 35 70 41 11 6 43 24 70 41 28 16 64 37 80 45 17 8 44 23 60 34 17 11 39 24 50 30 11 6 34 19 50 30 17 11 39 24 51 29 11 5 50 27 85 48 35 22 71 43 79 47 8 4 24 12 35 19 11 7 52 30 90 52 39 22 79 45 90 52 11 7 29 17 40 23 11 6 34 19 50 30 17 11 37 23 45 27 8 4 47 25 85 48 39 22 77 44 85 48 8 4 29 16 45 27 17 11 44 26 60 34 17 8 53 29 80 45 28 17 59 35 70 41 11 6 34 19 50 29 37 24 112 65 188 104 l57 30 0 79 c0 72 -2 79 -22 88 -13 6 -39 20 -58 32 -19 11 -54 31 -77 43 -22 12 -54 34 -69 49 -16 14 -36 26 -46 26 -9 0 -49 19 -90 43 -40 24 -80 46 -88 50 -22 10 -50 28 -90 59 -20 14 -69 43 -110 63 -41 20 -88 45 -105 55 -16 11 -39 24 -50 30 -33 17 -58 34 -93 63 -18 15 -44 27 -57 27 -13 0 -27 5 -30 11 -4 5 -17 15 -28 20 -12 5 -35 18 -52 29 -16 11 -53 31 -81 44 -27 14 -61 37 -74 51 -13 14 -27 25 -30 25 -11 0 -89 37 -130 62 -19 11 -57 32 -83 47 -77 42 -81 45 -112 74 -17 15 -38 27 -48 27 -9 0 -36 11 -58 25 -22 14 -50 30 -62 36 -12 5 -35 18 -52 29 -16 11 -37 23 -45 27 -8 3 -31 18 -50 33 -19 14 -69 43 -110 64 -41 21 -88 46 -105 56 -16 10 -48 28 -69 40 -22 12 -56 35 -75 51 -20 16 -46 29 -58 29 -12 0 -25 5 -28 11 -4 5 -17 15 -28 20 -12 5 -44 23 -72 40 -27 16 -63 36 -80 44 -16 7 -41 24 -55 37 -31 29 -108 67 -135 67 -11 0 -40 -10 -64 -22z m136 -108 c30 -10 32 -13 21 -32 -16 -32 -27 -37 -89 -37 -48 0 -59 4 -84 30 -26 27 -27 30 -9 35 10 4 26 11 34 16 17 10 77 4 127 -12z m-190 -99 c29 -11 59 -17 68 -14 8 4 22 1 30 -6 19 -15 87 -3 173 32 30 12 35 11 46 -5 7 -9 23 -17 34 -17 12 0 47 -16 78 -36 30 -19 72 -41 92 -48 49 -17 47 -36 -8 -63 -47 -24 -99 -30 -116 -13 -6 6 -27 19 -48 29 l-37 19 3 -25 c5 -44 49 -67 132 -71 59 -3 81 0 114 17 44 22 77 27 86 12 4 -5 24 -12 46 -16 22 -4 43 -11 46 -16 3 -5 39 -26 80 -45 41 -20 74 -39 74 -43 0 -4 -6 -16 -14 -26 -11 -16 -29 -20 -88 -23 -63 -3 -76 -1 -97 17 -27 24 -37 26 -46 10 -9 -14 20 -44 63 -65 25 -12 37 -13 40 -5 2 6 11 11 19 11 8 0 13 -6 10 -12 -8 -23 92 -9 135 18 46 29 59 30 76 4 7 -11 20 -20 30 -20 9 0 28 -7 42 -15 14 -8 54 -29 90 -47 36 -17 68 -36 72 -42 9 -13 -10 -36 -29 -36 -7 0 -16 -7 -19 -15 -4 -9 -19 -15 -41 -15 -19 0 -41 7 -49 15 -9 8 -24 15 -33 15 -10 0 -24 7 -31 15 -19 23 -30 18 -30 -14 0 -34 11 -43 66 -59 50 -15 164 -16 164 -2 0 6 5 10 12 10 6 0 19 7 29 16 17 15 20 15 45 -5 15 -12 37 -21 50 -21 13 0 58 -18 100 -40 43 -22 83 -40 90 -40 24 0 24 -17 -1 -44 -21 -23 -32 -26 -87 -26 -47 0 -69 5 -88 20 -34 26 -52 25 -48 -2 4 -26 63 -60 91 -52 11 4 24 -2 32 -13 11 -14 16 -16 26 -5 7 6 33 12 57 12 28 0 54 7 73 21 l29 20 26 -20 c15 -12 32 -21 39 -21 6 0 50 -20 97 -45 48 -25 93 -45 102 -45 9 0 16 -7 16 -15 0 -15 -94 -66 -144 -79 -41 -10 -21 -26 32 -26 62 1 132 17 154 37 15 13 19 13 40 -1 12 -9 32 -16 43 -16 11 0 30 -7 41 -15 12 -8 53 -30 93 -50 39 -20 71 -39 71 -42 0 -4 -10 -17 -22 -30 -30 -32 -115 -32 -180 1 -49 25 -51 22 -25 -32 13 -27 61 -40 132 -37 28 1 62 3 76 4 15 0 37 12 50 26 30 31 37 31 49 0 8 -20 16 -25 44 -25 22 0 51 -12 85 -35 28 -19 57 -35 65 -35 26 0 66 -23 66 -37 0 -7 -15 -22 -32 -34 -40 -25 -107 -22 -167 8 l-41 20 0 -22 c0 -29 14 -40 74 -60 39 -13 53 -14 77 -5 16 7 38 10 49 7 12 -3 34 5 55 19 42 28 53 29 83 8 33 -23 27 -39 -24 -71 -25 -15 -66 -42 -92 -60 -26 -18 -69 -44 -97 -58 -27 -14 -63 -34 -80 -43 -16 -10 -61 -35 -100 -57 -38 -22 -79 -45 -90 -52 -11 -7 -27 -16 -35 -20 -8 -4 -53 -30 -100 -58 -86 -52 -136 -81 -265 -150 -38 -20 -72 -40 -75 -44 -6 -9 -58 -40 -133 -80 -31 -17 -76 -43 -100 -58 -48 -31 -78 -49 -232 -133 -60 -34 -150 -85 -200 -115 -49 -30 -96 -54 -102 -54 -7 -1 -13 -6 -13 -12 0 -5 -24 -21 -52 -35 -29 -14 -66 -34 -83 -44 -16 -11 -37 -23 -45 -27 -12 -5 -92 -51 -180 -103 -33 -20 -168 -95 -210 -118 -24 -13 -57 -33 -73 -44 -38 -27 -102 -63 -157 -89 -48 -22 -48 -22 -125 26 -22 14 -58 35 -79 48 -22 12 -65 36 -95 54 -31 17 -76 42 -101 54 -25 12 -47 25 -50 28 -3 4 -16 12 -30 19 -29 15 -48 26 -110 67 -25 16 -58 37 -75 46 -16 9 -57 31 -89 49 -33 18 -98 56 -145 85 -78 48 -309 175 -318 175 -5 0 -64 42 -81 57 -7 7 -17 13 -21 13 -5 0 -46 22 -92 50 -46 27 -106 61 -134 75 -27 14 -88 50 -135 80 -47 30 -110 67 -140 82 -99 52 -235 126 -247 135 -24 19 -326 198 -334 198 -4 0 -25 12 -46 26 -21 14 -51 32 -68 40 -38 18 -85 61 -85 78 0 7 9 21 19 30 18 16 21 16 68 -7 38 -19 62 -23 118 -22 101 3 116 9 140 56 17 33 10 62 -9 38 -6 -8 -27 -25 -47 -37 -51 -31 -111 -29 -154 4 -39 29 -37 50 7 59 33 8 53 18 115 58 24 15 56 27 73 27 19 0 30 5 30 14 0 22 20 30 33 13 17 -23 125 -49 149 -36 10 5 23 7 29 3 33 -20 119 28 119 66 0 25 -24 26 -47 1 -46 -48 -200 -25 -203 31 0 3 24 14 53 24 28 9 73 30 98 46 25 15 55 28 66 28 11 0 26 7 33 15 16 19 29 19 71 -2 50 -26 174 -30 215 -8 31 17 49 49 37 68 -3 5 -10 4 -16 -2 -6 -6 -20 -11 -30 -11 -11 0 -21 -9 -24 -21 -5 -18 -11 -20 -43 -15 -38 6 -120 52 -120 68 0 5 12 13 28 19 48 19 96 41 122 55 14 8 49 26 78 40 l52 26 34 -21 c34 -22 98 -24 139 -6 10 4 31 5 47 2 22 -5 36 0 60 19 16 14 30 34 30 45 0 18 -3 17 -40 -7 -35 -24 -47 -26 -111 -22 -56 3 -74 8 -85 23 -20 27 -14 35 34 52 23 7 69 29 101 48 33 19 65 35 72 35 7 0 21 7 31 16 17 16 21 15 69 -10 36 -18 66 -26 102 -26 57 0 157 36 157 56 0 7 3 19 6 28 4 11 1 16 -10 16 -9 0 -16 -3 -16 -8 0 -14 -64 -41 -112 -48 -42 -5 -51 -3 -73 17 -37 36 -32 54 23 74 26 10 51 24 55 32 4 7 16 13 25 13 9 0 26 7 36 15 11 8 32 15 47 15 15 0 29 7 33 15 7 20 45 19 68 -1 14 -13 39 -17 114 -17 93 -1 98 0 120 27 43 49 26 77 -19 32 -24 -24 -49 -26 -152 -11 -49 8 -72 65 -26 65 25 0 82 24 140 60 26 17 54 30 61 30 8 0 22 7 32 17 17 15 21 14 69 -12 44 -24 59 -27 118 -23 47 2 73 9 85 21 10 9 23 17 30 17 6 0 17 14 23 30 6 17 9 30 7 30 -3 0 -32 -14 -65 -31 -51 -25 -68 -29 -101 -24 -43 8 -78 31 -78 52 0 7 17 21 38 32 20 10 68 35 106 55 39 20 78 36 87 36 10 0 21 5 24 10 8 12 1 13 62 -10z"/> <path d="M4060 5795 c-21 -23 -31 -25 -108 -25 -69 0 -88 4 -109 20 -30 24 -43 25 -43 6 0 -8 17 -28 37 -43 31 -24 45 -28 92 -26 132 5 125 3 149 41 28 43 15 62 -18 27z"/> <path d="M3713 5598 c-18 -11 -33 -24 -33 -29 0 -5 -24 -9 -53 -9 -37 0 -66 7 -101 26 -26 14 -50 23 -53 20 -10 -10 7 -56 21 -56 8 0 27 -7 42 -15 44 -22 150 -20 175 4 18 17 49 66 49 77 0 8 -16 2 -47 -18z"/> <path d="M4135 5610 c-9 -14 11 -45 42 -65 32 -21 157 -32 168 -15 3 5 14 10 24 10 25 0 48 21 55 53 5 20 3 27 -8 27 -8 0 -16 -7 -20 -15 -3 -8 -12 -15 -19 -15 -8 0 -28 -7 -46 -16 -28 -14 -39 -14 -79 -4 -26 7 -59 21 -74 31 -31 22 -35 23 -43 9z"/> <path d="M3121 5422 c0 -9 8 -30 18 -47 14 -24 25 -30 52 -30 19 -1 41 -4 49 -7 33 -14 69 -18 75 -8 3 5 19 10 35 10 32 0 60 23 60 49 0 28 -12 33 -34 12 -47 -42 -175 -36 -225 10 -24 22 -31 24 -30 11z"/> <path d="M4065 5418 c-11 -7 -24 -17 -30 -24 -5 -6 -40 -14 -77 -17 -59 -5 -70 -4 -103 18 -51 35 -65 32 -49 -10 8 -20 69 -46 89 -38 9 3 22 0 30 -7 22 -18 135 -3 135 18 0 8 7 23 16 33 22 24 15 41 -11 27z"/> <path d="M4721 5400 c-19 -16 -38 -20 -107 -20 -66 0 -86 3 -90 15 -7 16 -44 21 -44 6 0 -6 10 -21 23 -34 23 -26 92 -43 103 -26 3 6 19 7 34 4 49 -11 99 4 115 35 22 42 5 52 -34 20z"/> <path d="M4401 5223 c-10 -19 -95 -53 -132 -53 -24 0 -91 31 -105 49 -14 18 -35 5 -27 -17 4 -9 17 -28 30 -42 20 -22 33 -25 101 -28 65 -3 83 -1 114 17 21 13 39 33 43 48 8 33 -9 52 -24 26z"/> <path d="M2780 5216 c0 -18 46 -64 78 -77 71 -28 205 6 218 56 3 14 4 28 1 31 -2 3 -25 -9 -50 -26 -35 -23 -56 -30 -95 -30 -28 0 -54 5 -57 10 -4 6 -23 18 -43 27 -20 9 -40 19 -44 21 -5 2 -8 -3 -8 -12z"/> <path d="M3466 5215 c-15 -41 40 -75 134 -82 51 -4 68 -2 78 10 7 8 21 13 32 10 15 -4 21 2 26 23 4 16 11 35 17 42 13 17 -12 16 -32 -1 -22 -19 -97 -47 -125 -47 -13 0 -29 7 -36 15 -7 8 -23 15 -35 15 -13 0 -25 7 -29 15 -7 19 -22 19 -30 0z"/> <path d="M5490 5212 c0 -30 33 -54 64 -46 33 8 43 22 19 30 -15 5 -49 19 -75 32 -5 2 -8 -5 -8 -16z"/> <path d="M4820 5200 c0 -26 39 -51 98 -62 63 -12 156 16 172 51 6 13 8 26 6 29 -5 5 -41 -7 -103 -34 -41 -18 -45 -18 -105 11 -62 30 -68 31 -68 5z"/> <path d="M2705 5017 c-39 -29 -90 -46 -107 -36 -7 5 -28 9 -46 9 -19 0 -45 9 -60 20 -34 27 -53 11 -32 -27 11 -20 28 -30 70 -39 52 -13 139 -18 113 -7 -24 9 -13 22 15 18 33 -6 85 35 80 64 -3 19 -4 19 -33 -2z"/> <path d="M3122 5014 c5 -47 41 -63 144 -66 98 -3 118 4 135 50 13 34 5 38 -27 13 -22 -17 -40 -21 -103 -21 -66 0 -82 4 -114 26 l-38 26 3 -28z"/> <path d="M4050 5014 c-48 -34 -166 -35 -210 -2 -36 26 -50 17 -29 -20 19 -34 57 -54 80 -42 9 5 45 7 80 4 57 -4 67 -2 92 19 18 15 28 32 25 45 -3 19 -4 19 -38 -4z"/> <path d="M4470 5022 c0 -9 11 -29 24 -43 23 -24 28 -26 132 -25 106 1 109 2 123 27 8 14 11 34 8 43 -6 16 -10 15 -38 -8 -27 -23 -40 -26 -103 -26 -61 0 -77 4 -106 25 -40 30 -40 30 -40 7z"/> <path d="M5155 5030 c-4 -6 -4 -21 -1 -33 7 -28 82 -65 99 -48 7 7 36 8 81 5 71 -6 71 -6 89 24 9 17 17 37 17 47 0 13 -6 11 -33 -9 -30 -23 -44 -26 -112 -26 -71 0 -82 3 -106 26 -18 17 -29 22 -34 14z"/> <path d="M4136 4842 c-14 -23 6 -59 41 -76 52 -25 149 -33 171 -14 9 9 27 19 40 23 13 4 27 18 33 32 12 33 0 52 -18 27 -14 -20 -89 -43 -141 -44 -36 0 -90 24 -108 48 -7 10 -13 12 -18 4z"/> <path d="M5485 4841 c-11 -19 5 -51 36 -66 16 -9 29 -20 29 -25 0 -6 27 -10 59 -10 93 0 190 60 165 102 -4 5 -13 3 -22 -5 -37 -31 -111 -59 -142 -52 -16 4 -32 11 -35 16 -4 5 -15 9 -25 9 -11 0 -28 9 -39 21 -12 13 -21 17 -26 10z"/> <path d="M2355 4815 c-16 -14 -46 -28 -65 -31 -19 -4 -43 -11 -52 -15 -12 -6 -25 -2 -45 15 -27 22 -66 46 -76 46 -3 0 -2 -12 2 -27 5 -18 20 -34 42 -45 37 -19 104 -24 114 -8 4 6 15 5 30 -2 19 -9 28 -7 51 11 33 26 61 81 41 81 -7 -1 -25 -12 -42 -25z"/> <path d="M2786 4818 c9 -33 24 -48 44 -48 10 0 23 -7 30 -15 15 -18 125 -21 136 -4 12 20 -16 34 -69 34 -39 0 -62 7 -94 28 -52 33 -56 33 -47 5z"/> <path d="M3045 4829 c-5 -5 -19 -16 -30 -24 -19 -13 -19 -15 -3 -31 9 -9 21 -13 26 -10 9 6 42 63 42 73 0 7 -26 1 -35 -8z"/> <path d="M3470 4815 c0 -13 12 -35 27 -49 23 -22 35 -25 102 -24 43 1 83 7 91 13 8 7 21 14 28 17 8 2 20 18 28 36 11 27 11 32 -1 32 -8 0 -16 -4 -20 -9 -13 -22 -72 -41 -123 -41 -43 0 -62 5 -88 25 -41 31 -44 31 -44 0z"/> <path d="M5070 4825 c-14 -7 -43 -20 -65 -29 -38 -15 -43 -15 -109 9 -38 13 -73 22 -77 19 -16 -10 13 -50 50 -66 46 -22 130 -23 157 -3 10 8 27 15 37 15 16 0 41 43 35 61 -2 4 -14 2 -28 -6z"/> <path d="M3116 4651 c-3 -4 3 -23 12 -42 14 -28 26 -36 67 -47 57 -15 152 -10 183 9 20 13 38 56 28 67 -3 3 -15 -3 -26 -13 -47 -43 -179 -40 -229 6 -17 15 -33 24 -35 20z"/> <path d="M1770 4636 c0 -9 7 -27 15 -40 14 -21 23 -23 108 -25 51 0 100 -2 111 -3 24 -4 64 48 49 63 -8 8 -15 4 -27 -13 -15 -21 -22 -23 -102 -20 -75 2 -90 6 -120 28 -28 22 -34 23 -34 10z"/> <path d="M5412 4635 c-13 -7 -29 -18 -35 -24 -6 -6 -43 -11 -81 -11 -54 0 -78 5 -101 20 -36 24 -45 25 -45 6 0 -32 44 -64 93 -69 26 -2 50 0 53 5 4 6 24 7 47 4 36 -6 42 -4 68 25 16 18 29 39 29 46 0 7 -1 13 -2 12 -2 -1 -14 -7 -26 -14z"/> <path d="M2454 4626 c-3 -9 1 -27 9 -40 19 -28 87 -39 181 -29 62 6 85 21 86 56 0 21 -18 22 -41 1 -25 -23 -160 -25 -186 -3 -32 28 -43 31 -49 15z"/> <path d="M3800 4630 c0 -6 9 -23 20 -39 20 -27 24 -27 125 -29 l104 -1 21 36 c11 19 19 38 16 40 -3 3 -20 -4 -39 -16 -47 -29 -159 -30 -202 -1 -34 22 -45 25 -45 10z"/> <path d="M4475 4630 c-8 -13 54 -80 74 -80 9 0 23 6 29 12 10 10 17 10 33 0 45 -29 149 14 149 60 0 24 -18 23 -45 -2 -29 -27 -153 -33 -181 -9 -25 21 -52 30 -59 19z"/> <path d="M5820 4626 c0 -8 14 -26 31 -40 28 -24 35 -25 118 -22 93 4 131 21 131 58 0 17 -2 17 -37 -2 -52 -28 -156 -28 -198 0 -36 24 -45 25 -45 6z"/> <path d="M2785 4447 c-10 -23 18 -63 57 -83 48 -25 170 -15 203 16 14 13 25 35 25 48 0 24 -1 24 -18 9 -10 -10 -26 -17 -34 -17 -9 0 -21 -7 -28 -15 -29 -34 -143 -10 -182 39 -15 19 -17 19 -23 3z"/> <path d="M2100 4442 c0 -5 14 -22 30 -39 31 -32 96 -53 160 -53 32 0 106 62 96 79 -7 11 -76 -17 -76 -31 0 -25 -149 3 -176 33 -18 20 -34 25 -34 11z"/> <path d="M3450 4446 c0 -10 27 -54 45 -71 25 -25 156 -35 182 -14 8 7 25 18 37 24 23 12 38 62 14 52 -140 -61 -168 -68 -168 -42 0 8 -6 15 -13 15 -7 0 -30 9 -52 20 -41 21 -45 22 -45 16z"/> <path d="M4135 4440 c-10 -16 3 -47 23 -54 9 -4 28 -13 42 -21 15 -9 51 -15 88 -15 53 0 69 4 98 26 63 48 37 71 -38 33 -26 -13 -52 -19 -72 -16 -40 6 -99 29 -119 45 -10 9 -17 10 -22 2z"/> <path d="M4800 4447 c0 -20 38 -69 62 -82 74 -36 220 0 226 58 4 28 -15 38 -24 12 -4 -8 -14 -15 -24 -15 -9 0 -30 -6 -46 -14 -52 -26 -83 -30 -90 -12 -3 9 -14 16 -24 16 -9 0 -25 9 -35 20 -15 17 -45 28 -45 17z"/> <path d="M5484 4434 c3 -9 6 -20 6 -25 0 -17 63 -37 125 -41 48 -2 60 0 60 12 0 10 -11 15 -35 15 -38 0 -130 33 -130 46 0 5 -7 9 -16 9 -11 0 -14 -5 -10 -16z"/> <path d="M5727 4426 c-29 -14 -35 -21 -25 -27 30 -20 74 2 66 33 -2 10 -12 9 -41 -6z"/> <path d="M3120 4233 c1 -45 59 -77 104 -58 11 5 26 4 36 -3 13 -8 21 -7 29 1 9 9 16 9 30 0 36 -23 113 39 84 68 -6 6 -20 2 -35 -11 -21 -16 -41 -20 -100 -20 -62 0 -79 4 -111 25 l-37 26 0 -28z"/> <path d="M4055 4236 c-16 -13 -41 -26 -55 -29 -37 -9 -149 9 -170 28 -23 21 -34 5 -19 -29 13 -27 57 -47 87 -39 11 2 35 1 53 -5 45 -12 116 18 130 55 15 39 7 45 -26 19z"/> <path d="M4470 4238 c1 -13 9 -33 19 -45 18 -21 28 -23 124 -23 88 0 106 3 120 18 19 21 23 52 7 52 -6 0 -21 -7 -34 -15 -31 -21 -150 -23 -174 -4 -9 8 -27 20 -39 27 -21 11 -23 10 -23 -10z"/> <path d="M5405 4235 c-26 -21 -40 -24 -111 -25 -68 0 -84 3 -99 20 -41 45 -62 11 -22 -35 24 -29 38 -31 134 -22 67 6 89 14 117 45 28 32 14 45 -19 17z"/> <path d="M2691 4230 c-13 -11 -33 -20 -45 -20 -32 0 -39 -11 -18 -26 23 -18 82 -18 82 0 0 7 7 19 15 26 18 15 20 40 3 40 -7 -1 -24 -10 -37 -20z"/> <path d="M2450 4228 c0 -26 18 -40 58 -45 50 -7 84 3 62 17 -8 6 -27 10 -41 10 -15 0 -32 7 -39 15 -15 18 -40 20 -40 3z"/> <path d="M3045 4050 c-10 -11 -24 -20 -30 -20 -7 0 -19 -7 -26 -16 -10 -12 -26 -15 -67 -12 -49 4 -53 3 -50 -16 2 -17 11 -22 43 -24 54 -5 121 16 138 42 32 51 27 84 -8 46z"/> <path d="M2780 4051 c0 -6 11 -23 24 -38 20 -23 27 -26 38 -15 10 10 7 17 -17 37 -32 26 -45 31 -45 16z"/> <path d="M4134 4038 c3 -13 6 -29 6 -35 0 -7 8 -13 19 -13 10 0 35 -7 54 -15 44 -18 89 -19 136 -2 46 15 71 37 71 59 0 24 -13 23 -72 -7 -27 -14 -58 -25 -69 -25 -24 0 -119 41 -119 52 0 4 -7 8 -16 8 -12 0 -15 -6 -10 -22z"/> <path d="M3470 4025 c0 -40 41 -59 130 -60 83 0 124 17 139 58 12 30 0 32 -44 7 -61 -34 -112 -36 -168 -6 -26 14 -50 26 -53 26 -2 0 -4 -11 -4 -25z"/> <path d="M4819 4023 c4 -16 16 -29 27 -32 10 -1 27 -10 37 -19 15 -13 23 -14 51 -4 18 7 46 12 64 12 45 0 79 16 87 40 10 32 2 33 -50 5 -53 -28 -100 -32 -130 -12 -11 8 -29 16 -40 19 -11 3 -28 9 -37 13 -14 6 -16 2 -9 -22z"/> <path d="M3120 3857 c0 -43 47 -81 87 -71 11 3 27 -2 37 -11 34 -34 166 19 166 67 0 23 -26 23 -39 1 -8 -15 -27 -19 -98 -21 -85 -4 -91 -2 -121 23 -23 19 -32 23 -32 12z"/> <path d="M4060 3851 c-14 -9 -26 -19 -28 -23 -2 -5 -41 -8 -86 -8 -68 0 -88 4 -109 20 -31 25 -37 25 -37 2 0 -38 44 -64 119 -70 82 -5 122 7 152 49 26 37 21 51 -11 30z"/> <path d="M4470 3847 c0 -14 36 -57 48 -58 144 -11 169 -9 205 19 37 27 48 52 24 52 -8 0 -22 -9 -32 -20 -26 -29 -156 -29 -200 0 -35 23 -45 25 -45 7z"/> <path d="M4405 3669 c-6 -9 -20 -21 -32 -28 -30 -15 -29 -31 1 -31 30 0 49 22 44 52 -3 20 -5 21 -13 7z"/> <path d="M4135 3643 c7 -28 21 -43 41 -43 6 0 17 -6 23 -14 14 -16 126 -17 126 -1 -1 6 -22 15 -47 20 -26 6 -53 16 -60 23 -6 6 -20 12 -30 12 -10 0 -21 7 -24 15 -4 8 -13 15 -21 15 -12 0 -14 -7 -8 -27z"/> <path d="M3460 3652 c0 -23 34 -52 68 -57 20 -4 58 -11 84 -17 44 -11 49 -10 87 16 76 53 61 79 -25 41 -56 -25 -134 -34 -134 -15 0 5 -16 17 -36 25 -42 17 -44 18 -44 7z"/> <path d="M3800 3450 c0 -36 44 -53 142 -55 80 -1 92 2 114 22 24 22 32 53 14 53 -5 0 -19 -9 -30 -20 -17 -17 -33 -20 -103 -20 -71 0 -87 3 -102 20 -23 25 -35 25 -35 0z"/> <path d="M7937 5290 c-20 -11 -43 -20 -50 -20 -7 0 -25 -13 -40 -28 -15 -16 -47 -39 -70 -51 -23 -12 -55 -31 -72 -41 -16 -11 -40 -24 -52 -29 -11 -5 -24 -15 -28 -20 -3 -6 -17 -11 -30 -11 -13 0 -45 -16 -71 -36 -51 -39 -97 -68 -131 -83 -11 -5 -24 -15 -28 -20 -3 -6 -12 -11 -20 -11 -8 0 -31 -12 -52 -26 -21 -14 -50 -28 -64 -31 -15 -3 -39 -17 -55 -31 -31 -30 -35 -32 -126 -81 -35 -18 -67 -37 -73 -42 -10 -10 -10 -382 0 -398 3 -6 29 -21 58 -36 28 -14 61 -31 72 -38 63 -39 105 -64 145 -85 25 -12 59 -32 75 -42 17 -11 39 -24 50 -30 11 -5 27 -14 35 -20 44 -29 172 -100 181 -100 5 0 12 -7 15 -15 4 -8 18 -15 34 -15 15 0 33 7 40 15 7 8 16 15 21 15 4 0 27 13 51 29 44 29 117 72 153 91 11 6 34 19 50 30 17 11 39 24 51 29 11 5 50 27 85 48 35 22 71 42 79 46 8 4 29 16 45 27 17 11 39 24 51 29 11 5 50 27 85 48 35 22 71 42 79 46 8 4 29 16 45 27 17 10 53 31 80 45 28 15 62 33 78 41 l27 15 -2 196 -3 196 -35 20 c-19 10 -53 29 -75 40 -22 12 -62 38 -90 59 -27 20 -63 40 -79 44 -16 4 -46 18 -65 32 -20 13 -45 28 -56 33 -11 5 -33 18 -50 29 -16 11 -37 23 -45 27 -8 3 -29 17 -46 30 -33 24 -120 73 -132 73 -4 0 -24 -9 -45 -20z m121 -106 c27 -19 28 -28 2 -54 -21 -21 -76 -26 -138 -14 -32 6 -60 48 -41 60 43 26 145 31 177 8z m-218 -94 c14 -11 36 -20 50 -20 14 0 34 -7 44 -15 11 -8 30 -15 43 -15 35 0 116 30 140 52 21 20 53 19 53 -1 0 -5 15 -12 34 -15 19 -4 45 -15 57 -25 13 -10 53 -30 89 -44 77 -31 86 -51 37 -84 -34 -24 -120 -32 -132 -14 -5 9 -62 41 -72 41 -1 0 -3 -13 -3 -29 0 -49 37 -65 136 -58 64 4 93 11 133 33 39 21 54 25 63 16 7 -7 20 -12 30 -12 10 0 18 -4 18 -8 0 -18 -88 -101 -113 -108 -17 -4 -27 -13 -27 -25 0 -24 5 -24 41 2 42 30 71 22 81 -21 12 -54 -1 -130 -26 -152 -111 -97 -154 -123 -187 -113 -12 4 -22 -1 -29 -15 -6 -12 -30 -29 -53 -39 -23 -10 -49 -26 -57 -36 -8 -10 -33 -26 -56 -36 -23 -9 -61 -30 -85 -46 -24 -15 -55 -34 -69 -41 -71 -37 -133 -76 -173 -109 -22 -18 -41 -23 -86 -23 -54 0 -57 -1 -68 -30 -14 -38 -28 -38 -88 3 -27 17 -60 39 -74 49 -14 9 -81 44 -149 78 -68 34 -135 74 -151 88 -15 15 -41 35 -57 44 -16 9 -31 25 -33 35 -1 10 -10 26 -18 35 -21 23 -10 147 13 165 12 9 13 16 4 33 -15 27 -9 70 10 83 11 6 30 3 63 -13 26 -12 54 -19 64 -16 9 4 35 -3 57 -15 l41 -21 44 23 c48 26 87 71 77 88 -5 7 -20 2 -45 -15 -21 -13 -53 -27 -72 -30 -46 -7 -118 16 -137 44 -14 21 -13 23 39 47 30 14 60 25 68 25 7 0 26 11 43 25 17 14 42 25 59 25 17 0 32 6 35 15 8 21 30 19 65 -7 26 -20 45 -23 127 -26 110 -3 134 8 147 66 7 34 -4 42 -25 17 -7 -8 -17 -15 -23 -15 -6 0 -18 -7 -28 -16 -39 -36 -191 14 -174 57 3 8 26 21 50 28 25 7 64 27 86 43 35 25 48 29 80 24 37 -6 39 -5 39 19 0 30 16 32 50 5z"/> <path d="M7830 4745 c0 -27 32 -65 54 -65 12 0 27 -5 33 -11 12 -12 100 -2 109 12 3 5 18 9 34 9 31 0 60 22 60 46 0 19 -15 18 -47 -3 -40 -26 -150 -23 -196 6 -41 25 -47 26 -47 6z"/> <path d="M8261 4669 c-13 -11 -21 -22 -19 -25 3 -3 13 2 21 11 9 8 20 15 26 15 6 0 11 5 11 10 0 15 -12 12 -39 -11z"/> <path d="M8164 4615 c-10 -8 -27 -15 -36 -15 -10 0 -18 -4 -18 -10 0 -18 34 -10 65 15 32 26 22 35 -11 10z"/> <path d="M7497 4562 c-7 -12 9 -46 33 -67 18 -17 35 -20 97 -18 41 0 77 4 80 6 15 15 -15 27 -66 27 -48 0 -65 5 -99 30 -23 16 -43 26 -45 22z"/> <path d="M7748 4546 c-29 -23 -38 -56 -15 -56 21 0 49 36 45 58 -3 20 -3 20 -30 -2z"/> <path d="M8010 4530 c0 -5 -15 -16 -32 -24 -19 -8 -26 -15 -16 -15 16 -1 88 36 88 45 0 2 -9 4 -20 4 -11 0 -20 -4 -20 -10z"/> <path d="M7905 4470 c-3 -5 3 -10 14 -10 12 0 21 5 21 10 0 6 -6 10 -14 10 -8 0 -18 -4 -21 -10z"/> <path d="M7854 4435 c-4 -8 -12 -15 -19 -15 -8 0 -17 -4 -20 -10 -12 -19 20 -10 50 15 23 19 26 24 12 25 -10 0 -20 -7 -23 -15z"/> <path d="M7727 4369 c-9 -5 -29 -21 -44 -35 -22 -20 -23 -24 -8 -24 20 0 85 46 85 61 0 12 -10 11 -33 -2z"/> <path d="M523 5036 c-23 -12 -52 -31 -65 -43 -13 -11 -41 -31 -63 -43 -22 -12 -62 -34 -89 -50 l-50 -28 2 -196 c1 -109 4 -201 7 -207 4 -5 15 -9 25 -9 10 0 22 -5 25 -11 4 -5 17 -14 28 -19 12 -6 49 -26 82 -45 33 -19 67 -38 75 -42 8 -3 29 -17 46 -30 17 -13 39 -23 49 -23 10 0 32 10 49 23 17 13 38 27 46 30 8 4 29 16 45 27 17 10 53 31 80 45 28 15 62 33 78 41 l27 15 0 199 0 200 -32 15 c-69 31 -123 66 -163 105 -25 24 -50 40 -65 40 -14 0 -34 7 -44 15 -25 19 -41 17 -93 -9z m137 -90 c48 -17 52 -50 11 -74 -17 -9 -30 -24 -28 -32 1 -10 -5 -14 -20 -13 -13 2 -23 -2 -23 -7 0 -27 87 -3 131 37 l26 24 36 -21 c29 -17 35 -25 28 -38 -18 -33 -46 -54 -184 -136 -43 -25 -47 -33 -34 -70 l11 -31 8 33 c6 21 18 36 32 42 13 5 27 13 30 18 3 5 22 13 41 16 19 4 35 11 35 15 0 15 33 22 41 10 3 -6 10 -43 14 -81 6 -64 5 -71 -17 -93 -13 -13 -38 -39 -56 -59 -37 -40 -48 -42 -96 -22 l-33 14 -12 -39 c-6 -21 -16 -41 -21 -44 -5 -3 -30 10 -55 30 -26 19 -51 35 -56 35 -6 0 -35 24 -65 53 l-55 52 6 70 c7 97 9 108 18 122 4 7 3 21 -3 32 -19 36 -12 60 22 74 31 12 35 12 58 -12 35 -33 113 -39 108 -7 -2 13 -14 23 -34 28 -34 9 -62 52 -42 64 38 23 127 28 178 10z"/> <path d="M6483 4357 c-29 -13 -64 -33 -77 -46 -26 -25 -30 -27 -118 -75 -29 -16 -55 -31 -58 -35 -5 -6 -54 -30 -104 -50 -16 -6 -47 -26 -70 -44 -43 -34 -51 -39 -134 -82 -29 -15 -54 -31 -57 -35 -3 -5 -27 -16 -53 -26 -26 -9 -58 -27 -72 -39 -21 -19 -109 -72 -160 -98 -8 -4 -28 -16 -45 -27 -36 -24 -43 -27 -76 -34 -14 -3 -38 -17 -54 -32 -24 -22 -180 -117 -207 -126 -14 -5 -17 -136 -4 -152 6 -8 37 -28 70 -46 32 -18 79 -44 105 -59 25 -15 53 -30 61 -34 8 -4 29 -16 45 -26 17 -11 50 -31 75 -44 25 -14 61 -34 80 -46 19 -11 44 -25 55 -31 11 -6 34 -19 50 -30 17 -11 40 -24 52 -29 11 -5 24 -15 28 -20 3 -6 12 -11 20 -11 8 0 31 -12 52 -26 21 -14 47 -30 58 -35 11 -5 34 -18 50 -28 17 -11 53 -32 80 -47 28 -14 62 -35 76 -45 15 -10 37 -23 50 -29 13 -6 38 -19 54 -30 17 -11 39 -24 50 -29 11 -5 37 -21 58 -35 21 -14 44 -26 52 -26 8 0 17 -5 20 -10 4 -6 29 -23 57 -39 42 -24 55 -27 74 -19 13 6 24 15 24 20 0 5 10 13 23 18 12 6 29 14 37 19 8 5 51 30 95 56 44 25 87 50 95 55 8 6 22 13 30 17 8 4 33 18 55 32 22 14 60 36 85 49 74 41 94 52 125 72 17 11 41 25 55 30 13 6 27 14 30 18 3 4 21 15 40 26 63 33 104 57 135 77 17 10 39 23 50 28 11 5 36 20 55 32 19 13 55 34 80 47 25 13 59 32 75 42 17 11 53 31 80 45 28 15 73 39 100 55 l50 28 5 65 c7 89 5 94 -48 122 -84 45 -136 77 -173 106 -20 16 -46 29 -57 29 -12 0 -24 5 -27 11 -4 5 -17 15 -28 20 -12 5 -44 23 -72 40 -27 16 -64 36 -80 44 -17 7 -42 24 -55 37 -14 13 -45 33 -70 43 -25 11 -78 39 -118 62 -41 24 -76 43 -78 43 -2 0 -31 20 -65 45 -34 25 -67 45 -73 45 -17 0 -90 39 -181 98 -11 6 -29 16 -41 21 -11 5 -33 20 -50 33 -30 25 -113 68 -130 68 -5 -1 -32 -11 -61 -23z m122 -89 c78 -21 48 -74 -51 -90 -52 -8 -59 -7 -90 17 -44 33 -43 49 4 68 46 20 78 21 137 5z m-176 -115 c74 -37 145 -36 225 0 43 20 62 24 76 17 10 -6 32 -10 48 -10 17 0 44 -12 67 -30 21 -16 43 -30 50 -30 7 0 18 -6 24 -14 7 -8 26 -18 42 -21 36 -8 38 -33 6 -63 -29 -27 -129 -38 -148 -16 -6 8 -19 14 -28 14 -9 0 -22 5 -29 12 -16 16 -21 8 -15 -25 4 -19 13 -29 32 -33 14 -4 32 -11 38 -17 7 -5 43 -8 81 -5 59 3 73 8 107 36 46 37 51 38 73 13 10 -11 40 -27 67 -36 28 -9 70 -29 96 -44 25 -16 55 -32 67 -35 27 -9 28 -27 2 -51 -13 -12 -42 -19 -90 -23 -62 -4 -75 -2 -100 17 -37 27 -52 27 -48 -1 2 -16 19 -31 53 -49 48 -25 54 -25 120 -15 51 8 81 19 108 40 21 16 39 27 41 25 2 -2 8 -14 14 -25 8 -14 25 -24 52 -28 23 -3 59 -18 81 -32 22 -13 57 -30 77 -37 30 -10 37 -17 37 -37 0 -20 -10 -30 -45 -47 -52 -27 -85 -29 -106 -8 -9 8 -24 15 -33 15 -10 0 -24 7 -31 15 -19 23 -32 18 -28 -12 2 -19 14 -33 38 -48 62 -36 229 -16 246 30 8 19 37 19 74 0 27 -14 28 -18 17 -36 -11 -19 -108 -89 -122 -89 -4 0 -90 -49 -190 -110 -101 -60 -186 -110 -189 -110 -3 0 -46 -25 -96 -55 -50 -30 -93 -55 -96 -55 -4 0 -43 -22 -88 -49 -44 -27 -103 -61 -131 -76 -27 -15 -80 -47 -116 -71 -37 -24 -70 -44 -74 -44 -11 0 -127 -71 -151 -92 -21 -19 -21 -18 -38 7 -9 14 -22 25 -29 25 -8 0 -23 11 -35 24 -11 14 -37 28 -56 31 -19 4 -44 18 -57 31 -12 13 -28 24 -35 24 -6 0 -14 7 -18 15 -3 9 -19 15 -41 15 -19 0 -35 4 -35 8 0 16 -195 137 -220 138 -16 0 -24 5 -23 15 2 13 -15 23 -104 60 -18 8 -33 17 -33 21 0 9 -75 58 -89 58 -14 0 -121 72 -121 81 0 5 -11 9 -24 9 -13 0 -29 7 -36 15 -7 8 -18 15 -25 15 -7 0 -18 6 -24 14 -7 8 -25 17 -40 21 -16 3 -39 17 -52 31 -13 14 -41 35 -61 45 -41 21 -47 42 -21 71 22 24 38 23 108 -12 100 -49 216 -35 232 28 8 33 2 34 -48 10 -51 -25 -108 -32 -127 -15 -8 6 -24 16 -36 22 -11 6 -22 19 -24 30 -2 17 15 29 98 68 56 26 112 47 125 47 13 0 31 10 39 22 13 18 17 19 33 8 10 -8 24 -21 30 -29 8 -9 30 -14 63 -13 27 0 52 -3 55 -8 3 -4 24 -6 48 -3 29 4 50 14 70 35 43 46 31 82 -13 38 -17 -17 -33 -20 -99 -20 -77 0 -80 1 -101 30 -12 16 -19 34 -16 39 3 4 26 14 52 21 25 7 58 23 73 36 15 12 46 27 69 33 23 7 48 21 55 31 12 21 47 28 47 10 0 -19 85 -53 147 -58 56 -4 67 -2 103 22 22 14 40 30 40 35 0 5 3 16 6 25 4 11 1 16 -10 16 -9 0 -16 -4 -16 -8 0 -9 -61 -37 -103 -48 -41 -10 -126 33 -127 63 0 17 7 23 34 29 19 3 42 15 52 25 9 10 23 19 29 19 7 0 18 6 24 14 6 7 29 16 50 20 21 3 44 13 51 21 18 21 35 19 99 -12z"/> <path d="M6413 3788 c12 -29 18 -33 57 -36 25 -2 51 -9 58 -15 11 -9 17 -7 27 6 13 19 35 23 35 7 0 -15 29 -12 61 7 19 11 29 26 29 40 0 26 -16 29 -44 8 -27 -20 -154 -20 -180 0 -11 8 -28 15 -38 15 -16 0 -17 -3 -5 -32z"/> <path d="M6060 3623 c0 -21 29 -53 49 -53 6 0 23 -7 37 -16 32 -22 131 -14 168 12 25 18 44 59 33 70 -3 4 -21 -5 -39 -19 -50 -38 -93 -42 -163 -16 -33 12 -66 26 -72 32 -10 7 -13 4 -13 -10z"/> <path d="M6736 3631 c-3 -5 -2 -21 4 -36 28 -74 232 -75 268 -1 8 15 11 30 8 33 -3 4 -29 -6 -57 -21 -36 -20 -60 -27 -82 -23 -40 6 -100 29 -120 45 -9 8 -18 9 -21 3z"/> <path d="M7077 3443 c-15 -14 -6 -51 16 -65 16 -10 48 -14 118 -12 86 2 99 5 123 27 14 13 26 29 26 36 0 18 -25 13 -46 -10 -17 -19 -28 -20 -101 -17 -68 2 -85 7 -105 26 -14 12 -28 19 -31 15z"/> <path d="M5720 3425 c0 -26 42 -55 80 -55 19 0 46 -7 59 -17 22 -15 25 -15 36 1 9 12 20 15 38 11 32 -9 99 46 80 66 -9 9 -20 6 -48 -11 -51 -31 -154 -32 -195 -1 -34 25 -50 27 -50 6z"/> <path d="M6630 3420 c-29 -25 -145 -29 -176 -5 -41 31 -74 7 -39 -29 27 -26 85 -36 164 -27 76 8 101 23 101 63 0 24 -21 23 -50 -2z"/> <path d="M6060 3231 c0 -11 18 -34 40 -51 38 -30 45 -32 108 -28 72 4 112 24 131 66 6 13 11 25 11 27 0 11 -22 4 -36 -10 -9 -8 -27 -18 -42 -21 -15 -4 -34 -13 -43 -21 -21 -18 -58 -9 -121 28 -44 26 -48 27 -48 10z"/> <path d="M6740 3223 c0 -10 4 -23 8 -29 28 -42 181 -63 201 -27 5 10 20 18 33 18 30 0 31 29 0 33 -13 2 -28 -1 -35 -6 -7 -6 -33 -13 -59 -17 -39 -6 -53 -3 -90 19 -53 31 -58 32 -58 9z"/> <path d="M6390 3045 c0 -4 9 -20 20 -36 20 -27 24 -28 94 -27 41 0 78 -2 84 -6 15 -9 79 21 86 40 10 26 -2 30 -33 11 -37 -22 -186 -24 -198 -3 -9 14 -53 32 -53 21z"/> <path d="M1115 4167 c-22 -12 -46 -27 -54 -35 -27 -26 -149 -97 -266 -155 -33 -16 -76 -42 -95 -56 -19 -15 -46 -32 -60 -39 -14 -6 -47 -24 -75 -40 l-50 -29 -3 -196 -2 -196 102 -56 c57 -31 117 -65 133 -75 17 -11 39 -24 50 -30 36 -18 128 -71 205 -116 107 -64 112 -67 139 -86 35 -26 73 -22 111 12 18 16 42 32 53 36 10 3 38 18 60 32 73 47 82 52 104 61 11 6 24 15 28 20 3 6 12 11 20 11 8 0 33 13 57 29 55 37 126 78 158 91 13 6 27 14 30 18 3 4 25 16 49 28 l44 20 1 197 1 198 -67 39 c-36 22 -70 40 -75 40 -5 0 -25 13 -45 30 -20 16 -56 39 -80 50 -23 11 -70 35 -103 54 -33 19 -78 45 -100 57 -22 12 -56 34 -75 49 -82 64 -128 73 -195 37z m133 -82 c28 -13 52 -26 52 -29 0 -22 -23 -55 -40 -58 -11 -2 -21 -7 -22 -13 -3 -19 35 -17 73 4 l38 22 127 -66 c70 -36 133 -65 141 -65 23 0 27 -30 9 -61 -20 -34 -20 -34 28 -14 32 13 40 14 71 1 42 -18 45 -43 10 -74 -30 -26 -32 -42 -5 -49 11 -3 20 -14 20 -25 0 -11 4 -28 10 -38 6 -11 7 -45 3 -81 -5 -51 -12 -68 -34 -90 -15 -15 -38 -31 -50 -34 -13 -4 -55 -28 -93 -54 -74 -48 -171 -102 -218 -122 -16 -6 -28 -14 -28 -18 0 -11 -47 -31 -70 -31 -11 0 -20 -5 -20 -11 0 -7 -9 -9 -23 -5 -16 4 -26 -1 -35 -14 -15 -24 -45 -26 -63 -4 -7 8 -34 26 -60 40 -26 13 -50 28 -54 33 -3 6 -39 26 -81 46 -41 20 -78 43 -81 51 -3 8 -14 14 -24 14 -21 0 -53 18 -109 62 -19 15 -48 30 -63 34 -51 12 -61 50 -54 204 6 122 8 137 28 153 23 19 64 23 74 7 9 -14 45 -12 45 3 0 6 -7 21 -15 31 -16 21 -11 36 11 36 9 0 30 10 47 23 18 13 57 34 87 47 30 13 66 32 80 41 46 31 70 33 95 9 15 -14 30 -20 41 -16 15 6 15 9 -5 29 -30 33 -28 65 7 72 15 3 38 12 52 20 34 18 38 18 98 -10z"/> <path d="M1390 3811 c0 -10 30 -24 37 -17 3 3 2 9 -2 15 -8 13 -35 15 -35 2z"/> <path d="M1260 3445 c0 -8 4 -15 9 -15 5 0 14 7 21 15 10 13 9 15 -9 15 -12 0 -21 -6 -21 -15z"/> <path d="M3146 3385 c-11 -8 -30 -15 -42 -15 -12 0 -35 -13 -51 -30 -15 -16 -31 -30 -35 -30 -4 0 -37 -18 -73 -40 -36 -22 -71 -40 -79 -40 -7 0 -21 -9 -31 -20 -10 -11 -24 -20 -30 -20 -7 0 -18 -6 -25 -14 -6 -8 -18 -12 -26 -9 -7 3 -26 -8 -42 -24 -16 -15 -51 -39 -78 -52 -27 -14 -51 -27 -54 -30 -3 -3 -23 -15 -44 -26 -22 -11 -46 -27 -54 -35 -9 -8 -27 -15 -42 -16 -30 -2 -70 -31 -70 -51 0 -17 3 -17 47 7 21 11 43 20 50 20 7 0 13 4 13 10 0 5 17 12 38 16 20 4 58 22 84 41 39 28 51 32 68 23 11 -6 20 -19 20 -30 0 -30 51 -49 115 -43 34 4 60 2 68 -6 30 -24 97 19 97 62 0 18 -34 12 -51 -9 -8 -10 -34 -14 -83 -14 -67 0 -73 2 -108 35 -21 18 -38 40 -38 47 1 14 107 68 187 93 28 9 61 28 74 41 27 29 69 33 69 6 0 -25 41 -62 68 -62 11 0 24 -4 27 -10 8 -13 145 -13 145 -1 0 5 8 12 18 16 33 10 57 85 27 85 -8 0 -15 -5 -15 -10 0 -6 -12 -16 -27 -23 -16 -6 -32 -17 -36 -24 -5 -8 -28 -13 -54 -13 -51 0 -101 26 -127 65 -15 23 -15 26 3 42 36 33 50 43 60 43 22 0 81 34 81 47 0 17 -20 16 -44 -2z"/> <path d="M3340 3277 c0 -7 21 -24 47 -37 27 -14 65 -35 86 -48 43 -26 62 -22 31 6 -26 23 -52 39 -90 56 -17 8 -35 19 -38 25 -10 15 -36 14 -36 -2z"/> <path d="M7655 3150 c-10 -11 -29 -20 -43 -20 -14 0 -35 -11 -47 -24 -12 -13 -33 -27 -46 -31 -13 -4 -26 -11 -29 -14 -9 -11 -64 -45 -102 -63 -21 -9 -38 -24 -38 -32 0 -8 -6 -21 -13 -28 -7 -7 -16 -20 -21 -28 -4 -8 -18 -33 -31 -55 -14 -22 -29 -49 -34 -60 -5 -11 -20 -36 -33 -55 -13 -19 -27 -42 -31 -50 -4 -8 -21 -37 -37 -65 -16 -27 -35 -61 -42 -75 -7 -14 -16 -29 -21 -35 -4 -5 -23 -33 -42 -62 l-33 -52 31 -18 c18 -10 50 -27 72 -38 22 -11 42 -23 45 -27 3 -4 17 -12 30 -18 14 -5 48 -24 75 -41 28 -16 64 -37 80 -45 32 -16 54 -28 181 -105 45 -27 85 -49 89 -49 3 0 22 -12 42 -27 39 -30 27 -34 139 42 72 48 93 61 121 74 11 5 24 15 28 20 3 6 15 11 25 11 10 0 23 6 27 13 4 6 24 20 43 31 71 37 145 79 156 87 6 5 44 26 85 47 l74 39 3 197 2 196 -24 10 c-14 5 -44 22 -68 37 -24 15 -59 35 -79 44 -20 9 -39 22 -43 27 -8 13 -64 42 -81 42 -7 0 -18 6 -24 14 -7 8 -29 23 -49 34 -83 44 -107 58 -120 70 -7 6 -19 12 -25 12 -7 0 -27 14 -46 30 -18 17 -42 30 -51 30 -10 0 -23 7 -30 15 -17 21 -44 19 -65 -5z m51 -35 c16 -8 39 -15 52 -15 12 0 22 -4 22 -9 0 -5 9 -11 20 -14 27 -7 27 -53 1 -62 -11 -3 -22 -12 -25 -20 -3 -9 -18 -15 -37 -15 -22 0 -32 -5 -36 -20 -3 -11 -14 -20 -24 -20 -12 0 -16 5 -13 14 4 11 -4 17 -28 21 -18 4 -47 19 -64 33 -40 34 -32 62 23 86 21 9 45 21 53 26 21 12 24 12 56 -5z m-165 -134 c15 -28 29 -38 66 -49 89 -25 105 -26 119 -7 7 10 20 15 31 11 20 -6 49 16 76 57 19 30 44 36 53 12 6 -15 48 -37 94 -50 14 -4 34 -15 45 -25 11 -10 42 -24 68 -31 26 -6 51 -19 56 -28 12 -22 -4 -58 -28 -66 -25 -8 -28 -33 -4 -42 11 -5 27 5 49 31 l33 38 45 -22 c59 -28 63 -37 35 -63 -29 -28 -181 -127 -193 -127 -20 0 -75 -51 -94 -87 -44 -85 -57 -108 -62 -113 -3 -3 -11 -16 -18 -30 -6 -14 -18 -34 -24 -45 -7 -10 -24 -37 -38 -60 -13 -22 -30 -49 -37 -60 -7 -11 -15 -27 -19 -35 -16 -32 -86 -119 -102 -125 -9 -3 -28 3 -44 15 -15 11 -31 20 -35 20 -4 1 -24 14 -43 30 -19 17 -39 30 -46 30 -6 0 -17 7 -24 15 -7 8 -19 15 -26 15 -8 0 -43 20 -78 45 -36 25 -71 45 -79 45 -8 0 -33 13 -55 30 -23 17 -48 30 -56 30 -18 0 -69 47 -85 78 -16 30 3 92 46 153 18 26 33 55 33 67 0 11 7 22 15 26 8 3 15 14 15 25 0 11 4 22 9 26 6 3 20 26 33 51 12 26 28 49 35 51 7 3 13 12 13 21 0 9 9 35 20 58 16 33 33 48 76 70 30 15 60 34 66 41 17 21 39 12 59 -26z m742 -377 c0 -16 0 -57 -1 -91 -2 -58 -5 -65 -43 -103 -32 -32 -46 -39 -65 -34 -18 5 -24 2 -24 -10 0 -9 -5 -16 -10 -16 -6 0 -37 -17 -68 -37 -107 -70 -173 -93 -180 -62 -1 9 8 27 22 40 14 13 26 32 26 43 0 10 13 38 30 62 16 24 27 50 24 57 -2 7 6 25 20 40 13 14 27 35 30 45 4 11 16 24 29 31 35 19 60 34 93 58 18 13 39 20 51 17 12 -3 24 0 28 6 11 19 37 -12 38 -46z"/> <path d="M7884 2805 c-7 -18 12 -52 36 -65 18 -10 155 -11 173 -2 5 2 -4 11 -20 19 -19 10 -42 12 -75 8 -39 -6 -48 -4 -48 8 0 9 -14 22 -31 31 -25 12 -31 13 -35 1z"/> <path d="M3634 3052 l-31 -47 -71 2 c-80 3 -139 24 -164 58 -12 17 -9 -2 8 -45 16 -40 34 -48 94 -41 8 0 47 3 87 5 80 4 93 9 93 36 0 10 11 28 25 41 29 28 31 39 8 38 -10 0 -32 -21 -49 -47z"/> <path d="M3710 3060 c0 -5 9 -10 21 -10 11 0 17 5 14 10 -3 6 -13 10 -21 10 -8 0 -14 -4 -14 -10z"/> <path d="M3765 3030 c3 -5 13 -10 21 -10 27 0 14 -19 -38 -59 -29 -22 -60 -46 -69 -54 -8 -7 -24 -17 -35 -21 -18 -8 -18 -8 4 -17 26 -10 48 -3 56 17 7 19 30 18 50 -4 25 -28 21 -182 -6 -234 -14 -26 -26 -37 -35 -34 -8 3 -31 -7 -51 -24 -20 -16 -55 -36 -77 -46 -22 -9 -49 -24 -60 -34 -11 -10 -39 -28 -63 -40 -23 -12 -45 -26 -48 -31 -3 -5 -14 -9 -24 -9 -11 0 -27 -8 -37 -19 -10 -10 -55 -38 -101 -62 -135 -72 -145 -78 -151 -87 -9 -15 -122 -72 -141 -72 -9 0 -25 -9 -35 -20 -10 -11 -23 -20 -30 -20 -7 0 -20 -9 -30 -20 -10 -11 -24 -20 -30 -20 -7 0 -18 -7 -25 -15 -16 -20 -68 -45 -92 -45 -11 0 -38 -15 -61 -34 -46 -37 -102 -53 -123 -35 -11 9 -14 7 -14 -9 0 -41 -60 -55 -94 -23 -26 24 -179 118 -220 135 -18 7 -66 34 -108 60 -42 25 -81 46 -87 46 -5 0 -14 6 -18 13 -4 6 -19 18 -33 25 -14 7 -38 24 -54 37 -24 19 -27 26 -17 38 8 10 9 17 1 22 -11 7 -14 124 -4 174 6 26 10 30 30 25 19 -5 22 -3 17 15 -3 12 -12 21 -19 21 -12 0 -34 37 -34 55 0 2 17 12 38 21 20 10 45 24 54 32 16 13 19 12 28 -14 6 -16 18 -36 26 -46 21 -22 109 -34 130 -17 12 9 23 9 54 -1 38 -12 42 -12 65 10 27 26 33 60 10 60 -7 0 -18 -7 -23 -16 -21 -38 -168 -39 -209 -1 -14 12 -23 32 -23 49 0 22 8 32 40 48 39 20 53 40 28 40 -31 0 -58 -14 -63 -30 -3 -10 -18 -23 -33 -29 -26 -11 -116 -60 -158 -86 -20 -13 -21 -22 -22 -201 0 -211 -6 -194 83 -240 28 -14 64 -34 80 -44 17 -11 39 -24 50 -30 11 -6 34 -19 50 -30 17 -11 53 -31 80 -45 28 -14 64 -35 80 -45 30 -19 69 -41 135 -76 19 -11 40 -25 48 -31 7 -7 19 -13 27 -13 7 0 15 -7 19 -15 8 -22 28 -18 72 13 40 29 242 152 249 152 2 0 24 14 48 30 25 17 48 30 52 30 7 0 133 73 175 100 8 6 27 15 43 21 15 6 27 15 27 20 0 5 6 9 13 9 8 0 32 12 53 28 21 15 62 38 89 51 28 14 52 27 55 30 3 3 23 15 44 26 22 11 45 25 51 30 11 10 45 29 120 68 22 12 42 24 45 27 3 4 12 10 20 13 8 4 42 23 75 42 33 19 71 40 85 46 57 24 57 24 56 224 l-1 185 -29 15 c-32 17 -60 20 -51 5z"/> <path d="M4634 2916 c-3 -8 -17 -16 -32 -19 -15 -3 -39 -17 -54 -31 -15 -15 -32 -26 -37 -26 -6 0 -30 -13 -54 -30 -25 -16 -50 -30 -56 -30 -12 0 -63 -33 -89 -57 -7 -7 -20 -13 -29 -13 -8 0 -40 -17 -71 -37 -63 -42 -78 -52 -140 -83 -23 -12 -48 -27 -55 -34 -32 -29 -78 -56 -97 -56 -11 0 -20 -4 -20 -10 0 -5 8 -10 18 -10 25 0 172 59 205 82 30 22 54 18 64 -9 3 -10 15 -28 26 -40 18 -20 30 -23 96 -23 65 0 82 4 114 25 20 14 37 30 37 35 0 16 -32 11 -45 -7 -10 -13 -29 -17 -76 -18 -62 -1 -65 0 -108 41 -24 23 -40 47 -37 53 7 11 209 111 225 111 4 0 16 9 26 20 10 11 24 20 30 20 7 0 15 7 19 15 10 27 26 16 26 -19 0 -28 6 -38 40 -60 46 -30 50 -31 50 -12 0 17 22 26 61 26 18 0 28 4 24 10 -3 6 -29 10 -57 10 -43 0 -54 4 -79 31 -36 38 -38 69 -6 69 13 0 28 5 34 11 6 6 40 12 76 12 76 1 137 -23 137 -54 0 -20 -30 -55 -65 -75 -20 -11 -13 -34 9 -34 21 0 67 40 77 67 l9 24 39 -21 c22 -11 49 -20 61 -20 11 0 20 -4 20 -10 0 -13 -60 -80 -71 -80 -9 0 -67 -37 -79 -51 -3 -3 -23 -14 -45 -26 -79 -41 -109 -58 -123 -70 -7 -7 -20 -13 -28 -13 -8 0 -14 -4 -14 -10 0 -5 -6 -10 -13 -10 -11 0 -60 -29 -133 -78 -10 -7 -27 -15 -36 -18 -10 -4 -18 -10 -18 -15 0 -5 -7 -9 -15 -9 -8 0 -24 -9 -35 -20 -11 -11 -29 -20 -40 -20 -11 0 -20 -4 -20 -9 0 -5 -12 -14 -27 -20 -16 -6 -35 -15 -43 -21 -33 -21 -150 -90 -216 -126 -38 -20 -87 -48 -109 -61 -22 -12 -49 -27 -60 -33 -11 -6 -29 -16 -40 -23 -11 -7 -46 -27 -77 -45 -32 -19 -58 -38 -58 -43 0 -5 -11 -9 -24 -9 -13 0 -26 -4 -28 -9 -3 -8 -27 -22 -168 -97 -19 -11 -40 -25 -48 -31 -7 -7 -20 -13 -28 -13 -17 0 -16 -41 1 -47 6 -1 37 17 69 42 33 24 89 59 124 77 35 18 75 43 89 56 13 12 31 22 40 22 9 0 24 6 32 14 9 8 57 35 108 60 51 25 95 51 98 57 4 5 17 14 28 20 12 5 30 13 40 19 9 5 25 15 35 20 9 6 28 16 42 22 14 7 27 15 30 18 21 21 108 72 142 83 23 7 43 20 46 30 2 9 10 17 17 17 8 0 20 6 27 13 7 6 31 18 52 26 22 7 60 28 85 46 25 18 56 36 69 39 12 4 22 12 22 17 0 5 11 9 25 9 16 0 25 6 25 15 0 8 8 15 19 15 10 0 24 7 31 15 7 8 18 15 25 15 7 0 18 6 24 14 7 8 24 17 38 21 14 3 40 17 58 31 17 13 42 24 55 24 12 0 28 7 35 16 10 14 13 13 29 -11 15 -23 18 -42 14 -107 -4 -72 -7 -81 -37 -112 -18 -19 -50 -42 -72 -51 -21 -10 -39 -24 -39 -32 0 -7 -7 -13 -16 -13 -9 0 -38 -12 -63 -28 -25 -15 -59 -34 -76 -42 -16 -8 -44 -25 -61 -37 -17 -13 -39 -23 -48 -23 -10 0 -31 -13 -48 -30 -16 -16 -38 -30 -48 -30 -10 0 -20 -3 -22 -7 -6 -14 -67 -53 -81 -53 -8 0 -21 -7 -28 -17 -8 -9 -36 -26 -64 -39 -27 -12 -79 -40 -115 -62 -99 -62 -189 -112 -203 -112 -7 0 -24 -11 -39 -25 -15 -14 -32 -25 -39 -25 -6 0 -24 -11 -41 -25 -16 -14 -38 -25 -48 -25 -9 0 -23 -7 -30 -15 -7 -8 -18 -15 -25 -15 -6 0 -25 -11 -41 -25 -16 -14 -40 -28 -53 -32 -13 -3 -31 -13 -40 -22 -9 -9 -48 -32 -86 -51 -39 -19 -71 -38 -73 -42 -2 -5 -9 -8 -16 -8 -7 0 -21 -9 -31 -20 -10 -11 -22 -20 -27 -20 -5 0 -24 -11 -42 -25 -18 -14 -38 -25 -44 -25 -6 0 -32 -14 -57 -32 -38 -27 -49 -30 -65 -21 -16 11 -19 9 -22 -10 -4 -31 -37 -34 -59 -6 -21 28 -29 23 -38 -23 -9 -46 -39 -48 -88 -5 -43 38 -69 51 -97 48 -15 -2 -18 2 -13 19 4 16 2 20 -12 15 -28 -9 -58 43 -70 124 -7 42 -8 79 -3 89 14 26 22 121 11 127 -14 9 -11 45 4 45 8 0 22 9 32 20 18 20 17 20 -8 20 -14 0 -30 -6 -34 -14 -4 -8 -19 -16 -33 -18 l-25 -3 0 -198 0 -198 55 -31 c30 -16 80 -45 111 -64 31 -19 62 -34 68 -34 6 0 11 -4 11 -9 0 -5 14 -14 30 -20 17 -5 30 -15 30 -20 0 -6 14 -11 30 -11 17 0 30 4 30 9 0 8 179 119 270 168 14 8 39 23 55 33 17 11 44 26 60 34 44 22 113 62 127 73 7 6 45 27 83 48 39 20 72 40 75 44 3 3 23 15 45 26 35 18 64 35 140 83 11 7 32 17 48 23 15 6 27 15 27 20 0 5 5 9 11 9 6 0 56 27 111 60 54 33 102 60 105 60 5 0 133 74 173 100 8 6 24 15 35 20 11 6 34 19 50 30 17 11 41 25 55 30 13 6 27 14 30 18 3 4 16 13 30 19 14 7 48 26 75 42 28 17 61 36 75 41 13 6 27 14 30 18 3 4 16 13 30 19 14 7 48 26 75 43 28 16 57 33 65 36 8 4 22 13 30 19 8 7 27 15 42 19 l27 6 3 193 c2 105 2 197 0 203 -1 5 -23 18 -47 29 -25 10 -45 21 -45 26 0 4 -12 12 -27 18 -37 14 -63 31 -90 59 -12 12 -36 25 -52 28 -17 4 -36 13 -42 20 -15 18 -58 18 -65 0z"/> <path d="M2305 2902 c-16 -10 -32 -20 -35 -23 -5 -6 -49 -30 -85 -47 -11 -5 -29 -19 -39 -31 -19 -21 -19 -21 2 -21 30 0 102 33 139 64 l32 27 21 -33 c11 -18 20 -36 20 -40 0 -5 7 -8 15 -8 9 0 18 -7 21 -15 5 -12 23 -14 88 -12 87 2 138 25 149 66 8 31 -2 32 -52 7 -45 -23 -125 -46 -158 -46 -15 0 -14 2 3 14 19 14 19 15 -1 22 -34 12 -65 46 -65 71 0 27 -13 28 -55 5z"/> <path d="M3030 2844 c0 -11 15 -34 33 -51 29 -27 37 -30 71 -24 22 3 38 11 36 16 -1 6 -26 18 -54 29 -28 10 -59 25 -68 34 -16 14 -18 13 -18 -4z"/> <path d="M3295 2849 c-4 -5 -19 -15 -33 -20 -23 -9 -24 -11 -10 -25 13 -13 19 -14 37 -2 11 7 21 23 21 35 0 25 -5 29 -15 12z"/> <path d="M3535 2827 c-33 -18 -64 -38 -68 -44 -4 -7 -16 -13 -26 -13 -11 0 -33 -13 -51 -30 -18 -16 -41 -30 -51 -30 -11 0 -22 -7 -25 -15 -4 -8 -15 -15 -25 -15 -11 0 -22 -7 -25 -15 -4 -8 -14 -15 -24 -15 -11 0 -21 -4 -24 -9 -3 -5 -23 -18 -43 -29 -88 -46 -108 -57 -113 -63 -3 -3 -35 -22 -72 -42 -37 -20 -85 -47 -105 -60 -21 -12 -51 -29 -67 -37 -58 -29 -66 -35 -66 -47 0 -7 11 -13 25 -13 16 0 25 6 25 15 0 9 12 18 30 22 17 3 30 9 30 14 0 4 9 11 20 14 11 3 20 13 20 21 0 9 11 14 30 14 17 0 30 5 30 10 0 6 10 15 23 20 12 6 29 14 37 19 8 5 22 12 30 15 8 4 29 15 45 26 17 10 55 31 85 46 30 15 73 42 96 61 23 18 45 33 50 33 13 0 86 37 93 47 3 5 24 17 46 27 56 27 154 90 155 99 0 13 -25 6 -85 -26z"/> <path d="M3190 2776 c0 -10 28 -13 41 -5 10 6 7 9 -13 9 -16 0 -28 -2 -28 -4z"/> <path d="M1286 2731 c-4 -6 -15 -11 -25 -11 -10 0 -44 -19 -77 -42 -32 -24 -75 -51 -94 -62 -69 -37 -96 -52 -137 -79 -24 -15 -51 -27 -60 -27 -10 0 -31 -12 -47 -26 -15 -15 -49 -38 -74 -52 -73 -39 -95 -52 -127 -72 -16 -11 -37 -23 -45 -26 -8 -4 -34 -15 -57 -25 -24 -10 -43 -22 -43 -27 0 -4 -19 -18 -42 -31 -24 -12 -56 -31 -73 -41 -16 -11 -45 -26 -63 -34 l-32 -15 0 -199 0 -199 73 -37 c39 -21 86 -46 102 -57 17 -10 39 -23 50 -29 11 -6 34 -19 50 -30 68 -45 71 -45 115 -14 57 40 91 62 116 73 11 5 50 27 85 48 35 22 71 42 79 46 8 4 29 16 45 27 17 11 37 23 45 27 8 4 47 26 85 48 39 23 77 45 85 49 8 4 24 12 35 19 11 7 63 37 115 67 52 30 104 60 115 67 11 6 43 23 71 38 29 14 58 32 65 41 9 11 13 68 14 204 l1 189 -51 28 c-27 15 -59 33 -70 40 -11 7 -30 17 -42 22 -12 6 -28 20 -35 31 -15 24 -78 60 -106 60 -10 0 -23 5 -29 11 -8 8 -13 8 -17 0z m84 -127 c59 -11 20 -63 -55 -71 -36 -5 -52 -1 -80 18 -19 13 -35 29 -35 35 0 6 19 16 43 21 40 10 62 10 127 -3z m-204 -91 c18 -25 198 -26 264 -1 43 15 47 15 69 -1 30 -23 19 -46 -38 -81 -22 -14 -41 -28 -41 -32 0 -12 35 -9 47 3 28 28 59 -48 48 -118 -6 -38 -16 -56 -60 -100 -30 -29 -59 -53 -66 -53 -6 0 -31 -13 -56 -30 -24 -16 -48 -30 -52 -30 -4 0 -39 -20 -77 -45 -38 -24 -73 -45 -77 -45 -5 0 -23 -11 -41 -25 -18 -14 -40 -25 -50 -25 -9 0 -40 -17 -68 -37 -59 -41 -156 -97 -208 -119 -19 -8 -59 -26 -88 -40 -29 -13 -58 -24 -64 -24 -6 0 -29 15 -52 33 -23 18 -56 39 -75 47 -53 21 -71 61 -71 157 0 56 4 83 13 86 9 3 9 11 -1 41 -11 29 -11 40 -2 51 17 21 38 19 113 -10 55 -20 73 -23 118 -16 29 5 58 16 64 25 7 9 20 16 29 16 9 0 16 8 16 20 0 25 -10 25 -41 2 -31 -24 -87 -43 -94 -33 -3 5 -17 12 -32 16 -33 8 -63 33 -63 51 0 7 18 18 40 24 21 6 42 15 45 20 10 15 102 60 123 60 11 0 25 7 32 15 14 16 55 20 64 6 3 -4 20 -12 38 -16 36 -8 151 -15 131 -8 -7 3 -13 11 -13 18 0 19 -32 35 -67 35 -15 0 -34 4 -41 9 -22 14 -9 45 23 56 17 6 55 24 85 41 30 18 71 35 92 38 20 4 39 13 42 21 7 20 26 19 42 -2z"/> <path d="M1080 2365 c-7 -8 -21 -15 -31 -15 -26 0 -24 -19 4 -29 27 -11 33 -7 52 30 13 24 13 29 1 29 -7 0 -19 -7 -26 -15z"/> <path d="M1365 2371 c-3 -5 -1 -12 5 -16 12 -7 30 2 30 16 0 12 -27 12 -35 0z"/> <path d="M1310 2342 c0 -14 11 -21 26 -15 21 8 17 23 -6 23 -11 0 -20 -4 -20 -8z"/> <path d="M905 2100 c-3 -5 1 -10 9 -10 8 0 18 5 21 10 3 6 -1 10 -9 10 -8 0 -18 -4 -21 -10z"/> <path d="M838 2062 c-28 -17 -37 -32 -19 -32 5 0 16 6 23 13 7 7 22 18 33 25 14 8 15 11 5 11 -8 0 -27 -7 -42 -17z"/> <path d="M677 1969 c-10 -11 -16 -23 -13 -26 6 -6 55 29 56 40 0 15 -26 6 -43 -14z"/> <path d="M2695 2650 c-12 -19 29 -65 60 -68 35 -4 81 18 63 30 -7 4 -26 8 -42 8 -17 0 -40 9 -52 21 -15 14 -24 17 -29 9z"/> <path d="M5968 2646 c-7 -7 -25 -16 -39 -19 -14 -4 -48 -24 -75 -44 -27 -21 -65 -47 -84 -58 -19 -10 -53 -29 -75 -42 -94 -53 -115 -63 -133 -63 -11 0 -28 -12 -38 -26 -10 -14 -32 -32 -49 -39 -16 -8 -52 -28 -80 -44 -27 -17 -60 -35 -72 -40 -11 -5 -24 -14 -27 -19 -3 -5 -21 -13 -39 -16 -19 -3 -50 -21 -71 -39 -20 -18 -60 -46 -89 -61 -29 -15 -65 -36 -82 -46 -16 -11 -40 -24 -52 -29 -11 -5 -24 -15 -28 -20 -3 -6 -19 -11 -34 -11 -17 0 -37 -11 -54 -28 -15 -16 -47 -39 -70 -51 -23 -12 -55 -31 -72 -41 -36 -22 -97 -52 -145 -71 -19 -7 -51 -27 -70 -44 -39 -33 -64 -50 -97 -64 -11 -6 -24 -15 -28 -20 -3 -6 -12 -11 -20 -11 -8 0 -34 -13 -58 -30 -25 -16 -55 -30 -67 -30 -12 0 -35 -13 -50 -30 -15 -16 -31 -30 -35 -30 -4 0 -41 -20 -82 -45 -40 -25 -77 -45 -82 -45 -5 0 -14 -6 -20 -14 -7 -8 -27 -17 -45 -20 -19 -4 -54 -24 -79 -46 -25 -22 -52 -40 -60 -40 -9 0 -19 -5 -22 -11 -4 -5 -17 -15 -28 -20 -12 -5 -35 -18 -52 -29 -16 -11 -40 -24 -52 -29 -11 -5 -24 -15 -28 -20 -3 -6 -19 -11 -34 -11 -17 0 -39 -11 -57 -29 -16 -16 -47 -39 -69 -51 -22 -11 -62 -34 -90 -49 l-50 -28 -3 -74 c-1 -41 1 -79 5 -84 5 -6 42 -27 83 -48 41 -22 89 -47 105 -58 17 -10 39 -23 50 -29 11 -6 34 -19 50 -30 17 -11 37 -23 45 -27 17 -8 158 -89 180 -103 8 -6 24 -15 35 -20 11 -6 43 -24 70 -41 28 -16 64 -37 80 -45 17 -8 44 -23 60 -34 17 -11 39 -24 50 -30 11 -6 43 -24 70 -41 28 -16 64 -37 80 -45 17 -8 44 -23 60 -34 17 -11 39 -24 50 -30 11 -6 34 -19 50 -30 17 -11 44 -26 60 -34 39 -20 103 -57 137 -80 31 -20 25 -23 160 59 116 70 121 73 143 85 11 6 34 19 50 30 17 11 39 24 50 30 11 6 47 26 80 45 33 19 69 40 80 45 11 6 34 19 50 30 17 11 39 24 51 29 11 5 50 27 85 48 35 22 71 42 79 46 8 4 29 16 45 27 17 11 37 23 45 27 18 8 158 89 180 103 8 6 22 13 30 17 8 4 33 18 55 32 22 14 58 35 80 47 22 11 56 31 75 42 19 12 44 26 55 32 11 6 34 19 50 30 17 10 53 31 80 45 28 14 64 34 80 45 17 11 39 24 50 30 11 6 34 19 50 30 17 11 37 23 45 27 15 7 151 84 180 103 8 5 38 21 65 36 28 15 52 29 55 33 3 3 25 16 50 29 25 13 59 32 75 42 17 11 39 24 50 30 26 13 110 61 155 89 19 11 44 25 55 31 11 6 34 19 50 30 17 11 53 31 80 45 28 14 64 35 80 45 17 11 37 22 45 26 43 16 45 20 48 101 l3 79 -43 23 c-95 50 -135 73 -170 101 -20 17 -46 30 -57 30 -11 0 -23 5 -26 11 -4 5 -17 15 -28 20 -12 5 -44 23 -72 40 -27 16 -61 35 -75 42 -14 6 -51 31 -84 54 -32 24 -64 43 -71 43 -11 0 -131 65 -185 100 -8 6 -24 14 -35 19 -11 5 -31 21 -44 35 -14 14 -32 26 -42 26 -17 0 -80 29 -89 42 -3 4 -17 12 -30 18 -14 5 -38 19 -55 29 -16 11 -48 29 -70 41 -22 12 -44 27 -50 34 -5 7 -38 27 -72 44 -51 25 -65 28 -75 18z m119 -129 c14 -14 8 -25 -31 -55 -37 -28 -86 -28 -137 1 -53 30 -51 59 6 68 53 9 147 0 162 -14z m143 -107 c15 0 51 -15 80 -34 28 -19 67 -37 86 -40 44 -9 46 -39 3 -65 -39 -24 -138 -18 -186 11 -32 19 -33 19 -33 1 0 -28 26 -60 55 -67 14 -4 25 -11 25 -16 0 -13 117 -13 125 0 3 6 15 10 25 10 10 0 32 12 50 26 30 26 31 26 51 8 11 -10 34 -23 52 -30 89 -33 192 -85 195 -98 3 -13 -41 -66 -53 -65 -3 0 -24 -2 -46 -6 -32 -6 -45 -3 -62 12 -26 23 -77 46 -85 38 -11 -11 19 -55 48 -70 54 -28 202 -17 248 18 9 7 17 6 24 -1 7 -7 28 -12 49 -12 22 0 50 -10 73 -25 21 -14 63 -36 94 -49 31 -13 58 -28 59 -33 6 -18 -36 -50 -76 -57 -49 -8 -127 8 -149 31 -16 16 -17 15 -20 -6 -4 -29 28 -63 60 -65 13 -1 40 -6 60 -10 21 -5 46 -5 55 -1 10 5 46 18 80 30 55 19 66 20 93 8 l31 -13 -40 -37 c-23 -21 -62 -50 -89 -65 -26 -15 -69 -40 -95 -55 -27 -16 -72 -41 -101 -58 -29 -16 -90 -52 -137 -80 -46 -27 -90 -52 -99 -55 -8 -3 -42 -22 -75 -43 -115 -72 -270 -163 -335 -196 -36 -18 -72 -39 -80 -46 -8 -6 -22 -15 -30 -19 -8 -4 -44 -24 -80 -46 -36 -21 -110 -64 -165 -95 -55 -31 -134 -76 -175 -101 -41 -24 -95 -54 -120 -65 -25 -12 -56 -30 -70 -41 -28 -22 -208 -128 -217 -128 -3 0 -39 -20 -80 -45 -40 -25 -76 -45 -80 -45 -6 0 -169 -98 -188 -113 -5 -4 -50 -30 -100 -58 -49 -28 -125 -70 -167 -95 -82 -47 -117 -54 -145 -28 -19 17 -104 69 -191 116 -30 16 -72 42 -94 59 -23 16 -47 29 -53 29 -7 0 -36 16 -64 35 -28 20 -62 40 -74 46 -37 16 -119 63 -165 92 -24 15 -53 32 -65 37 -12 5 -69 39 -127 75 -58 35 -125 74 -150 86 -73 35 -200 130 -200 151 0 4 14 15 31 23 22 12 34 13 44 5 33 -28 114 -60 149 -60 71 0 166 60 152 96 -6 15 -8 15 -24 1 -26 -23 -102 -40 -151 -33 -79 11 -112 68 -47 80 19 4 39 13 46 21 7 8 19 15 27 15 8 0 27 9 42 19 15 11 43 22 64 26 20 4 41 14 46 23 8 14 15 13 59 -11 42 -23 62 -27 130 -27 45 0 84 5 87 10 3 5 14 10 25 10 10 0 21 7 24 16 8 22 8 56 -1 52 -5 -2 -30 -14 -57 -27 -58 -27 -121 -23 -168 12 -49 36 -40 46 61 73 29 8 60 23 70 35 10 12 33 23 59 26 24 3 46 12 49 19 7 20 27 17 48 -6 10 -11 28 -20 41 -20 13 0 25 -4 29 -10 6 -10 103 -9 120 2 6 3 25 9 43 13 32 7 52 29 52 59 0 20 -24 21 -39 2 -17 -20 -104 -29 -154 -15 -38 11 -77 39 -77 54 0 12 68 34 88 28 16 -4 33 5 62 31 28 25 49 36 72 36 18 0 41 9 54 21 l22 21 29 -21 c60 -45 207 -47 255 -4 21 18 42 62 34 70 -2 2 -27 -10 -56 -28 -46 -28 -57 -31 -104 -26 -38 4 -61 13 -81 31 -32 30 -24 50 26 60 17 3 43 15 59 26 15 11 34 20 42 20 7 0 28 9 45 20 18 11 39 17 46 14 8 -3 19 2 26 10 11 13 19 12 64 -6 29 -11 60 -24 69 -29 27 -14 66 -11 93 7 13 9 33 13 44 9 22 -7 61 35 61 66 0 22 -25 26 -33 6 -7 -18 -118 -41 -154 -33 -81 20 -98 68 -32 86 45 12 73 26 104 51 11 9 40 19 65 23 24 4 50 12 57 18 10 8 26 4 63 -15 43 -23 60 -26 116 -22 91 6 138 30 142 73 3 28 -11 45 -20 24 -1 -4 -19 -18 -39 -30 -51 -31 -124 -30 -161 3 -32 28 -37 55 -9 55 10 0 24 7 31 15 7 8 20 15 30 15 9 0 35 12 56 26 21 15 57 29 79 32 22 3 44 11 48 18 10 18 26 18 46 1 21 -18 101 -47 129 -47 25 0 123 29 133 39 4 3 9 18 13 34 7 30 -12 38 -33 13 -15 -18 -119 -29 -156 -16 -17 6 -38 22 -48 35 -17 23 -17 25 0 33 10 5 35 13 57 16 21 4 49 18 62 31 27 27 93 49 118 39 9 -3 16 -2 16 2 0 5 4 15 9 22 6 11 16 8 46 -12 27 -19 53 -27 89 -28 99 -3 130 2 171 31 l40 28 23 -23 c14 -14 34 -24 52 -24z"/> <path d="M5846 2103 c-14 -14 -4 -46 20 -68 25 -23 35 -25 119 -25 102 0 138 16 147 65 6 31 -5 40 -22 20 -7 -8 -18 -15 -25 -15 -7 0 -18 -7 -25 -15 -8 -10 -31 -15 -70 -15 -47 0 -64 5 -97 29 -23 16 -44 27 -47 24z"/> <path d="M5506 1901 c-12 -19 19 -63 58 -82 79 -38 226 -2 226 55 0 23 -20 29 -39 12 -10 -9 -28 -16 -40 -16 -12 0 -31 -5 -42 -11 -18 -9 -35 -7 -104 17 -5 2 -20 11 -32 19 -13 10 -23 12 -27 6z"/> <path d="M6170 1890 c0 -23 37 -60 61 -60 9 0 22 -7 30 -16 19 -23 102 -11 179 26 17 8 37 56 28 66 -4 3 -20 -4 -37 -17 -26 -19 -43 -23 -111 -23 -68 0 -83 3 -103 22 -29 27 -47 28 -47 2z"/> <path d="M5160 1695 c0 -15 12 -33 33 -49 31 -24 43 -26 125 -26 86 0 92 1 111 26 22 28 27 54 11 54 -6 0 -27 -9 -47 -20 -57 -30 -125 -27 -184 10 l-49 30 0 -25z"/> <path d="M6080 1689 c-56 -36 -129 -39 -175 -9 -41 27 -67 26 -63 -2 5 -37 61 -58 149 -58 56 0 80 4 89 15 7 8 18 15 25 15 10 0 31 59 23 65 -2 2 -23 -10 -48 -26z"/> <path d="M6510 1697 c0 -24 30 -56 63 -65 42 -14 148 -12 166 1 7 6 23 16 34 22 12 6 23 19 25 29 3 16 0 18 -25 12 -15 -4 -35 -14 -44 -22 -20 -18 -117 -19 -138 0 -26 22 -81 37 -81 23z"/> <path d="M4825 1510 c-3 -5 1 -23 9 -39 23 -44 143 -80 172 -51 6 6 25 12 42 14 41 6 51 13 63 43 13 34 1 48 -22 27 -11 -10 -52 -23 -90 -30 -74 -12 -110 -4 -139 31 -14 17 -26 19 -35 5z"/> <path d="M6174 1509 c-11 -18 31 -63 72 -77 58 -20 124 -23 131 -6 3 8 13 14 22 14 26 0 61 29 61 51 0 24 0 24 -47 -3 -22 -13 -38 -28 -36 -34 4 -13 -35 -26 -50 -17 -6 3 -2 12 8 20 17 12 16 13 -16 13 -49 0 -109 19 -116 36 -6 17 -19 18 -29 3z"/> <path d="M5500 1495 c0 -19 35 -55 54 -55 7 0 19 -7 26 -15 15 -18 125 -21 135 -4 4 5 18 14 31 19 23 9 51 57 39 68 -3 3 -20 -2 -36 -12 -44 -26 -179 -28 -206 -3 -24 21 -43 22 -43 2z"/> <path d="M5430 1320 c0 -5 -18 -19 -40 -30 -52 -26 -125 -26 -165 0 -32 21 -65 26 -65 10 0 -5 12 -23 28 -40 24 -26 36 -31 97 -36 61 -5 76 -2 115 18 38 19 46 28 48 56 2 18 -1 32 -7 32 -6 0 -11 -4 -11 -10z"/> <path d="M6087 1298 c-35 -28 -42 -30 -105 -26 -51 3 -75 9 -99 28 -37 27 -48 23 -39 -15 9 -35 45 -48 136 -51 86 -2 126 13 141 53 15 41 7 44 -34 11z"/> <path d="M4496 1313 c-3 -4 -6 -17 -6 -29 0 -40 39 -56 131 -55 94 1 146 20 155 58 9 36 0 37 -49 9 -60 -36 -138 -36 -188 -1 -20 13 -39 21 -43 18z"/> <path d="M4162 1094 c2 -21 10 -40 18 -44 8 -4 25 -12 37 -18 38 -20 127 -15 168 9 35 21 73 75 61 87 -4 3 -20 -5 -37 -17 -27 -20 -45 -24 -115 -25 -74 -1 -85 1 -104 22 -28 30 -32 28 -28 -14z"/> <path d="M4820 1112 c0 -10 7 -28 16 -41 13 -18 23 -22 45 -17 24 5 29 2 29 -14 0 -44 154 -11 193 42 29 39 13 53 -30 27 -52 -33 -171 -33 -205 -1 -29 27 -48 28 -48 4z"/> <path d="M5500 1110 c0 -31 26 -60 68 -73 57 -19 76 -14 59 16 -16 29 -27 37 -55 37 -12 0 -25 7 -28 15 -7 16 -44 21 -44 5z"/> <path d="M5766 1111 c-3 -5 -28 -14 -56 -21 -59 -14 -58 -26 3 -28 37 -2 46 2 65 28 17 23 19 30 8 30 -8 0 -17 -4 -20 -9z"/> <path d="M5156 942 c-10 -16 18 -66 47 -85 34 -22 172 -17 209 7 26 17 43 44 33 54 -3 3 -25 -4 -49 -16 -79 -40 -173 -24 -222 37 -8 10 -13 11 -18 3z"/> <path d="M3808 934 c-12 -12 6 -44 37 -69 30 -22 43 -25 124 -25 85 0 91 1 110 26 40 50 20 79 -27 39 -26 -22 -40 -25 -101 -25 -66 0 -74 2 -101 30 -31 32 -33 33 -42 24z"/> <path d="M4485 908 c4 -13 19 -33 33 -45 24 -20 38 -23 118 -23 82 0 93 2 112 23 44 46 19 76 -31 37 -39 -31 -132 -28 -181 5 -46 31 -59 32 -51 3z"/> <path d="M4820 729 c0 -19 30 -63 56 -82 20 -15 28 -16 40 -6 11 9 20 9 40 0 20 -9 33 -8 62 5 72 31 87 42 90 68 l3 26 -47 -25 c-68 -36 -197 -32 -209 6 -7 20 -35 27 -35 8z"/> <path d="M4150 720 c0 -51 75 -95 147 -87 25 3 48 9 52 14 3 4 19 9 35 10 32 1 46 17 46 51 0 22 -25 32 -32 11 -10 -30 -183 -32 -213 -3 -16 16 -35 18 -35 4z"/> <path d="M4760 531 c-8 -3 -27 -14 -43 -25 -23 -15 -40 -18 -98 -14 -44 4 -76 11 -88 22 -42 38 -57 5 -16 -34 38 -35 145 -41 203 -11 50 25 87 81 42 62z"/> <path d="M2916 2626 c-26 -22 -29 -46 -5 -46 12 0 59 49 59 61 0 16 -24 9 -54 -15z"/> <path d="M2348 2458 c7 -7 12 -20 12 -29 0 -23 15 -32 40 -24 32 10 23 31 -22 48 -24 10 -37 12 -30 5z"/> <path d="M2595 2448 c-11 -6 -25 -18 -31 -26 -6 -9 -30 -15 -62 -15 -36 -1 -52 -5 -52 -14 0 -20 109 -18 116 2 4 8 16 15 29 15 21 0 35 17 35 41 0 12 -10 11 -35 -3z"/> <path d="M3802 2427 c-6 -7 -43 -28 -81 -47 -39 -18 -71 -37 -71 -42 0 -24 102 8 126 40 18 24 57 10 84 -31 24 -37 25 -38 71 -32 38 5 47 3 53 -10 5 -15 9 -14 36 5 25 18 33 20 46 9 12 -10 19 -8 39 11 32 30 36 63 4 34 -17 -15 -37 -19 -103 -19 -72 0 -85 3 -113 25 -18 14 -32 35 -32 48 -1 16 -7 22 -25 22 -13 0 -28 -6 -34 -13z"/> <path d="M2690 2340 c0 -6 -11 -15 -25 -20 -14 -5 -25 -14 -25 -20 0 -5 -9 -10 -19 -10 -25 0 -36 -16 -17 -23 8 -3 19 0 25 7 6 7 31 21 56 32 46 19 61 44 25 44 -11 0 -20 -5 -20 -10z"/> <path d="M2527 2239 c-26 -29 -10 -44 19 -17 13 13 24 26 24 31 0 13 -25 5 -43 -14z"/> <path d="M3473 2238 c-18 -11 -33 -24 -33 -29 0 -5 -6 -9 -13 -9 -22 0 -97 -40 -97 -52 0 -14 94 -2 99 13 6 19 40 49 54 49 8 0 19 -18 26 -40 14 -49 44 -64 113 -57 26 2 52 -1 57 -6 7 -7 16 -5 29 6 10 9 21 14 25 11 3 -4 18 -4 32 0 20 5 25 13 25 36 0 28 -1 29 -22 18 -13 -7 -30 -18 -38 -24 -8 -6 -30 -14 -48 -18 -40 -7 -125 26 -160 62 -22 23 -22 25 -6 43 23 26 0 24 -43 -3z"/> <path d="M3125 2040 c-3 -6 -25 -19 -49 -30 -23 -10 -49 -26 -56 -35 -7 -8 -19 -15 -26 -15 -8 0 -14 -4 -14 -9 0 -5 -15 -14 -32 -21 -20 -7 -28 -14 -20 -17 8 -3 30 2 50 10 21 8 52 21 70 27 17 7 32 18 32 24 0 6 16 20 36 31 36 19 36 19 50 0 8 -10 14 -29 14 -41 0 -32 13 -38 125 -56 35 -5 29 28 -7 41 -68 25 -100 46 -114 73 -14 28 -47 38 -59 18z"/> <path d="M3435 1980 c-10 -11 -28 -20 -41 -20 -31 0 -55 -10 -48 -21 15 -25 114 12 114 43 0 23 -3 23 -25 -2z"/> <path d="M8078 1957 c-31 -18 -76 -46 -100 -63 -24 -17 -65 -43 -93 -58 -27 -15 -68 -38 -90 -51 -22 -13 -49 -24 -60 -25 -11 0 -33 -12 -50 -27 -28 -27 -47 -40 -90 -63 -11 -6 -33 -19 -50 -30 -16 -11 -41 -25 -55 -30 -13 -6 -27 -15 -30 -19 -3 -4 -27 -15 -55 -26 -27 -10 -61 -29 -76 -42 -25 -24 -55 -43 -95 -62 -11 -5 -51 -28 -88 -50 -36 -23 -75 -41 -86 -41 -11 0 -34 -13 -52 -29 -34 -29 -183 -121 -198 -121 -4 0 -13 -6 -19 -13 -6 -8 -28 -19 -48 -25 -21 -6 -61 -29 -89 -50 -28 -21 -66 -46 -85 -56 -19 -9 -47 -25 -64 -36 -60 -38 -106 -60 -123 -60 -10 0 -31 -13 -48 -28 -32 -31 -104 -76 -174 -110 l-45 -21 0 -198 1 -198 59 -32 c33 -18 69 -37 80 -43 11 -6 29 -16 40 -23 11 -7 51 -30 90 -52 38 -22 79 -45 90 -52 11 -7 29 -17 40 -23 11 -6 34 -19 50 -29 17 -11 50 -30 75 -42 25 -13 64 -36 86 -51 53 -35 82 -35 136 1 24 16 61 39 83 51 22 12 54 30 70 41 17 10 41 24 55 29 13 6 27 14 30 18 3 4 21 15 40 26 63 33 104 57 135 77 17 10 41 23 54 29 13 6 35 19 50 29 14 10 49 31 76 45 28 15 64 36 80 47 17 10 37 22 45 26 8 4 47 25 85 48 39 22 77 44 85 48 8 4 29 16 45 27 17 11 41 25 55 30 13 6 27 14 30 18 3 4 16 13 30 19 14 7 48 26 75 42 28 17 59 35 70 41 11 6 29 16 40 23 11 7 51 30 90 52 38 22 79 45 90 52 11 7 29 17 40 23 11 6 34 19 50 30 17 11 44 26 60 34 17 8 53 29 80 45 28 17 59 35 70 41 11 6 34 19 50 30 17 11 40 24 52 29 12 6 40 22 62 36 22 14 47 25 56 25 23 0 26 31 23 229 l-3 185 -82 47 c-46 26 -100 61 -122 78 -21 17 -46 31 -55 31 -8 0 -46 18 -82 41 -37 22 -77 45 -88 50 -28 12 -53 28 -99 63 -38 28 -130 77 -144 75 -5 0 -34 -15 -65 -32z m135 -98 c20 -5 37 -15 37 -22 -1 -21 -69 -57 -108 -57 -37 0 -102 36 -102 57 0 28 104 42 173 22z m-136 -120 c73 -11 175 0 196 22 23 25 53 24 60 -1 4 -15 14 -20 40 -20 20 0 38 -4 41 -9 5 -8 83 -47 139 -70 44 -17 35 -46 -19 -64 -39 -12 -54 -13 -100 -2 -30 7 -64 21 -74 30 -19 17 -20 17 -20 -1 0 -30 29 -64 54 -64 12 0 27 -5 33 -11 10 -10 40 -9 136 5 15 2 38 11 52 20 31 21 48 20 75 -2 l22 -18 -28 -34 c-16 -19 -32 -36 -36 -38 -19 -9 -5 -22 22 -22 38 0 45 -26 31 -116 -10 -69 -41 -116 -83 -130 -11 -3 -54 -26 -96 -51 -42 -25 -92 -52 -110 -60 -18 -7 -54 -30 -80 -50 -26 -20 -85 -54 -132 -76 -47 -23 -101 -53 -121 -69 -20 -15 -42 -28 -47 -28 -11 0 -45 -20 -145 -86 -34 -22 -83 -50 -109 -63 -25 -12 -51 -28 -58 -36 -6 -7 -23 -16 -38 -20 -15 -3 -36 -15 -47 -25 -11 -11 -42 -29 -68 -40 -27 -12 -51 -28 -54 -36 -3 -8 -13 -14 -22 -14 -10 0 -44 -17 -77 -37 -32 -20 -88 -51 -124 -70 -35 -18 -68 -40 -73 -48 -4 -8 -16 -15 -26 -15 -10 0 -33 -10 -52 -23 -19 -12 -70 -44 -114 -70 -44 -26 -87 -52 -95 -57 -29 -20 -80 -40 -98 -40 -11 0 -25 -7 -32 -15 -15 -19 -38 -19 -59 -2 -22 18 -218 137 -226 137 -4 0 -18 9 -32 20 -14 11 -34 20 -45 20 -10 0 -21 6 -24 14 -3 8 -15 17 -27 20 -12 3 -35 18 -52 33 -16 15 -36 28 -44 28 -29 0 -51 48 -57 129 -5 72 -4 80 17 102 21 22 21 25 6 42 -10 10 -17 28 -17 39 0 29 60 40 95 17 14 -9 34 -14 45 -11 10 3 24 -1 31 -9 17 -21 79 -17 129 9 35 17 46 28 48 51 l4 28 -34 -17 c-62 -33 -68 -35 -102 -35 -42 0 -96 29 -96 52 0 11 17 25 48 38 26 11 54 24 62 29 8 4 29 15 45 23 107 57 114 59 141 41 26 -17 185 -29 231 -18 23 5 53 51 53 80 0 11 -10 8 -42 -15 -53 -39 -132 -42 -178 -8 -17 12 -30 27 -30 34 0 6 26 21 59 33 32 11 75 32 95 46 20 14 45 25 54 25 9 0 26 7 36 15 27 20 37 19 101 -11 55 -26 59 -27 155 -8 37 7 65 27 81 57 16 28 0 41 -22 18 -10 -11 -39 -23 -64 -27 -25 -3 -50 -14 -55 -23 -9 -14 -12 -14 -26 6 -9 13 -24 23 -34 23 -22 0 -44 26 -37 44 3 8 28 21 56 31 27 9 61 25 74 35 24 19 134 60 161 60 8 0 19 -7 24 -16 11 -19 88 -26 114 -10 12 7 21 7 28 0 15 -15 76 -5 99 17 12 11 21 29 21 40 0 18 -4 20 -27 14 -15 -3 -32 -13 -38 -22 -10 -13 -24 -15 -74 -10 -61 5 -101 26 -101 51 0 12 109 66 133 66 7 0 22 9 32 20 10 11 30 20 45 20 16 0 30 7 34 15 7 21 42 19 74 -4 35 -24 147 -33 190 -16 17 8 40 23 51 34 37 37 20 70 -18 38 -22 -19 -110 -46 -117 -36 -3 5 -23 13 -44 19 -28 8 -40 16 -40 29 0 17 37 41 62 41 6 0 35 16 65 36 30 20 68 37 84 38 18 1 36 11 45 25 l16 22 24 -22 c13 -13 44 -25 71 -30z"/> <path d="M8010 1412 c0 -21 8 -35 26 -47 22 -14 37 -15 113 -7 94 10 141 31 141 63 0 18 -2 19 -30 4 -16 -9 -30 -20 -30 -25 0 -6 -33 -10 -76 -10 -66 0 -80 3 -110 26 l-34 26 0 -30z"/> <path d="M7670 1221 c0 -29 22 -47 78 -64 45 -14 57 -15 85 -3 17 8 45 18 61 22 28 9 55 38 45 48 -3 3 -30 -6 -59 -20 -60 -29 -81 -28 -159 10 -45 21 -51 22 -51 7z"/> <path d="M7983 1098 c-18 -6 -33 -15 -33 -19 0 -15 27 -10 51 11 27 22 27 22 -18 8z"/> <path d="M7895 1040 c-16 -11 -23 -20 -15 -20 17 0 71 39 55 40 -5 0 -23 -9 -40 -20z"/> <path d="M7330 1024 c0 -9 12 -28 26 -41 25 -23 31 -24 89 -16 40 6 70 5 85 -1 19 -9 27 -5 51 22 30 33 31 56 3 45 -8 -3 -19 -13 -24 -23 -13 -25 -155 -16 -186 11 -25 23 -44 24 -44 3z"/> <path d="M6990 825 c0 -31 41 -59 74 -51 14 3 28 2 31 -4 15 -24 134 2 159 35 23 30 21 53 -2 32 -10 -10 -25 -17 -33 -17 -9 0 -24 -7 -35 -15 -25 -19 -65 -19 -103 0 -100 49 -91 47 -91 20z"/> <path d="M7280 690 c0 -5 6 -10 14 -10 8 0 18 5 21 10 3 6 -3 10 -14 10 -12 0 -21 -4 -21 -10z"/> <path d="M6906 640 c-28 -28 -34 -30 -111 -30 -69 0 -85 3 -100 20 -19 21 -45 27 -45 11 0 -22 14 -41 30 -41 10 0 23 -6 29 -14 14 -17 173 -14 179 4 2 6 15 15 28 20 17 7 24 17 24 35 0 14 -1 25 -2 25 -2 0 -16 -14 -32 -30z"/> <path d="M7175 629 c-4 -5 -19 -15 -33 -21 -19 -7 -22 -12 -13 -16 16 -5 81 26 81 40 0 12 -28 10 -35 -3z"/> <path d="M6965 510 c-8 -13 15 -13 35 0 12 8 11 10 -7 10 -12 0 -25 -4 -28 -10z"/> <path d="M6915 480 c-3 -5 1 -10 9 -10 8 0 18 5 21 10 3 6 -1 10 -9 10 -8 0 -18 -4 -21 -10z"/> <path d="M2803 1851 c-29 -25 -29 -31 2 -31 14 0 25 4 25 9 0 5 3 16 6 25 8 21 -6 20 -33 -3z"/> <path d="M2840 1785 c0 -13 12 -35 26 -49 24 -21 33 -23 88 -19 33 3 71 12 84 20 13 8 31 11 41 8 13 -4 24 2 35 19 22 34 21 54 -1 34 -10 -8 -34 -22 -53 -30 -43 -19 -174 -32 -164 -17 6 11 -33 59 -48 59 -4 0 -8 -11 -8 -25z"/> <path d="M1788 1746 c-26 -12 -61 -34 -80 -47 -18 -14 -40 -29 -48 -32 -8 -4 -28 -16 -45 -27 -43 -27 -69 -42 -162 -88 -45 -23 -85 -46 -88 -52 -6 -10 -22 -19 -140 -83 l-60 -33 0 -198 0 -199 45 -24 c25 -13 61 -34 80 -45 19 -12 55 -33 80 -46 25 -13 59 -35 77 -48 17 -13 41 -24 51 -24 16 0 89 41 137 78 6 4 21 13 35 19 14 7 48 26 75 42 28 17 59 35 70 41 11 6 34 19 50 30 17 11 44 26 60 34 17 8 53 29 80 45 28 17 73 42 101 56 29 14 56 31 62 38 5 7 9 90 8 200 l-1 189 -50 29 c-27 16 -59 33 -70 39 -49 26 -68 39 -94 64 -15 14 -34 26 -42 26 -8 0 -23 6 -34 13 -36 25 -51 25 -97 3z m97 -92 c71 -18 78 -29 43 -68 -22 -23 -27 -24 -96 -17 -55 5 -78 12 -94 29 -26 26 -19 37 38 57 22 8 40 14 42 15 2 0 32 -7 67 -16z m159 -89 c20 -8 36 -19 36 -23 0 -10 -49 -62 -59 -62 -4 0 -19 -10 -33 -22 -13 -13 -48 -36 -78 -51 -30 -16 -77 -42 -105 -58 -27 -16 -61 -35 -75 -42 -14 -6 -31 -17 -38 -24 -7 -7 -19 -13 -27 -13 -7 0 -15 -7 -19 -15 -3 -8 -14 -15 -24 -15 -11 0 -25 -7 -32 -15 -7 -8 -18 -15 -24 -15 -19 -1 -58 -39 -51 -50 9 -14 42 -13 48 3 2 7 31 25 63 41 33 16 68 37 79 46 11 10 31 24 45 29 14 6 39 20 55 30 17 11 38 20 48 20 9 1 17 6 17 12 0 5 15 16 33 24 17 7 42 23 55 35 17 17 29 20 57 14 52 -10 65 -47 49 -146 -6 -32 -15 -42 -67 -75 -63 -39 -95 -57 -194 -108 -32 -16 -59 -33 -61 -37 -2 -5 -8 -8 -12 -8 -5 0 -38 -18 -72 -41 -54 -35 -68 -40 -101 -35 -35 6 -39 4 -58 -29 -24 -40 -38 -44 -46 -15 -3 11 -12 20 -20 20 -8 0 -32 14 -53 30 -21 16 -43 30 -48 30 -6 0 -23 16 -38 35 -23 30 -28 48 -31 113 -3 66 0 81 18 105 l21 29 -21 22 c-28 29 -26 44 4 56 14 5 25 14 25 20 0 16 30 12 37 -5 12 -33 61 -47 134 -40 38 4 71 11 74 16 8 13 -41 22 -77 15 -21 -4 -36 -1 -47 9 -9 9 -25 22 -35 29 -30 20 -13 41 53 66 34 12 72 30 84 40 12 9 40 20 61 23 22 4 44 13 48 22 12 21 45 19 58 -5 13 -24 76 -37 102 -21 11 7 32 9 48 6 16 -3 31 -2 35 4 4 7 12 7 25 -1 16 -10 25 -8 57 15 21 15 38 27 39 27 1 0 18 -7 38 -15z"/> <path d="M1607 1392 c-15 -17 -16 -21 -3 -31 12 -10 17 -8 26 9 16 30 -1 46 -23 22z"/> <path d="M3290 1740 c0 -5 -6 -10 -13 -10 -8 0 -24 -9 -37 -20 -13 -11 -28 -20 -33 -20 -6 0 -18 -7 -26 -15 -9 -8 -46 -29 -81 -47 -103 -53 -107 -57 -102 -100 4 -37 22 -54 22 -23 0 22 41 75 57 75 7 0 13 5 13 10 0 6 9 10 20 10 10 0 24 9 30 20 8 14 21 20 46 20 27 0 37 5 46 25 6 14 20 25 31 25 19 0 66 37 67 53 0 4 -9 7 -20 7 -11 0 -20 -4 -20 -10z"/> <path d="M3000 1406 c0 -14 5 -28 10 -31 6 -4 10 7 10 24 0 17 -4 31 -10 31 -5 0 -10 -11 -10 -24z"/> <path d="M2410 1175 c-7 -8 -22 -15 -34 -15 -12 0 -37 -14 -56 -31 -18 -17 -50 -40 -69 -51 -97 -53 -136 -77 -145 -90 -7 -10 -9 -77 -6 -202 l5 -187 80 -44 c44 -24 89 -49 100 -55 11 -6 34 -19 50 -30 17 -11 37 -23 45 -27 14 -7 149 -84 180 -103 8 -5 33 -19 55 -31 22 -12 63 -37 91 -55 57 -38 88 -42 116 -17 17 16 40 30 83 53 11 6 34 19 50 29 17 11 58 34 93 51 l62 32 0 198 c0 221 5 205 -83 250 -76 39 -89 47 -118 74 -15 14 -32 26 -38 26 -11 0 -118 55 -176 90 -16 10 -48 28 -70 40 -22 12 -55 35 -73 51 -18 16 -41 29 -51 29 -10 0 -24 7 -31 15 -7 8 -20 15 -30 15 -10 0 -23 -7 -30 -15z m113 -127 c20 -10 19 -28 -4 -39 -62 -31 -99 -41 -124 -32 -28 9 -64 57 -52 69 22 22 139 24 180 2z m-178 -94 c83 -30 145 -28 218 7 l47 23 16 -22 c10 -15 25 -22 48 -22 22 0 52 -12 86 -36 29 -20 68 -41 87 -46 37 -10 39 -15 18 -41 -30 -40 -146 -43 -195 -4 -25 19 -25 19 -28 -3 -7 -47 78 -75 183 -59 39 6 82 17 97 25 21 11 32 12 52 3 14 -7 26 -18 26 -25 0 -15 -66 -84 -80 -84 -6 0 -10 -4 -10 -10 0 -13 27 -13 35 0 3 6 14 10 24 10 21 0 31 -41 31 -123 0 -44 -4 -51 -47 -93 -43 -40 -92 -64 -133 -64 -8 0 -24 -12 -35 -26 -19 -24 -24 -25 -45 -14 -13 7 -31 21 -40 31 -8 10 -51 37 -95 60 -44 23 -107 59 -139 80 -33 22 -67 39 -75 39 -8 0 -23 8 -34 17 -10 10 -40 29 -65 43 -37 20 -50 34 -60 65 -21 61 -27 152 -12 170 8 10 10 29 6 56 -7 44 5 69 33 69 9 0 48 -12 86 -26z"/> </g> </svg> 