<?xml version="1.0" standalone="no"?>
<!DOCTYPE svg PUBLIC "-//W3C//DTD SVG 20010904//EN"
 "http://www.w3.org/TR/2001/REC-SVG-20010904/DTD/svg10.dtd">
<svg version="1.0" xmlns="http://www.w3.org/2000/svg"
 width="300.000000pt" height="300.000000pt" viewBox="0 0 300.000000 300.000000"
 preserveAspectRatio="xMidYMid meet">
<metadata>
Created by potrace 1.10, written by Peter Selinger 2001-2011
</metadata>
<g transform="translate(0.000000,300.000000) scale(0.100000,-0.100000)"
fill="#000000" stroke="none">
<path d="M1832 2392 c-29 -11 -68 -34 -86 -51 -44 -42 -166 -90 -232 -91 -70
0 -139 -26 -178 -66 -42 -43 -140 -84 -231 -95 -95 -12 -131 -26 -174 -64 -47
-42 -167 -90 -250 -100 -78 -9 -119 -25 -164 -65 -19 -16 -69 -43 -111 -59
-43 -17 -89 -37 -102 -45 -41 -27 -45 -71 -42 -383 l3 -293 25 -23 c14 -14
168 -121 344 -238 l319 -214 61 0 c51 0 80 8 176 49 187 79 239 101 365 154
144 61 409 173 595 252 74 31 218 92 320 135 102 44 195 85 207 93 13 8 27 31
32 51 6 20 13 162 17 317 8 329 11 316 -97 383 -38 23 -79 55 -91 69 -33 39
-76 67 -132 85 -50 17 -192 102 -236 142 -50 46 -108 66 -199 71 -68 4 -97 1
-139 -14z m222 -12 c22 -5 51 -18 65 -29 79 -63 235 -158 291 -178 45 -15 76
-34 100 -60 19 -21 68 -60 110 -88 42 -28 81 -62 88 -78 11 -22 11 -80 3 -310
-6 -155 -14 -293 -17 -306 -7 -24 -70 -58 -234 -123 -41 -16 -98 -40 -125 -53
-28 -12 -91 -39 -140 -59 -50 -21 -114 -48 -143 -62 -29 -13 -55 -24 -58 -24
-3 0 -53 -21 -112 -46 -114 -48 -180 -76 -412 -174 -80 -34 -165 -70 -190 -80
-25 -10 -76 -33 -115 -51 -49 -23 -90 -34 -136 -37 l-66 -4 -318 213 c-174
118 -328 224 -340 235 -34 31 -39 98 -31 388 5 179 11 257 21 271 7 12 55 37
111 59 55 22 103 45 107 52 18 31 98 66 159 71 80 6 208 56 261 101 53 44 75
52 167 63 89 10 194 51 233 90 15 16 40 35 55 43 32 16 121 36 162 36 45 0
161 49 198 84 49 46 105 65 192 65 41 0 93 -4 114 -9z"/>
<path d="M1852 2299 c-24 -12 -48 -32 -54 -44 -14 -32 -175 -90 -253 -91 -69
-1 -140 -32 -156 -67 -15 -31 -188 -97 -257 -97 -65 0 -98 -13 -142 -55 -47
-45 -197 -105 -262 -105 -59 0 -113 -21 -153 -60 -17 -16 -68 -43 -115 -61
-47 -17 -91 -36 -98 -42 -9 -7 -12 -75 -12 -278 l0 -268 315 -213 c173 -117
325 -217 337 -221 18 -7 189 62 823 330 l800 339 6 144 c4 80 8 203 9 275 l2
130 -83 52 c-45 28 -88 62 -96 76 -13 26 -85 67 -117 67 -21 0 -200 112 -241
151 -65 61 -173 77 -253 38z m165 -5 c43 -9 85 -43 81 -67 -4 -29 -60 -65
-113 -73 -55 -8 -138 11 -172 40 l-25 21 22 28 c26 33 53 48 100 57 34 7 51 6
107 -6z m-225 -202 c18 -21 79 -49 125 -57 58 -9 140 16 177 54 25 26 28 35
24 75 -3 26 -2 46 2 46 4 0 43 -21 85 -47 75 -46 76 -48 49 -54 -49 -10 -93
-38 -109 -69 -22 -43 -20 -122 5 -153 52 -66 207 -77 278 -20 32 26 37 37 40
77 2 25 5 46 7 46 2 0 34 -19 70 -42 45 -28 62 -44 53 -48 -7 -4 -238 -101
-513 -215 -275 -114 -623 -259 -774 -321 -150 -63 -277 -114 -281 -114 -5 0
-144 88 -310 195 -165 108 -307 199 -315 202 -28 10 -15 20 63 50 l77 31 5
-52 c6 -63 12 -71 60 -96 83 -42 193 -34 250 20 28 26 30 33 30 97 0 73 -10
92 -65 121 -20 11 -20 11 0 18 11 4 46 17 78 30 l57 23 0 -45 c0 -59 12 -79
63 -106 54 -28 156 -30 205 -4 62 32 72 49 72 124 0 72 -10 91 -65 120 -20 11
-20 11 0 18 11 4 47 18 79 30 33 13 61 24 63 24 2 0 1 -21 -3 -46 -5 -39 -3
-49 16 -69 61 -65 209 -74 278 -18 36 29 37 33 40 102 3 63 0 74 -21 95 -13
12 -30 25 -38 28 -19 7 -14 10 61 39 l65 25 3 -50 c2 -28 8 -56 14 -64z m288
3 c-45 -48 -158 -59 -230 -22 -40 20 -46 26 -51 65 -3 23 -4 42 -3 42 1 0 21
-9 45 -20 62 -28 151 -27 209 3 l45 22 3 -34 c2 -23 -3 -40 -18 -56z m-440 33
c38 -19 45 -28 45 -52 0 -46 -41 -70 -130 -74 -61 -3 -82 0 -120 18 -53 26
-57 45 -16 84 52 50 148 61 221 24z m750 -50 c78 -40 79 -75 5 -112 -53 -26
-141 -25 -200 4 -51 25 -58 47 -24 81 52 52 146 64 219 27z m-850 -93 c60 0
83 5 113 23 21 12 39 22 40 22 2 0 1 -18 -1 -40 -3 -28 -12 -46 -29 -60 -59
-46 -172 -49 -235 -6 -27 18 -34 29 -36 64 l-3 42 38 -22 c30 -18 53 -23 113
-23z m-306 -24 c61 -34 60 -68 -5 -106 -48 -28 -149 -28 -204 1 -48 25 -55 47
-24 80 48 51 165 64 233 25z m1214 -48 c-37 -77 -192 -95 -272 -32 -20 16 -26
29 -26 59 l0 39 35 -20 c72 -43 215 -32 257 18 12 15 13 13 16 -10 2 -15 -3
-39 -10 -54z m166 -275 c-4 -159 -10 -247 -18 -254 -14 -14 -1558 -666 -1563
-660 -3 2 -1 117 3 254 l7 250 376 156 c207 86 558 232 781 325 223 93 408
170 412 170 5 1 5 -108 2 -241z m-1355 136 c-48 -51 -172 -59 -242 -15 -32 20
-37 28 -37 61 l0 39 46 -21 c63 -27 179 -23 221 8 l28 21 3 -34 c2 -26 -3 -42
-19 -59z m-428 23 c25 -17 34 -30 34 -51 0 -59 -127 -93 -223 -62 -66 22 -81
40 -62 73 24 41 76 63 151 63 52 0 73 -5 100 -23z m39 -134 c-5 -45 -8 -50
-50 -71 -60 -31 -157 -28 -213 7 -32 20 -37 27 -37 61 l0 39 46 -21 c64 -28
180 -23 221 9 15 12 30 22 33 22 3 1 3 -20 0 -46z m-333 -126 c87 -57 230
-149 318 -206 l160 -103 -3 -252 c-2 -138 -5 -252 -6 -254 -2 -1 -145 93 -319
210 l-317 212 0 248 c0 136 2 248 5 248 2 0 75 -46 162 -103z"/>
<path d="M1842 1949 c-46 -9 -96 -40 -112 -69 -6 -10 -10 -46 -10 -79 0 -49 4
-65 21 -82 67 -67 223 -65 296 3 19 18 23 32 23 88 0 59 -3 69 -27 92 -46 44
-118 62 -191 47z m156 -36 c58 -44 55 -74 -13 -107 -52 -26 -136 -25 -197 2
-68 30 -62 77 15 113 54 25 156 21 195 -8z m-108 -138 c60 0 83 5 113 23 l38
22 -3 -42 c-2 -35 -9 -46 -36 -64 -63 -43 -162 -43 -224 0 -26 17 -34 31 -39
63 l-5 41 40 -22 c31 -16 59 -21 116 -21z"/>
<path d="M1417 1786 c-26 -7 -61 -26 -77 -41 -28 -27 -30 -34 -30 -100 0 -56
4 -75 18 -88 70 -64 227 -62 291 2 29 29 31 159 4 183 -52 46 -133 63 -206 44z
m125 -17 c21 -5 50 -21 65 -34 33 -28 27 -46 -28 -83 -30 -21 -43 -23 -116
-20 -63 2 -88 8 -109 24 -38 28 -39 37 -9 73 40 47 118 63 197 40z m77 -185
c-15 -29 -96 -64 -146 -64 -46 1 -107 22 -134 46 -12 11 -19 30 -19 55 l0 38
34 -20 c70 -41 211 -34 253 13 18 20 18 20 21 -13 2 -18 -2 -43 -9 -55z"/>
<path d="M968 1610 c-55 -30 -68 -54 -68 -132 0 -67 0 -68 38 -93 47 -31 118
-45 174 -34 24 4 46 8 50 9 4 0 23 14 43 31 34 30 35 34 35 98 0 60 -3 70 -27
93 -38 37 -74 48 -146 48 -41 -1 -74 -7 -99 -20z m204 -17 c63 -37 62 -69 -3
-108 -71 -41 -239 -13 -247 42 -11 74 159 119 250 66z m-119 -140 c62 -4 79
-1 120 20 l47 24 0 -38 c0 -28 -6 -42 -26 -58 -59 -47 -156 -53 -230 -14 -35
18 -40 25 -44 65 l-6 45 34 -20 c22 -13 58 -22 105 -24z"/>
</g>
</svg>
