 <svg version="1.0" xmlns="http://www.w3.org/2000/svg"  width="300.000000pt" height="429.000000pt" viewBox="0 0 300.000000 429.000000"  preserveAspectRatio="xMidYMid meet">  <g transform="translate(0.000000,429.000000) scale(0.100000,-0.100000)" fill="#000000" stroke="none"> <path d="M1302 3071 c-68 -23 -102 -55 -102 -95 0 -30 -3 -32 -77 -58 -61 -21 -82 -24 -98 -15 -28 15 -221 13 -277 -2 -25 -7 -62 -26 -82 -43 -30 -24 -36 -36 -36 -67 l0 -38 -113 -36 c-63 -21 -119 -37 -125 -37 -9 0 -12 -114 -12 -458 l0 -457 423 -160 c232 -87 476 -178 541 -202 l119 -44 151 57 c222 84 213 80 584 220 l342 128 -2 455 -3 454 -125 42 -125 42 -3 39 c-7 83 -85 119 -252 117 -58 -1 -117 -6 -131 -11 -20 -8 -42 -4 -105 18 -73 26 -79 30 -82 58 -4 42 -45 79 -105 97 -73 22 -237 19 -305 -4z m326 -36 c39 -18 53 -29 50 -42 -11 -59 -249 -84 -378 -40 -41 14 -65 27 -65 37 0 19 80 59 142 70 76 14 190 2 251 -25z m-173 -130 c123 0 145 3 183 21 23 12 44 19 45 15 2 -3 2 -30 -1 -59 -5 -64 -21 -75 -139 -92 -94 -14 -217 -2 -277 26 -35 17 -36 19 -36 76 l0 58 43 -22 c38 -21 56 -23 182 -23z m363 -21 c10 -3 4 -14 -18 -34 l-33 -31 7 -77 c4 -42 13 -86 21 -98 34 -52 164 -80 295 -63 134 16 190 48 190 106 0 18 3 33 7 33 15 0 173 -55 173 -60 0 -3 -111 -43 -247 -89 -137 -45 -358 -121 -493 -168 -135 -47 -252 -86 -260 -85 -8 0 -121 37 -250 82 -129 45 -351 120 -492 168 -142 47 -258 89 -258 92 0 5 157 60 173 60 4 0 7 -15 7 -32 0 -38 6 -48 40 -69 58 -36 158 -50 269 -38 94 11 164 37 180 67 6 12 11 57 11 102 0 75 -2 83 -26 105 -19 18 -23 26 -13 29 63 20 91 27 93 24 2 -1 7 -23 12 -48 8 -42 13 -47 64 -73 70 -35 162 -44 267 -27 138 22 172 45 173 117 l0 42 48 -15 c26 -9 53 -18 60 -20z m-761 -25 c91 -45 58 -80 -94 -100 -101 -13 -217 0 -267 29 -36 21 -37 30 -6 53 73 54 275 63 367 18z m1145 1 c56 -26 66 -45 33 -66 -75 -49 -294 -54 -390 -8 -41 19 -44 36 -10 58 77 50 276 59 367 16z m-1487 -115 c33 -16 62 -19 170 -19 111 0 137 3 178 22 l48 21 -3 -57 c-3 -56 -4 -58 -43 -77 -81 -40 -336 -29 -392 17 -14 11 -19 123 -5 116 4 -2 25 -13 47 -23z m1140 4 c85 -38 286 -35 366 5 18 9 33 16 34 16 2 0 2 -26 1 -57 -1 -57 -2 -58 -41 -78 -34 -17 -60 -20 -180 -20 -122 0 -146 3 -187 22 l-47 21 2 56 c1 31 2 56 3 56 1 0 23 -9 49 -21z m-903 -294 l488 -161 1 -445 c0 -244 0 -447 -1 -452 0 -4 -14 0 -32 9 -17 9 -59 26 -92 39 -56 20 -143 53 -683 261 -106 41 -197 74 -202 74 -8 0 -11 136 -11 430 l0 431 22 -12 c12 -6 241 -84 510 -174z m1551 -247 c-2 -330 -6 -424 -15 -427 -33 -9 -957 -365 -981 -378 -16 -8 -31 -13 -33 -11 -2 2 -5 204 -6 450 l-3 445 505 170 c278 94 512 171 520 172 13 1 15 -51 13 -421z"/> <path d="M1395 2709 c-92 -8 -119 -16 -163 -54 -30 -25 -32 -31 -32 -94 0 -95 12 -124 63 -149 122 -61 396 -38 436 36 17 32 14 173 -4 199 -19 27 -104 59 -170 64 -27 3 -86 1 -130 -2z m230 -50 c60 -29 68 -52 25 -74 -41 -21 -190 -38 -265 -29 -61 6 -155 40 -155 55 0 15 59 49 111 64 81 23 220 15 284 -16z m-175 -134 c117 1 141 4 183 22 l47 22 0 -58 c0 -58 -1 -59 -37 -77 -55 -27 -296 -27 -365 -1 l-48 19 0 59 0 59 43 -22 c38 -21 56 -23 177 -23z"/> </g> </svg> 